M48
; DRILL file {KiCad 9.0.7} date 2026-01-24T19:15:35+0100
; FORMAT={-:-/ absolute / metric / decimal}
; #@! TF.CreationDate,2026-01-24T19:15:35+01:00
; #@! TF.GenerationSoftware,Kicad,Pcbnew,9.0.7
; #@! TF.FileFunction,Plated,1,2,PTH
FMAT,2
METRIC
; #@! TA.AperFunction,Plated,PTH,ViaDrill
T1C0.300
; #@! TA.AperFunction,Plated,PTH,ComponentDrill
T2C0.500
; #@! TA.AperFunction,Plated,PTH,ComponentDrill
T3C0.800
; #@! TA.AperFunction,Plated,PTH,ComponentDrill
T4C0.900
; #@! TA.AperFunction,Plated,PTH,ComponentDrill
T5C1.000
; #@! TA.AperFunction,Plated,PTH,ComponentDrill
T6C1.100
; #@! TA.AperFunction,Plated,PTH,ComponentDrill
T7C1.200
; #@! TA.AperFunction,Plated,PTH,ComponentDrill
T8C3.200
%
G90
G05
T1
X110.922Y-105.314
X113.462Y-85.756
X133.782Y-78.136
X138.354Y-103.536
T2
X96.774Y-77.216
X97.477Y-75.519
X97.477Y-78.913
X99.174Y-74.816
X99.174Y-79.616
X100.871Y-75.519
X100.871Y-78.913
X101.574Y-77.216
X174.562Y-129.444
X175.265Y-127.747
X175.265Y-131.141
X176.962Y-127.044
X176.962Y-131.844
X178.659Y-127.747
X178.659Y-131.141
X179.362Y-129.444
T3
X100.0Y-100.0
X100.0Y-102.5
X103.068Y-113.95
X105.568Y-113.95
T4
X130.734Y-90.582
X133.274Y-90.582
X150.114Y-129.54
X150.114Y-132.08
T5
X103.028Y-122.332
X103.028Y-124.872
X103.028Y-127.412
X103.028Y-129.952
X105.568Y-122.332
X105.568Y-124.872
X105.568Y-127.412
X105.568Y-129.952
X107.366Y-99.98
X107.366Y-102.52
X109.906Y-99.98
X109.906Y-102.52
X112.446Y-99.98
X112.446Y-102.52
X114.986Y-99.98
X114.986Y-102.52
X130.988Y-97.186
X133.528Y-97.186
X134.29Y-102.774
X134.29Y-105.314
X134.29Y-107.854
X134.29Y-110.394
X134.29Y-112.934
X134.29Y-115.474
X140.894Y-73.056
X140.894Y-75.596
X140.894Y-78.136
X140.894Y-80.676
X140.894Y-83.216
X140.894Y-85.756
X140.894Y-88.296
X140.894Y-90.836
X140.894Y-93.376
X140.894Y-95.916
X140.894Y-98.456
X140.894Y-100.996
X140.894Y-103.536
X140.894Y-106.076
X140.894Y-108.616
X140.894Y-111.156
X140.894Y-113.696
X140.894Y-116.236
X140.894Y-118.776
X140.894Y-121.316
X152.553Y-73.056
X152.553Y-75.596
X152.553Y-78.136
X152.553Y-80.676
X152.553Y-83.216
X152.553Y-85.756
X152.553Y-88.296
X152.553Y-90.836
X152.553Y-93.376
X152.553Y-95.916
X152.553Y-98.456
X152.553Y-100.996
X152.553Y-103.536
X152.553Y-106.076
X152.553Y-108.616
X152.553Y-111.156
X152.553Y-113.696
X152.553Y-116.236
X152.553Y-118.776
X152.553Y-121.316
X167.818Y-73.056
X167.818Y-75.596
X167.818Y-78.136
X167.818Y-80.676
X167.818Y-83.216
X167.818Y-85.756
X167.818Y-88.296
X167.818Y-90.836
X167.818Y-93.376
X167.818Y-95.916
X167.818Y-98.456
X167.818Y-100.996
X167.818Y-103.536
X167.818Y-106.076
X167.818Y-108.616
X167.818Y-111.156
X167.818Y-113.696
X167.818Y-116.236
X167.818Y-118.776
X167.818Y-121.316
X179.502Y-73.056
X179.502Y-75.596
X179.502Y-78.136
X179.502Y-80.676
X179.502Y-83.216
X179.502Y-85.756
X179.502Y-88.296
X179.502Y-90.836
X179.502Y-93.376
X179.502Y-95.916
X179.502Y-98.456
X179.502Y-100.996
X179.502Y-103.536
X179.502Y-106.076
X179.502Y-108.616
X179.502Y-111.156
X179.502Y-113.696
X179.502Y-116.236
X179.502Y-118.776
X179.502Y-121.316
T6
X133.708Y-127.0
X133.708Y-131.5
X140.208Y-127.0
X140.208Y-131.5
T7
X124.892Y-75.596
X124.892Y-90.836
X155.956Y-132.08
X171.196Y-132.08
T8
X99.174Y-77.216
X176.962Y-129.444
M30
