%TF.GenerationSoftware,KiCad,Pcbnew,9.0.7*%
%TF.CreationDate,2026-01-24T19:15:04+01:00*%
%TF.ProjectId,carte_support_reveil,63617274-655f-4737-9570-706f72745f72,rev?*%
%TF.SameCoordinates,Original*%
%TF.FileFunction,Soldermask,Bot*%
%TF.FilePolarity,Negative*%
%FSLAX46Y46*%
G04 Gerber Fmt 4.6, Leading zero omitted, Abs format (unit mm)*
G04 Created by KiCad (PCBNEW 9.0.7) date 2026-01-24 19:15:04*
%MOMM*%
%LPD*%
G01*
G04 APERTURE LIST*
%ADD10C,1.600000*%
%ADD11R,1.700000X1.700000*%
%ADD12C,1.700000*%
%ADD13C,0.800000*%
%ADD14C,6.400000*%
%ADD15C,2.400000*%
%ADD16C,2.000000*%
%ADD17R,1.800000X1.800000*%
%ADD18C,1.800000*%
G04 APERTURE END LIST*
D10*
%TO.C,C_NRF24*%
X100000000Y-100000000D03*
X100000000Y-102500000D03*
%TD*%
D11*
%TO.C,NRF24*%
X107366000Y-102520000D03*
D12*
X107366000Y-99980000D03*
X109906000Y-102520000D03*
X109906000Y-99980000D03*
X112446000Y-102520000D03*
X112446000Y-99980000D03*
X114986000Y-102520000D03*
X114986000Y-99980000D03*
%TD*%
D10*
%TO.C,C_ESP01*%
X105568000Y-113950000D03*
X103068000Y-113950000D03*
%TD*%
D11*
%TO.C,test_pin1*%
X140894000Y-73056000D03*
D12*
X140894000Y-75596000D03*
X140894000Y-78136000D03*
X140894000Y-80676000D03*
X140894000Y-83216000D03*
X140894000Y-85756000D03*
X140894000Y-88296000D03*
X140894000Y-90836000D03*
X140894000Y-93376000D03*
X140894000Y-95916000D03*
X140894000Y-98456000D03*
X140894000Y-100996000D03*
X140894000Y-103536000D03*
X140894000Y-106076000D03*
X140894000Y-108616000D03*
X140894000Y-111156000D03*
X140894000Y-113696000D03*
X140894000Y-116236000D03*
X140894000Y-118776000D03*
X140894000Y-121316000D03*
%TD*%
D13*
%TO.C,H2*%
X174562000Y-129444000D03*
X175264944Y-127746944D03*
X175264944Y-131141056D03*
X176962000Y-127044000D03*
D14*
X176962000Y-129444000D03*
D13*
X176962000Y-131844000D03*
X178659056Y-127746944D03*
X178659056Y-131141056D03*
X179362000Y-129444000D03*
%TD*%
D15*
%TO.C,R2*%
X155956000Y-132080000D03*
X171196000Y-132080000D03*
%TD*%
D11*
%TO.C,INT1*%
X133528000Y-97186000D03*
D12*
X130988000Y-97186000D03*
%TD*%
D13*
%TO.C,H1*%
X96774000Y-77216000D03*
X97476944Y-75518944D03*
X97476944Y-78913056D03*
X99174000Y-74816000D03*
D14*
X99174000Y-77216000D03*
D13*
X99174000Y-79616000D03*
X100871056Y-75518944D03*
X100871056Y-78913056D03*
X101574000Y-77216000D03*
%TD*%
D15*
%TO.C,R1*%
X124892000Y-90836000D03*
X124892000Y-75596000D03*
%TD*%
D11*
%TO.C,test_pin2*%
X179502000Y-73056000D03*
D12*
X179502000Y-75596000D03*
X179502000Y-78136000D03*
X179502000Y-80676000D03*
X179502000Y-83216000D03*
X179502000Y-85756000D03*
X179502000Y-88296000D03*
X179502000Y-90836000D03*
X179502000Y-93376000D03*
X179502000Y-95916000D03*
X179502000Y-98456000D03*
X179502000Y-100996000D03*
X179502000Y-103536000D03*
X179502000Y-106076000D03*
X179502000Y-108616000D03*
X179502000Y-111156000D03*
X179502000Y-113696000D03*
X179502000Y-116236000D03*
X179502000Y-118776000D03*
X179502000Y-121316000D03*
%TD*%
D16*
%TO.C,SW1*%
X133708000Y-127000000D03*
X140208000Y-127000000D03*
X133708000Y-131500000D03*
X140208000Y-131500000D03*
%TD*%
D11*
%TO.C,blue_pill_pin2*%
X167818000Y-73056000D03*
D12*
X167818000Y-75596000D03*
X167818000Y-78136000D03*
X167818000Y-80676000D03*
X167818000Y-83216000D03*
X167818000Y-85756000D03*
X167818000Y-88296000D03*
X167818000Y-90836000D03*
X167818000Y-93376000D03*
X167818000Y-95916000D03*
X167818000Y-98456000D03*
X167818000Y-100996000D03*
X167818000Y-103536000D03*
X167818000Y-106076000D03*
X167818000Y-108616000D03*
X167818000Y-111156000D03*
X167818000Y-113696000D03*
X167818000Y-116236000D03*
X167818000Y-118776000D03*
X167818000Y-121316000D03*
%TD*%
D17*
%TO.C,D1*%
X130734000Y-90582000D03*
D18*
X133274000Y-90582000D03*
%TD*%
D11*
%TO.C,blue_pill_pin1*%
X152552600Y-73056000D03*
D12*
X152552600Y-75596000D03*
X152552600Y-78136000D03*
X152552600Y-80676000D03*
X152552600Y-83216000D03*
X152552600Y-85756000D03*
X152552600Y-88296000D03*
X152552600Y-90836000D03*
X152552600Y-93376000D03*
X152552600Y-95916000D03*
X152552600Y-98456000D03*
X152552600Y-100996000D03*
X152552600Y-103536000D03*
X152552600Y-106076000D03*
X152552600Y-108616000D03*
X152552600Y-111156000D03*
X152552600Y-113696000D03*
X152552600Y-116236000D03*
X152552600Y-118776000D03*
X152552600Y-121316000D03*
%TD*%
D11*
%TO.C,BME280*%
X134290000Y-115474000D03*
D12*
X134290000Y-112934000D03*
X134290000Y-110394000D03*
X134290000Y-107854000D03*
X134290000Y-105314000D03*
X134290000Y-102774000D03*
%TD*%
D17*
%TO.C,D2*%
X150114000Y-132080000D03*
D18*
X150114000Y-129540000D03*
%TD*%
D11*
%TO.C,ESP01*%
X103028000Y-122332000D03*
D12*
X105568000Y-122332000D03*
X103028000Y-124872000D03*
X105568000Y-124872000D03*
X103028000Y-127412000D03*
X105568000Y-127412000D03*
X103028000Y-129952000D03*
X105568000Y-129952000D03*
%TD*%
M02*
