%TF.GenerationSoftware,KiCad,Pcbnew,9.0.7*%
%TF.CreationDate,2026-01-24T19:15:04+01:00*%
%TF.ProjectId,carte_support_reveil,63617274-655f-4737-9570-706f72745f72,rev?*%
%TF.SameCoordinates,Original*%
%TF.FileFunction,Copper,L2,Bot*%
%TF.FilePolarity,Positive*%
%FSLAX46Y46*%
G04 Gerber Fmt 4.6, Leading zero omitted, Abs format (unit mm)*
G04 Created by KiCad (PCBNEW 9.0.7) date 2026-01-24 19:15:04*
%MOMM*%
%LPD*%
G01*
G04 APERTURE LIST*
%TA.AperFunction,ComponentPad*%
%ADD10C,1.600000*%
%TD*%
%TA.AperFunction,ComponentPad*%
%ADD11R,1.700000X1.700000*%
%TD*%
%TA.AperFunction,ComponentPad*%
%ADD12C,1.700000*%
%TD*%
%TA.AperFunction,ComponentPad*%
%ADD13C,0.800000*%
%TD*%
%TA.AperFunction,ComponentPad*%
%ADD14C,6.400000*%
%TD*%
%TA.AperFunction,ComponentPad*%
%ADD15C,2.400000*%
%TD*%
%TA.AperFunction,ComponentPad*%
%ADD16C,2.000000*%
%TD*%
%TA.AperFunction,ComponentPad*%
%ADD17R,1.800000X1.800000*%
%TD*%
%TA.AperFunction,ComponentPad*%
%ADD18C,1.800000*%
%TD*%
%TA.AperFunction,ViaPad*%
%ADD19C,0.600000*%
%TD*%
%TA.AperFunction,Conductor*%
%ADD20C,0.200000*%
%TD*%
G04 APERTURE END LIST*
D10*
%TO.P,C_NRF24,1*%
%TO.N,/+3V3*%
X100000000Y-100000000D03*
%TO.P,C_NRF24,2*%
%TO.N,/GND*%
X100000000Y-102500000D03*
%TD*%
D11*
%TO.P,NRF24,1,Pin_1*%
%TO.N,/GND*%
X107366000Y-102520000D03*
D12*
%TO.P,NRF24,2,Pin_2*%
%TO.N,/+3V3*%
X107366000Y-99980000D03*
%TO.P,NRF24,3,Pin_3*%
%TO.N,/B5*%
X109906000Y-102520000D03*
%TO.P,NRF24,4,Pin_4*%
%TO.N,/B6*%
X109906000Y-99980000D03*
%TO.P,NRF24,5,Pin_5*%
%TO.N,/B13*%
X112446000Y-102520000D03*
%TO.P,NRF24,6,Pin_6*%
%TO.N,/B15*%
X112446000Y-99980000D03*
%TO.P,NRF24,7,Pin_7*%
%TO.N,/B14*%
X114986000Y-102520000D03*
%TO.P,NRF24,8,Pin_8*%
%TO.N,/B7*%
X114986000Y-99980000D03*
%TD*%
D10*
%TO.P,C_ESP01,1*%
%TO.N,/GND*%
X105568000Y-113950000D03*
%TO.P,C_ESP01,2*%
%TO.N,/+3V3*%
X103068000Y-113950000D03*
%TD*%
D11*
%TO.P,test_pin1,1,Pin_1*%
%TO.N,/B12*%
X140894000Y-73056000D03*
D12*
%TO.P,test_pin1,2,Pin_2*%
%TO.N,/B13*%
X140894000Y-75596000D03*
%TO.P,test_pin1,3,Pin_3*%
%TO.N,/B14*%
X140894000Y-78136000D03*
%TO.P,test_pin1,4,Pin_4*%
%TO.N,/B15*%
X140894000Y-80676000D03*
%TO.P,test_pin1,5,Pin_5*%
%TO.N,/A8*%
X140894000Y-83216000D03*
%TO.P,test_pin1,6,Pin_6*%
%TO.N,/A9*%
X140894000Y-85756000D03*
%TO.P,test_pin1,7,Pin_7*%
%TO.N,/A10*%
X140894000Y-88296000D03*
%TO.P,test_pin1,8,Pin_8*%
%TO.N,/A11*%
X140894000Y-90836000D03*
%TO.P,test_pin1,9,Pin_9*%
%TO.N,/A12*%
X140894000Y-93376000D03*
%TO.P,test_pin1,10,Pin_10*%
%TO.N,/A15*%
X140894000Y-95916000D03*
%TO.P,test_pin1,11,Pin_11*%
%TO.N,/B3*%
X140894000Y-98456000D03*
%TO.P,test_pin1,12,Pin_12*%
%TO.N,/B4*%
X140894000Y-100996000D03*
%TO.P,test_pin1,13,Pin_13*%
%TO.N,/B5*%
X140894000Y-103536000D03*
%TO.P,test_pin1,14,Pin_14*%
%TO.N,/B6*%
X140894000Y-106076000D03*
%TO.P,test_pin1,15,Pin_15*%
%TO.N,/B7*%
X140894000Y-108616000D03*
%TO.P,test_pin1,16,Pin_16*%
%TO.N,/B8*%
X140894000Y-111156000D03*
%TO.P,test_pin1,17,Pin_17*%
%TO.N,/B9*%
X140894000Y-113696000D03*
%TO.P,test_pin1,18,Pin_18*%
%TO.N,/+5V*%
X140894000Y-116236000D03*
%TO.P,test_pin1,19,Pin_19*%
%TO.N,/GND*%
X140894000Y-118776000D03*
%TO.P,test_pin1,20,Pin_20*%
%TO.N,/+3V3*%
X140894000Y-121316000D03*
%TD*%
D13*
%TO.P,H2,1,1*%
%TO.N,/GND*%
X174562000Y-129444000D03*
X175264944Y-127746944D03*
X175264944Y-131141056D03*
X176962000Y-127044000D03*
D14*
X176962000Y-129444000D03*
D13*
X176962000Y-131844000D03*
X178659056Y-127746944D03*
X178659056Y-131141056D03*
X179362000Y-129444000D03*
%TD*%
D15*
%TO.P,R2,1*%
%TO.N,Net-(D2-K)*%
X155956000Y-132080000D03*
%TO.P,R2,2*%
%TO.N,/GND*%
X171196000Y-132080000D03*
%TD*%
D11*
%TO.P,INT1,1,Pin_1*%
%TO.N,/B4*%
X133528000Y-97186000D03*
D12*
%TO.P,INT1,2,Pin_2*%
%TO.N,/GND*%
X130988000Y-97186000D03*
%TD*%
D13*
%TO.P,H1,1,1*%
%TO.N,/GND*%
X96774000Y-77216000D03*
X97476944Y-75518944D03*
X97476944Y-78913056D03*
X99174000Y-74816000D03*
D14*
X99174000Y-77216000D03*
D13*
X99174000Y-79616000D03*
X100871056Y-75518944D03*
X100871056Y-78913056D03*
X101574000Y-77216000D03*
%TD*%
D15*
%TO.P,R1,1*%
%TO.N,Net-(D1-K)*%
X124892000Y-90836000D03*
%TO.P,R1,2*%
%TO.N,/GND*%
X124892000Y-75596000D03*
%TD*%
D11*
%TO.P,test_pin2,1,Pin_1*%
%TO.N,/+5V*%
X179502000Y-73056000D03*
D12*
%TO.P,test_pin2,2,Pin_2*%
%TO.N,/GND*%
X179502000Y-75596000D03*
%TO.P,test_pin2,3,Pin_3*%
%TO.N,/+3V3*%
X179502000Y-78136000D03*
%TO.P,test_pin2,4,Pin_4*%
%TO.N,/RST*%
X179502000Y-80676000D03*
%TO.P,test_pin2,5,Pin_5*%
%TO.N,/B11*%
X179502000Y-83216000D03*
%TO.P,test_pin2,6,Pin_6*%
%TO.N,/B10*%
X179502000Y-85756000D03*
%TO.P,test_pin2,7,Pin_7*%
%TO.N,/B1*%
X179502000Y-88296000D03*
%TO.P,test_pin2,8,Pin_8*%
%TO.N,/B0*%
X179502000Y-90836000D03*
%TO.P,test_pin2,9,Pin_9*%
%TO.N,/A7*%
X179502000Y-93376000D03*
%TO.P,test_pin2,10,Pin_10*%
%TO.N,/A6*%
X179502000Y-95916000D03*
%TO.P,test_pin2,11,Pin_11*%
%TO.N,/A5*%
X179502000Y-98456000D03*
%TO.P,test_pin2,12,Pin_12*%
%TO.N,/A4*%
X179502000Y-100996000D03*
%TO.P,test_pin2,13,Pin_13*%
%TO.N,/A3*%
X179502000Y-103536000D03*
%TO.P,test_pin2,14,Pin_14*%
%TO.N,/A2*%
X179502000Y-106076000D03*
%TO.P,test_pin2,15,Pin_15*%
%TO.N,/A1*%
X179502000Y-108616000D03*
%TO.P,test_pin2,16,Pin_16*%
%TO.N,/A0*%
X179502000Y-111156000D03*
%TO.P,test_pin2,17,Pin_17*%
%TO.N,/C15*%
X179502000Y-113696000D03*
%TO.P,test_pin2,18,Pin_18*%
%TO.N,/C14*%
X179502000Y-116236000D03*
%TO.P,test_pin2,19,Pin_19*%
%TO.N,/C13*%
X179502000Y-118776000D03*
%TO.P,test_pin2,20,Pin_20*%
%TO.N,/VB*%
X179502000Y-121316000D03*
%TD*%
D16*
%TO.P,SW1,1,1*%
%TO.N,/A11*%
X133708000Y-127000000D03*
X140208000Y-127000000D03*
%TO.P,SW1,2,2*%
%TO.N,/GND*%
X133708000Y-131500000D03*
X140208000Y-131500000D03*
%TD*%
D11*
%TO.P,blue_pill_pin2,1,Pin_1*%
%TO.N,/+5V*%
X167818000Y-73056000D03*
D12*
%TO.P,blue_pill_pin2,2,Pin_2*%
%TO.N,/GND*%
X167818000Y-75596000D03*
%TO.P,blue_pill_pin2,3,Pin_3*%
%TO.N,/+3V3*%
X167818000Y-78136000D03*
%TO.P,blue_pill_pin2,4,Pin_4*%
%TO.N,/RST*%
X167818000Y-80676000D03*
%TO.P,blue_pill_pin2,5,Pin_5*%
%TO.N,/B11*%
X167818000Y-83216000D03*
%TO.P,blue_pill_pin2,6,Pin_6*%
%TO.N,/B10*%
X167818000Y-85756000D03*
%TO.P,blue_pill_pin2,7,Pin_7*%
%TO.N,/B1*%
X167818000Y-88296000D03*
%TO.P,blue_pill_pin2,8,Pin_8*%
%TO.N,/B0*%
X167818000Y-90836000D03*
%TO.P,blue_pill_pin2,9,Pin_9*%
%TO.N,/A7*%
X167818000Y-93376000D03*
%TO.P,blue_pill_pin2,10,Pin_10*%
%TO.N,/A6*%
X167818000Y-95916000D03*
%TO.P,blue_pill_pin2,11,Pin_11*%
%TO.N,/A5*%
X167818000Y-98456000D03*
%TO.P,blue_pill_pin2,12,Pin_12*%
%TO.N,/A4*%
X167818000Y-100996000D03*
%TO.P,blue_pill_pin2,13,Pin_13*%
%TO.N,/A3*%
X167818000Y-103536000D03*
%TO.P,blue_pill_pin2,14,Pin_14*%
%TO.N,/A2*%
X167818000Y-106076000D03*
%TO.P,blue_pill_pin2,15,Pin_15*%
%TO.N,/A1*%
X167818000Y-108616000D03*
%TO.P,blue_pill_pin2,16,Pin_16*%
%TO.N,/A0*%
X167818000Y-111156000D03*
%TO.P,blue_pill_pin2,17,Pin_17*%
%TO.N,/C15*%
X167818000Y-113696000D03*
%TO.P,blue_pill_pin2,18,Pin_18*%
%TO.N,/C14*%
X167818000Y-116236000D03*
%TO.P,blue_pill_pin2,19,Pin_19*%
%TO.N,/C13*%
X167818000Y-118776000D03*
%TO.P,blue_pill_pin2,20,Pin_20*%
%TO.N,/VB*%
X167818000Y-121316000D03*
%TD*%
D17*
%TO.P,D1,1,K*%
%TO.N,Net-(D1-K)*%
X130734000Y-90582000D03*
D18*
%TO.P,D1,2,A*%
%TO.N,/B3*%
X133274000Y-90582000D03*
%TD*%
D11*
%TO.P,blue_pill_pin1,1,Pin_1*%
%TO.N,/B12*%
X152552600Y-73056000D03*
D12*
%TO.P,blue_pill_pin1,2,Pin_2*%
%TO.N,/B13*%
X152552600Y-75596000D03*
%TO.P,blue_pill_pin1,3,Pin_3*%
%TO.N,/B14*%
X152552600Y-78136000D03*
%TO.P,blue_pill_pin1,4,Pin_4*%
%TO.N,/B15*%
X152552600Y-80676000D03*
%TO.P,blue_pill_pin1,5,Pin_5*%
%TO.N,/A8*%
X152552600Y-83216000D03*
%TO.P,blue_pill_pin1,6,Pin_6*%
%TO.N,/A9*%
X152552600Y-85756000D03*
%TO.P,blue_pill_pin1,7,Pin_7*%
%TO.N,/A10*%
X152552600Y-88296000D03*
%TO.P,blue_pill_pin1,8,Pin_8*%
%TO.N,/A11*%
X152552600Y-90836000D03*
%TO.P,blue_pill_pin1,9,Pin_9*%
%TO.N,/A12*%
X152552600Y-93376000D03*
%TO.P,blue_pill_pin1,10,Pin_10*%
%TO.N,/A15*%
X152552600Y-95916000D03*
%TO.P,blue_pill_pin1,11,Pin_11*%
%TO.N,/B3*%
X152552600Y-98456000D03*
%TO.P,blue_pill_pin1,12,Pin_12*%
%TO.N,/B4*%
X152552600Y-100996000D03*
%TO.P,blue_pill_pin1,13,Pin_13*%
%TO.N,/B5*%
X152552600Y-103536000D03*
%TO.P,blue_pill_pin1,14,Pin_14*%
%TO.N,/B6*%
X152552600Y-106076000D03*
%TO.P,blue_pill_pin1,15,Pin_15*%
%TO.N,/B7*%
X152552600Y-108616000D03*
%TO.P,blue_pill_pin1,16,Pin_16*%
%TO.N,/B8*%
X152552600Y-111156000D03*
%TO.P,blue_pill_pin1,17,Pin_17*%
%TO.N,/B9*%
X152552600Y-113696000D03*
%TO.P,blue_pill_pin1,18,Pin_18*%
%TO.N,/+5V*%
X152552600Y-116236000D03*
%TO.P,blue_pill_pin1,19,Pin_19*%
%TO.N,/GND*%
X152552600Y-118776000D03*
%TO.P,blue_pill_pin1,20,Pin_20*%
%TO.N,/+3V3*%
X152552600Y-121316000D03*
%TD*%
D11*
%TO.P,BME280,1,Pin_1*%
%TO.N,/+3V3*%
X134290000Y-115474000D03*
D12*
%TO.P,BME280,2,Pin_2*%
%TO.N,/GND*%
X134290000Y-112934000D03*
%TO.P,BME280,3,Pin_3*%
%TO.N,/B8*%
X134290000Y-110394000D03*
%TO.P,BME280,4,Pin_4*%
%TO.N,/B9*%
X134290000Y-107854000D03*
%TO.P,BME280,5,Pin_5*%
%TO.N,unconnected-(BME280-Pin_5-Pad5)*%
X134290000Y-105314000D03*
%TO.P,BME280,6,Pin_6*%
%TO.N,/GND*%
X134290000Y-102774000D03*
%TD*%
D17*
%TO.P,D2,1,K*%
%TO.N,Net-(D2-K)*%
X150114000Y-132080000D03*
D18*
%TO.P,D2,2,A*%
%TO.N,/A8*%
X150114000Y-129540000D03*
%TD*%
D11*
%TO.P,ESP01,1,Pin_1*%
%TO.N,/A10*%
X103028000Y-122332000D03*
D12*
%TO.P,ESP01,2,Pin_2*%
%TO.N,/GND*%
X105568000Y-122332000D03*
%TO.P,ESP01,3,Pin_3*%
%TO.N,/+3V3*%
X103028000Y-124872000D03*
%TO.P,ESP01,4,Pin_4*%
%TO.N,unconnected-(ESP01-Pin_4-Pad4)*%
X105568000Y-124872000D03*
%TO.P,ESP01,5,Pin_5*%
%TO.N,unconnected-(ESP01-Pin_5-Pad5)*%
X103028000Y-127412000D03*
%TO.P,ESP01,6,Pin_6*%
%TO.N,unconnected-(ESP01-Pin_6-Pad6)*%
X105568000Y-127412000D03*
%TO.P,ESP01,7,Pin_7*%
%TO.N,/+3V3*%
X103028000Y-129952000D03*
%TO.P,ESP01,8,Pin_8*%
%TO.N,/A9*%
X105568000Y-129952000D03*
%TD*%
D19*
%TO.N,/B15*%
X113462000Y-85756000D03*
%TO.N,/B14*%
X133782000Y-78136000D03*
%TO.N,/B5*%
X110922000Y-105314000D03*
X138354000Y-103536000D03*
%TD*%
D20*
%TO.N,/A11*%
X143002000Y-91440000D02*
X142494000Y-90932000D01*
X143002000Y-126238000D02*
X143002000Y-91440000D01*
X142240000Y-127000000D02*
X143002000Y-126238000D01*
X140990000Y-90932000D02*
X140894000Y-90836000D01*
X140208000Y-127000000D02*
X142240000Y-127000000D01*
X133708000Y-127000000D02*
X140208000Y-127000000D01*
X142494000Y-90932000D02*
X140990000Y-90932000D01*
%TO.N,/B15*%
X112446000Y-99980000D02*
X112446000Y-86772000D01*
X112446000Y-86772000D02*
X113462000Y-85756000D01*
%TO.N,/A9*%
X105568000Y-129952000D02*
X143688000Y-129952000D01*
X145288000Y-128352000D02*
X145288000Y-86614000D01*
X143688000Y-129952000D02*
X145288000Y-128352000D01*
X144430000Y-85756000D02*
X140894000Y-85756000D01*
X145288000Y-86614000D02*
X144430000Y-85756000D01*
%TO.N,/B14*%
X119050000Y-78644000D02*
X119558000Y-78136000D01*
X119050000Y-81438000D02*
X119050000Y-78644000D01*
X115494000Y-103028000D02*
X117526000Y-103028000D01*
X119050000Y-101504000D02*
X119050000Y-81438000D01*
X117526000Y-103028000D02*
X119050000Y-101504000D01*
X114986000Y-102520000D02*
X115494000Y-103028000D01*
X119558000Y-78136000D02*
X133782000Y-78136000D01*
%TO.N,/B9*%
X137064000Y-107854000D02*
X137795000Y-108585000D01*
X137795000Y-108585000D02*
X137795000Y-113030000D01*
X138461000Y-113696000D02*
X140894000Y-113696000D01*
X134290000Y-107854000D02*
X137064000Y-107854000D01*
X137795000Y-113030000D02*
X138461000Y-113696000D01*
%TO.N,/A8*%
X152456600Y-83312000D02*
X152552600Y-83216000D01*
X150114000Y-83820000D02*
X150622000Y-83312000D01*
X150114000Y-129540000D02*
X150114000Y-83820000D01*
X150622000Y-83312000D02*
X152456600Y-83312000D01*
%TO.N,/B5*%
X138354000Y-101504000D02*
X138354000Y-103028000D01*
X121336000Y-102012000D02*
X122606000Y-100742000D01*
X110922000Y-105314000D02*
X119558000Y-105314000D01*
X122606000Y-100742000D02*
X137592000Y-100742000D01*
X121336000Y-103536000D02*
X121336000Y-102012000D01*
X137592000Y-100742000D02*
X138354000Y-101504000D01*
X138354000Y-103028000D02*
X138354000Y-103536000D01*
X119558000Y-105314000D02*
X121336000Y-103536000D01*
%TO.N,/A10*%
X127254000Y-128016000D02*
X128016000Y-128778000D01*
X102870000Y-122174000D02*
X102870000Y-120396000D01*
X128016000Y-128778000D02*
X143256000Y-128778000D01*
X144272000Y-127762000D02*
X144272000Y-89662000D01*
X103632000Y-119634000D02*
X127254000Y-119634000D01*
X140990000Y-88392000D02*
X140894000Y-88296000D01*
X144272000Y-89662000D02*
X143002000Y-88392000D01*
X143002000Y-88392000D02*
X140990000Y-88392000D01*
X102870000Y-120396000D02*
X103632000Y-119634000D01*
X127254000Y-119634000D02*
X127254000Y-128016000D01*
X143256000Y-128778000D02*
X144272000Y-127762000D01*
X103028000Y-122332000D02*
X102870000Y-122174000D01*
%TO.N,/B13*%
X113462000Y-104552000D02*
X118796000Y-104552000D01*
X112446000Y-102520000D02*
X112446000Y-103536000D01*
X120320000Y-83216000D02*
X121844000Y-81692000D01*
X136830000Y-75596000D02*
X140894000Y-75596000D01*
X135052000Y-81692000D02*
X135814000Y-80930000D01*
X112446000Y-103536000D02*
X113462000Y-104552000D01*
X135814000Y-80930000D02*
X135814000Y-76612000D01*
X120320000Y-103028000D02*
X120320000Y-83216000D01*
X118796000Y-104552000D02*
X120320000Y-103028000D01*
X135814000Y-76612000D02*
X136830000Y-75596000D01*
X121844000Y-81692000D02*
X135052000Y-81692000D01*
%TO.N,Net-(D2-K)*%
X150114000Y-132080000D02*
X155956000Y-132080000D01*
%TD*%
%TA.AperFunction,Conductor*%
%TO.N,/GND*%
G36*
X139818730Y-71544185D02*
G01*
X139864485Y-71596989D01*
X139874429Y-71666147D01*
X139845404Y-71729703D01*
X139808151Y-71755567D01*
X139809454Y-71757953D01*
X139801664Y-71762206D01*
X139686455Y-71848452D01*
X139686452Y-71848455D01*
X139600206Y-71963664D01*
X139600202Y-71963671D01*
X139549908Y-72098517D01*
X139543501Y-72158116D01*
X139543501Y-72158123D01*
X139543500Y-72158135D01*
X139543500Y-73953870D01*
X139543501Y-73953876D01*
X139549908Y-74013483D01*
X139600202Y-74148328D01*
X139600206Y-74148335D01*
X139686452Y-74263544D01*
X139686455Y-74263547D01*
X139801664Y-74349793D01*
X139801671Y-74349797D01*
X139933082Y-74398810D01*
X139989016Y-74440681D01*
X140013433Y-74506145D01*
X139998582Y-74574418D01*
X139977431Y-74602673D01*
X139863889Y-74716215D01*
X139738948Y-74888184D01*
X139738947Y-74888185D01*
X139718765Y-74927795D01*
X139670791Y-74978591D01*
X139608281Y-74995500D01*
X136916669Y-74995500D01*
X136916653Y-74995499D01*
X136909057Y-74995499D01*
X136750943Y-74995499D01*
X136643587Y-75024265D01*
X136598210Y-75036424D01*
X136598209Y-75036425D01*
X136548096Y-75065359D01*
X136548095Y-75065360D01*
X136504689Y-75090420D01*
X136461285Y-75115479D01*
X136461282Y-75115481D01*
X135333481Y-76243282D01*
X135333480Y-76243284D01*
X135298532Y-76303816D01*
X135254423Y-76380215D01*
X135213499Y-76532943D01*
X135213499Y-76532945D01*
X135213499Y-76701046D01*
X135213500Y-76701059D01*
X135213500Y-80629902D01*
X135193815Y-80696941D01*
X135177181Y-80717583D01*
X134839584Y-81055181D01*
X134778261Y-81088666D01*
X134751903Y-81091500D01*
X121764940Y-81091500D01*
X121724019Y-81102464D01*
X121724019Y-81102465D01*
X121686751Y-81112451D01*
X121612214Y-81132423D01*
X121612209Y-81132426D01*
X121475290Y-81211475D01*
X121475282Y-81211481D01*
X119862181Y-82824583D01*
X119800858Y-82858068D01*
X119731166Y-82853084D01*
X119675233Y-82811212D01*
X119650816Y-82745748D01*
X119650500Y-82736902D01*
X119650500Y-78944097D01*
X119659144Y-78914656D01*
X119665668Y-78884670D01*
X119669422Y-78879654D01*
X119670185Y-78877058D01*
X119686819Y-78856416D01*
X119770416Y-78772819D01*
X119831739Y-78739334D01*
X119858097Y-78736500D01*
X133202234Y-78736500D01*
X133269273Y-78756185D01*
X133271125Y-78757398D01*
X133402814Y-78845390D01*
X133402827Y-78845397D01*
X133497642Y-78884670D01*
X133548503Y-78905737D01*
X133703153Y-78936499D01*
X133703156Y-78936500D01*
X133703158Y-78936500D01*
X133860844Y-78936500D01*
X133860845Y-78936499D01*
X134015497Y-78905737D01*
X134161179Y-78845394D01*
X134292289Y-78757789D01*
X134403789Y-78646289D01*
X134491394Y-78515179D01*
X134551737Y-78369497D01*
X134582500Y-78214842D01*
X134582500Y-78057158D01*
X134582500Y-78057155D01*
X134582499Y-78057153D01*
X134551738Y-77902510D01*
X134551737Y-77902503D01*
X134495728Y-77767284D01*
X134491397Y-77756827D01*
X134491390Y-77756814D01*
X134403789Y-77625711D01*
X134403786Y-77625707D01*
X134292292Y-77514213D01*
X134292288Y-77514210D01*
X134161185Y-77426609D01*
X134161172Y-77426602D01*
X134015501Y-77366264D01*
X134015489Y-77366261D01*
X133860845Y-77335500D01*
X133860842Y-77335500D01*
X133703158Y-77335500D01*
X133703155Y-77335500D01*
X133548510Y-77366261D01*
X133548498Y-77366264D01*
X133402827Y-77426602D01*
X133402814Y-77426609D01*
X133271125Y-77514602D01*
X133204447Y-77535480D01*
X133202234Y-77535500D01*
X125076115Y-77535500D01*
X125009076Y-77515815D01*
X124963321Y-77463011D01*
X124953377Y-77393853D01*
X124982402Y-77330297D01*
X125041180Y-77292523D01*
X125059930Y-77288561D01*
X125224354Y-77266914D01*
X125224367Y-77266911D01*
X125439618Y-77209236D01*
X125645502Y-77123954D01*
X125645514Y-77123949D01*
X125838498Y-77012530D01*
X125904403Y-76961957D01*
X125904404Y-76961956D01*
X125103059Y-76160612D01*
X125123591Y-76155111D01*
X125260408Y-76076119D01*
X125372119Y-75964408D01*
X125451111Y-75827591D01*
X125456612Y-75807059D01*
X126257956Y-76608404D01*
X126257957Y-76608403D01*
X126308530Y-76542498D01*
X126419949Y-76349514D01*
X126419954Y-76349502D01*
X126505236Y-76143618D01*
X126562911Y-75928367D01*
X126562914Y-75928354D01*
X126592000Y-75707424D01*
X126592000Y-75484575D01*
X126562914Y-75263645D01*
X126562911Y-75263632D01*
X126505236Y-75048381D01*
X126419954Y-74842497D01*
X126419949Y-74842485D01*
X126308533Y-74649507D01*
X126257956Y-74583595D01*
X126257955Y-74583595D01*
X125456612Y-75384939D01*
X125451111Y-75364409D01*
X125372119Y-75227592D01*
X125260408Y-75115881D01*
X125123591Y-75036889D01*
X125103058Y-75031387D01*
X125904403Y-74230043D01*
X125904403Y-74230040D01*
X125838504Y-74179473D01*
X125838491Y-74179464D01*
X125645520Y-74068054D01*
X125645502Y-74068045D01*
X125439618Y-73982763D01*
X125224367Y-73925088D01*
X125224354Y-73925085D01*
X125003425Y-73896000D01*
X124780575Y-73896000D01*
X124559645Y-73925085D01*
X124559632Y-73925088D01*
X124344381Y-73982763D01*
X124138497Y-74068045D01*
X124138479Y-74068054D01*
X123945511Y-74179462D01*
X123879595Y-74230042D01*
X124680941Y-75031387D01*
X124660409Y-75036889D01*
X124523592Y-75115881D01*
X124411881Y-75227592D01*
X124332889Y-75364409D01*
X124327387Y-75384940D01*
X123526042Y-74583595D01*
X123475462Y-74649511D01*
X123364054Y-74842479D01*
X123364045Y-74842497D01*
X123278763Y-75048381D01*
X123221088Y-75263632D01*
X123221085Y-75263645D01*
X123192000Y-75484575D01*
X123192000Y-75707424D01*
X123221085Y-75928354D01*
X123221088Y-75928367D01*
X123278763Y-76143618D01*
X123364045Y-76349502D01*
X123364054Y-76349520D01*
X123475464Y-76542491D01*
X123475473Y-76542504D01*
X123526040Y-76608403D01*
X123526043Y-76608403D01*
X124327387Y-75807059D01*
X124332889Y-75827591D01*
X124411881Y-75964408D01*
X124523592Y-76076119D01*
X124660409Y-76155111D01*
X124680940Y-76160612D01*
X123879595Y-76961955D01*
X123879595Y-76961956D01*
X123945507Y-77012533D01*
X124138485Y-77123949D01*
X124138497Y-77123954D01*
X124344381Y-77209236D01*
X124559632Y-77266911D01*
X124559645Y-77266914D01*
X124724070Y-77288561D01*
X124787967Y-77316827D01*
X124826438Y-77375152D01*
X124827269Y-77445016D01*
X124790197Y-77504240D01*
X124726991Y-77534019D01*
X124707885Y-77535500D01*
X119478940Y-77535500D01*
X119438019Y-77546464D01*
X119438019Y-77546465D01*
X119400751Y-77556451D01*
X119326214Y-77576423D01*
X119326209Y-77576426D01*
X119189290Y-77655475D01*
X119189282Y-77655481D01*
X118569481Y-78275282D01*
X118569479Y-78275285D01*
X118519361Y-78362094D01*
X118519359Y-78362096D01*
X118490425Y-78412209D01*
X118490424Y-78412210D01*
X118490423Y-78412215D01*
X118449499Y-78564943D01*
X118449499Y-78564945D01*
X118449499Y-78733046D01*
X118449500Y-78733059D01*
X118449500Y-101203903D01*
X118429815Y-101270942D01*
X118413181Y-101291584D01*
X117313584Y-102391181D01*
X117252261Y-102424666D01*
X117225903Y-102427500D01*
X116444589Y-102427500D01*
X116377550Y-102407815D01*
X116331795Y-102355011D01*
X116322116Y-102322898D01*
X116314371Y-102274000D01*
X116303246Y-102203757D01*
X116237557Y-102001588D01*
X116141051Y-101812184D01*
X116141049Y-101812181D01*
X116141048Y-101812179D01*
X116016109Y-101640213D01*
X115865786Y-101489890D01*
X115693820Y-101364951D01*
X115685604Y-101360765D01*
X115685054Y-101360485D01*
X115634259Y-101312512D01*
X115617463Y-101244692D01*
X115639999Y-101178556D01*
X115685054Y-101139515D01*
X115693816Y-101135051D01*
X115738912Y-101102287D01*
X115865786Y-101010109D01*
X115865788Y-101010106D01*
X115865792Y-101010104D01*
X116016104Y-100859792D01*
X116016106Y-100859788D01*
X116016109Y-100859786D01*
X116141048Y-100687820D01*
X116141047Y-100687820D01*
X116141051Y-100687816D01*
X116237557Y-100498412D01*
X116303246Y-100296243D01*
X116336500Y-100086287D01*
X116336500Y-99873713D01*
X116303246Y-99663757D01*
X116237557Y-99461588D01*
X116141051Y-99272184D01*
X116141049Y-99272181D01*
X116141048Y-99272179D01*
X116016109Y-99100213D01*
X115865786Y-98949890D01*
X115693820Y-98824951D01*
X115504414Y-98728444D01*
X115504413Y-98728443D01*
X115504412Y-98728443D01*
X115302243Y-98662754D01*
X115302241Y-98662753D01*
X115302240Y-98662753D01*
X115140957Y-98637208D01*
X115092287Y-98629500D01*
X114879713Y-98629500D01*
X114831042Y-98637208D01*
X114669760Y-98662753D01*
X114467585Y-98728444D01*
X114278179Y-98824951D01*
X114106213Y-98949890D01*
X113955890Y-99100213D01*
X113830949Y-99272182D01*
X113826484Y-99280946D01*
X113778509Y-99331742D01*
X113710688Y-99348536D01*
X113644553Y-99325998D01*
X113605516Y-99280946D01*
X113601050Y-99272182D01*
X113476109Y-99100213D01*
X113325786Y-98949890D01*
X113153815Y-98824948D01*
X113153814Y-98824947D01*
X113114205Y-98804765D01*
X113063409Y-98756791D01*
X113046500Y-98694281D01*
X113046500Y-87072097D01*
X113066185Y-87005058D01*
X113082819Y-86984416D01*
X113240819Y-86826416D01*
X113476662Y-86590572D01*
X113537983Y-86557089D01*
X113540150Y-86556638D01*
X113598085Y-86545113D01*
X113695497Y-86525737D01*
X113841179Y-86465394D01*
X113972289Y-86377789D01*
X114083789Y-86266289D01*
X114171394Y-86135179D01*
X114231737Y-85989497D01*
X114262500Y-85834842D01*
X114262500Y-85677158D01*
X114262500Y-85677155D01*
X114262499Y-85677153D01*
X114231738Y-85522510D01*
X114231738Y-85522508D01*
X114231737Y-85522503D01*
X114175728Y-85387284D01*
X114171397Y-85376827D01*
X114171390Y-85376814D01*
X114083789Y-85245711D01*
X114083786Y-85245707D01*
X113972292Y-85134213D01*
X113972288Y-85134210D01*
X113841185Y-85046609D01*
X113841172Y-85046602D01*
X113695501Y-84986264D01*
X113695489Y-84986261D01*
X113540845Y-84955500D01*
X113540842Y-84955500D01*
X113383158Y-84955500D01*
X113383155Y-84955500D01*
X113228510Y-84986261D01*
X113228498Y-84986264D01*
X113082827Y-85046602D01*
X113082814Y-85046609D01*
X112951711Y-85134210D01*
X112951707Y-85134213D01*
X112840213Y-85245707D01*
X112840210Y-85245711D01*
X112752609Y-85376814D01*
X112752602Y-85376827D01*
X112692264Y-85522498D01*
X112692261Y-85522508D01*
X112661361Y-85677850D01*
X112628976Y-85739761D01*
X112627425Y-85741339D01*
X111965481Y-86403282D01*
X111965480Y-86403284D01*
X111930532Y-86463816D01*
X111895745Y-86524068D01*
X111889469Y-86534940D01*
X111886423Y-86540215D01*
X111845499Y-86692943D01*
X111845499Y-86692945D01*
X111845499Y-86861046D01*
X111845500Y-86861059D01*
X111845500Y-98694281D01*
X111825815Y-98761320D01*
X111777795Y-98804765D01*
X111738185Y-98824947D01*
X111738184Y-98824948D01*
X111566213Y-98949890D01*
X111415890Y-99100213D01*
X111290949Y-99272182D01*
X111286484Y-99280946D01*
X111238509Y-99331742D01*
X111170688Y-99348536D01*
X111104553Y-99325998D01*
X111065516Y-99280946D01*
X111061050Y-99272182D01*
X110936109Y-99100213D01*
X110785786Y-98949890D01*
X110613820Y-98824951D01*
X110424414Y-98728444D01*
X110424413Y-98728443D01*
X110424412Y-98728443D01*
X110222243Y-98662754D01*
X110222241Y-98662753D01*
X110222240Y-98662753D01*
X110060957Y-98637208D01*
X110012287Y-98629500D01*
X109799713Y-98629500D01*
X109751042Y-98637208D01*
X109589760Y-98662753D01*
X109387585Y-98728444D01*
X109198179Y-98824951D01*
X109026213Y-98949890D01*
X108875890Y-99100213D01*
X108750949Y-99272182D01*
X108746484Y-99280946D01*
X108698509Y-99331742D01*
X108630688Y-99348536D01*
X108564553Y-99325998D01*
X108525516Y-99280946D01*
X108521050Y-99272182D01*
X108396109Y-99100213D01*
X108245786Y-98949890D01*
X108073820Y-98824951D01*
X107884414Y-98728444D01*
X107884413Y-98728443D01*
X107884412Y-98728443D01*
X107682243Y-98662754D01*
X107682241Y-98662753D01*
X107682240Y-98662753D01*
X107520957Y-98637208D01*
X107472287Y-98629500D01*
X107259713Y-98629500D01*
X107211042Y-98637208D01*
X107049760Y-98662753D01*
X106847585Y-98728444D01*
X106658179Y-98824951D01*
X106486213Y-98949890D01*
X106335890Y-99100213D01*
X106210951Y-99272179D01*
X106114444Y-99461585D01*
X106048753Y-99663760D01*
X106021396Y-99836486D01*
X106015500Y-99873713D01*
X106015500Y-100086287D01*
X106020239Y-100116208D01*
X106047477Y-100288184D01*
X106048754Y-100296243D01*
X106073786Y-100373284D01*
X106114444Y-100498414D01*
X106210951Y-100687820D01*
X106335890Y-100859786D01*
X106449818Y-100973714D01*
X106483303Y-101035037D01*
X106478319Y-101104729D01*
X106436447Y-101160662D01*
X106405471Y-101177577D01*
X106273912Y-101226646D01*
X106273906Y-101226649D01*
X106158812Y-101312809D01*
X106158809Y-101312812D01*
X106072649Y-101427906D01*
X106072645Y-101427913D01*
X106022403Y-101562620D01*
X106022401Y-101562627D01*
X106016000Y-101622155D01*
X106016000Y-102270000D01*
X106932988Y-102270000D01*
X106900075Y-102327007D01*
X106866000Y-102454174D01*
X106866000Y-102585826D01*
X106900075Y-102712993D01*
X106932988Y-102770000D01*
X106016000Y-102770000D01*
X106016000Y-103417844D01*
X106022401Y-103477372D01*
X106022403Y-103477379D01*
X106072645Y-103612086D01*
X106072649Y-103612093D01*
X106158809Y-103727187D01*
X106158812Y-103727190D01*
X106273906Y-103813350D01*
X106273913Y-103813354D01*
X106408620Y-103863596D01*
X106408627Y-103863598D01*
X106468155Y-103869999D01*
X106468172Y-103870000D01*
X107116000Y-103870000D01*
X107116000Y-102953012D01*
X107173007Y-102985925D01*
X107300174Y-103020000D01*
X107431826Y-103020000D01*
X107558993Y-102985925D01*
X107616000Y-102953012D01*
X107616000Y-103870000D01*
X108263828Y-103870000D01*
X108263844Y-103869999D01*
X108323372Y-103863598D01*
X108323379Y-103863596D01*
X108458086Y-103813354D01*
X108458093Y-103813350D01*
X108573187Y-103727190D01*
X108573190Y-103727187D01*
X108659350Y-103612093D01*
X108659354Y-103612086D01*
X108708422Y-103480529D01*
X108750293Y-103424595D01*
X108815757Y-103400178D01*
X108884030Y-103415030D01*
X108912285Y-103436181D01*
X109026213Y-103550109D01*
X109198179Y-103675048D01*
X109198181Y-103675049D01*
X109198184Y-103675051D01*
X109387588Y-103771557D01*
X109589757Y-103837246D01*
X109799713Y-103870500D01*
X109799714Y-103870500D01*
X110012286Y-103870500D01*
X110012287Y-103870500D01*
X110222243Y-103837246D01*
X110424412Y-103771557D01*
X110613816Y-103675051D01*
X110635789Y-103659086D01*
X110785786Y-103550109D01*
X110785788Y-103550106D01*
X110785792Y-103550104D01*
X110936104Y-103399792D01*
X110936106Y-103399788D01*
X110936109Y-103399786D01*
X111061048Y-103227820D01*
X111061047Y-103227820D01*
X111061051Y-103227816D01*
X111065514Y-103219054D01*
X111113488Y-103168259D01*
X111181308Y-103151463D01*
X111247444Y-103173999D01*
X111286484Y-103219054D01*
X111289984Y-103225922D01*
X111290951Y-103227820D01*
X111415890Y-103399786D01*
X111566213Y-103550109D01*
X111738182Y-103675050D01*
X111738184Y-103675051D01*
X111826411Y-103720005D01*
X111839624Y-103726737D01*
X111890421Y-103774711D01*
X111890717Y-103775222D01*
X111965477Y-103904712D01*
X111965481Y-103904717D01*
X112084349Y-104023585D01*
X112084355Y-104023590D01*
X112562584Y-104501819D01*
X112596069Y-104563142D01*
X112591085Y-104632834D01*
X112549213Y-104688767D01*
X112483749Y-104713184D01*
X112474903Y-104713500D01*
X111501766Y-104713500D01*
X111434727Y-104693815D01*
X111432875Y-104692602D01*
X111301185Y-104604609D01*
X111301172Y-104604602D01*
X111155501Y-104544264D01*
X111155489Y-104544261D01*
X111000845Y-104513500D01*
X111000842Y-104513500D01*
X110843158Y-104513500D01*
X110843155Y-104513500D01*
X110688510Y-104544261D01*
X110688498Y-104544264D01*
X110542827Y-104604602D01*
X110542814Y-104604609D01*
X110411711Y-104692210D01*
X110411707Y-104692213D01*
X110300213Y-104803707D01*
X110300210Y-104803711D01*
X110212609Y-104934814D01*
X110212602Y-104934827D01*
X110152264Y-105080498D01*
X110152261Y-105080510D01*
X110121500Y-105235153D01*
X110121500Y-105392846D01*
X110152261Y-105547489D01*
X110152264Y-105547501D01*
X110212602Y-105693172D01*
X110212609Y-105693185D01*
X110300210Y-105824288D01*
X110300213Y-105824292D01*
X110411707Y-105935786D01*
X110411711Y-105935789D01*
X110542814Y-106023390D01*
X110542827Y-106023397D01*
X110688498Y-106083735D01*
X110688503Y-106083737D01*
X110843153Y-106114499D01*
X110843156Y-106114500D01*
X110843158Y-106114500D01*
X111000844Y-106114500D01*
X111000845Y-106114499D01*
X111155497Y-106083737D01*
X111301179Y-106023394D01*
X111303541Y-106021816D01*
X111432875Y-105935398D01*
X111499553Y-105914520D01*
X111501766Y-105914500D01*
X119471331Y-105914500D01*
X119471347Y-105914501D01*
X119478943Y-105914501D01*
X119637054Y-105914501D01*
X119637057Y-105914501D01*
X119789785Y-105873577D01*
X119839904Y-105844639D01*
X119926716Y-105794520D01*
X120038520Y-105682716D01*
X120038520Y-105682714D01*
X120048728Y-105672507D01*
X120048729Y-105672504D01*
X121816520Y-103904716D01*
X121895577Y-103767784D01*
X121936501Y-103615057D01*
X121936501Y-103456942D01*
X121936501Y-103449347D01*
X121936500Y-103449329D01*
X121936500Y-102312097D01*
X121956185Y-102245058D01*
X121972819Y-102224416D01*
X122818416Y-101378819D01*
X122879739Y-101345334D01*
X122906097Y-101342500D01*
X133609350Y-101342500D01*
X133676389Y-101362185D01*
X133722144Y-101414989D01*
X133732088Y-101484147D01*
X133703063Y-101547703D01*
X133665645Y-101576984D01*
X133582448Y-101619375D01*
X133582440Y-101619380D01*
X133528282Y-101658727D01*
X133528282Y-101658728D01*
X134160591Y-102291037D01*
X134097007Y-102308075D01*
X133982993Y-102373901D01*
X133889901Y-102466993D01*
X133824075Y-102581007D01*
X133807037Y-102644591D01*
X133174728Y-102012282D01*
X133174727Y-102012282D01*
X133135380Y-102066439D01*
X133038904Y-102255782D01*
X132973242Y-102457869D01*
X132973242Y-102457872D01*
X132940000Y-102667753D01*
X132940000Y-102880246D01*
X132973242Y-103090127D01*
X132973242Y-103090130D01*
X133038904Y-103292217D01*
X133135375Y-103481550D01*
X133174728Y-103535716D01*
X133807037Y-102903408D01*
X133824075Y-102966993D01*
X133889901Y-103081007D01*
X133982993Y-103174099D01*
X134097007Y-103239925D01*
X134160590Y-103256962D01*
X133528282Y-103889269D01*
X133528282Y-103889270D01*
X133582452Y-103928626D01*
X133582451Y-103928626D01*
X133591495Y-103933234D01*
X133642292Y-103981208D01*
X133659087Y-104049029D01*
X133636550Y-104115164D01*
X133591499Y-104154202D01*
X133582182Y-104158949D01*
X133410213Y-104283890D01*
X133259890Y-104434213D01*
X133134951Y-104606179D01*
X133038444Y-104795585D01*
X132972753Y-104997760D01*
X132965130Y-105045890D01*
X132939500Y-105207713D01*
X132939500Y-105420287D01*
X132972754Y-105630243D01*
X133035803Y-105824288D01*
X133038444Y-105832414D01*
X133134951Y-106021820D01*
X133259890Y-106193786D01*
X133410213Y-106344109D01*
X133582182Y-106469050D01*
X133590946Y-106473516D01*
X133641742Y-106521491D01*
X133658536Y-106589312D01*
X133635998Y-106655447D01*
X133590946Y-106694484D01*
X133582182Y-106698949D01*
X133410213Y-106823890D01*
X133259890Y-106974213D01*
X133134951Y-107146179D01*
X133038444Y-107335585D01*
X132972753Y-107537760D01*
X132939500Y-107747713D01*
X132939500Y-107960286D01*
X132961650Y-108100139D01*
X132972754Y-108170243D01*
X133032205Y-108353215D01*
X133038444Y-108372414D01*
X133134951Y-108561820D01*
X133259890Y-108733786D01*
X133410213Y-108884109D01*
X133582182Y-109009050D01*
X133590946Y-109013516D01*
X133641742Y-109061491D01*
X133658536Y-109129312D01*
X133635998Y-109195447D01*
X133590946Y-109234484D01*
X133582182Y-109238949D01*
X133410213Y-109363890D01*
X133259890Y-109514213D01*
X133134951Y-109686179D01*
X133038444Y-109875585D01*
X132972753Y-110077760D01*
X132939500Y-110287713D01*
X132939500Y-110500286D01*
X132972753Y-110710239D01*
X133038444Y-110912414D01*
X133134951Y-111101820D01*
X133259890Y-111273786D01*
X133410213Y-111424109D01*
X133582179Y-111549048D01*
X133582181Y-111549049D01*
X133582184Y-111549051D01*
X133591493Y-111553794D01*
X133642290Y-111601766D01*
X133659087Y-111669587D01*
X133636552Y-111735722D01*
X133591505Y-111774760D01*
X133582446Y-111779376D01*
X133582440Y-111779380D01*
X133528282Y-111818727D01*
X133528282Y-111818728D01*
X134160591Y-112451037D01*
X134097007Y-112468075D01*
X133982993Y-112533901D01*
X133889901Y-112626993D01*
X133824075Y-112741007D01*
X133807037Y-112804591D01*
X133174728Y-112172282D01*
X133174727Y-112172282D01*
X133135380Y-112226439D01*
X133038904Y-112415782D01*
X132973242Y-112617869D01*
X132973242Y-112617872D01*
X132940000Y-112827753D01*
X132940000Y-113040246D01*
X132973242Y-113250127D01*
X132973242Y-113250130D01*
X133038904Y-113452217D01*
X133135375Y-113641550D01*
X133174728Y-113695716D01*
X133807037Y-113063408D01*
X133824075Y-113126993D01*
X133889901Y-113241007D01*
X133982993Y-113334099D01*
X134097007Y-113399925D01*
X134160590Y-113416962D01*
X133490370Y-114087181D01*
X133429047Y-114120666D01*
X133402698Y-114123500D01*
X133392134Y-114123500D01*
X133392123Y-114123501D01*
X133332516Y-114129908D01*
X133197671Y-114180202D01*
X133197664Y-114180206D01*
X133082455Y-114266452D01*
X133082452Y-114266455D01*
X132996206Y-114381664D01*
X132996202Y-114381671D01*
X132945908Y-114516517D01*
X132939536Y-114575792D01*
X132939501Y-114576123D01*
X132939500Y-114576135D01*
X132939500Y-116371870D01*
X132939501Y-116371876D01*
X132945908Y-116431483D01*
X132996202Y-116566328D01*
X132996206Y-116566335D01*
X133082452Y-116681544D01*
X133082455Y-116681547D01*
X133197664Y-116767793D01*
X133197671Y-116767797D01*
X133332517Y-116818091D01*
X133332516Y-116818091D01*
X133339444Y-116818835D01*
X133392127Y-116824500D01*
X135187872Y-116824499D01*
X135247483Y-116818091D01*
X135382331Y-116767796D01*
X135497546Y-116681546D01*
X135583796Y-116566331D01*
X135634091Y-116431483D01*
X135640500Y-116371873D01*
X135640499Y-114576128D01*
X135634091Y-114516517D01*
X135634089Y-114516512D01*
X135583797Y-114381671D01*
X135583793Y-114381664D01*
X135497547Y-114266455D01*
X135497544Y-114266452D01*
X135382335Y-114180206D01*
X135382328Y-114180202D01*
X135247482Y-114129908D01*
X135247483Y-114129908D01*
X135187883Y-114123501D01*
X135187881Y-114123500D01*
X135187873Y-114123500D01*
X135187865Y-114123500D01*
X135177309Y-114123500D01*
X135110270Y-114103815D01*
X135089628Y-114087181D01*
X134419408Y-113416962D01*
X134482993Y-113399925D01*
X134597007Y-113334099D01*
X134690099Y-113241007D01*
X134755925Y-113126993D01*
X134772962Y-113063408D01*
X135405270Y-113695717D01*
X135405270Y-113695716D01*
X135444622Y-113641554D01*
X135541095Y-113452217D01*
X135606757Y-113250130D01*
X135606757Y-113250127D01*
X135640000Y-113040246D01*
X135640000Y-112827753D01*
X135606757Y-112617872D01*
X135606757Y-112617869D01*
X135541095Y-112415782D01*
X135444624Y-112226449D01*
X135405270Y-112172282D01*
X135405269Y-112172282D01*
X134772962Y-112804590D01*
X134755925Y-112741007D01*
X134690099Y-112626993D01*
X134597007Y-112533901D01*
X134482993Y-112468075D01*
X134419409Y-112451037D01*
X135051716Y-111818728D01*
X134997547Y-111779373D01*
X134997547Y-111779372D01*
X134988500Y-111774763D01*
X134937706Y-111726788D01*
X134920912Y-111658966D01*
X134943451Y-111592832D01*
X134988508Y-111553793D01*
X134997816Y-111549051D01*
X135103534Y-111472243D01*
X135169786Y-111424109D01*
X135169788Y-111424106D01*
X135169792Y-111424104D01*
X135320104Y-111273792D01*
X135320106Y-111273788D01*
X135320109Y-111273786D01*
X135445048Y-111101820D01*
X135445047Y-111101820D01*
X135445051Y-111101816D01*
X135541557Y-110912412D01*
X135607246Y-110710243D01*
X135640500Y-110500287D01*
X135640500Y-110287713D01*
X135607246Y-110077757D01*
X135541557Y-109875588D01*
X135445051Y-109686184D01*
X135445049Y-109686181D01*
X135445048Y-109686179D01*
X135320109Y-109514213D01*
X135169786Y-109363890D01*
X134997820Y-109238951D01*
X134997115Y-109238591D01*
X134989054Y-109234485D01*
X134938259Y-109186512D01*
X134921463Y-109118692D01*
X134943999Y-109052556D01*
X134989054Y-109013515D01*
X134997816Y-109009051D01*
X135103534Y-108932243D01*
X135169786Y-108884109D01*
X135169788Y-108884106D01*
X135169792Y-108884104D01*
X135320104Y-108733792D01*
X135320106Y-108733788D01*
X135320109Y-108733786D01*
X135378661Y-108653193D01*
X135445051Y-108561816D01*
X135445349Y-108561230D01*
X135465235Y-108522205D01*
X135513209Y-108471409D01*
X135575719Y-108454500D01*
X136763903Y-108454500D01*
X136830942Y-108474185D01*
X136851584Y-108490819D01*
X137158181Y-108797416D01*
X137191666Y-108858739D01*
X137194500Y-108885097D01*
X137194500Y-112943330D01*
X137194499Y-112943348D01*
X137194499Y-113109054D01*
X137194498Y-113109054D01*
X137232299Y-113250127D01*
X137235423Y-113261785D01*
X137254709Y-113295189D01*
X137264358Y-113311900D01*
X137264359Y-113311904D01*
X137264360Y-113311904D01*
X137314479Y-113398714D01*
X137314481Y-113398717D01*
X137433349Y-113517585D01*
X137433355Y-113517590D01*
X137976139Y-114060374D01*
X137976149Y-114060385D01*
X137980479Y-114064715D01*
X137980480Y-114064716D01*
X138092284Y-114176520D01*
X138098669Y-114180206D01*
X138179095Y-114226639D01*
X138179097Y-114226641D01*
X138229213Y-114255576D01*
X138229215Y-114255577D01*
X138381942Y-114296500D01*
X138381943Y-114296500D01*
X139608281Y-114296500D01*
X139675320Y-114316185D01*
X139718765Y-114364205D01*
X139738947Y-114403814D01*
X139738948Y-114403815D01*
X139863890Y-114575786D01*
X140014213Y-114726109D01*
X140186182Y-114851050D01*
X140194946Y-114855516D01*
X140245742Y-114903491D01*
X140262536Y-114971312D01*
X140239998Y-115037447D01*
X140194946Y-115076484D01*
X140186182Y-115080949D01*
X140014213Y-115205890D01*
X139863890Y-115356213D01*
X139738951Y-115528179D01*
X139642444Y-115717585D01*
X139576753Y-115919760D01*
X139543500Y-116129713D01*
X139543500Y-116342287D01*
X139576754Y-116552243D01*
X139628430Y-116711286D01*
X139642444Y-116754414D01*
X139738951Y-116943820D01*
X139863890Y-117115786D01*
X140014213Y-117266109D01*
X140186179Y-117391048D01*
X140186181Y-117391049D01*
X140186184Y-117391051D01*
X140195493Y-117395794D01*
X140246290Y-117443766D01*
X140263087Y-117511587D01*
X140240552Y-117577722D01*
X140195505Y-117616760D01*
X140186446Y-117621376D01*
X140186440Y-117621380D01*
X140132282Y-117660727D01*
X140132282Y-117660728D01*
X140764591Y-118293037D01*
X140701007Y-118310075D01*
X140586993Y-118375901D01*
X140493901Y-118468993D01*
X140428075Y-118583007D01*
X140411037Y-118646591D01*
X139778728Y-118014282D01*
X139778727Y-118014282D01*
X139739380Y-118068439D01*
X139642904Y-118257782D01*
X139577242Y-118459869D01*
X139577242Y-118459872D01*
X139544000Y-118669753D01*
X139544000Y-118882246D01*
X139577242Y-119092127D01*
X139577242Y-119092130D01*
X139642904Y-119294217D01*
X139739375Y-119483550D01*
X139778728Y-119537716D01*
X140411037Y-118905408D01*
X140428075Y-118968993D01*
X140493901Y-119083007D01*
X140586993Y-119176099D01*
X140701007Y-119241925D01*
X140764590Y-119258962D01*
X140132282Y-119891269D01*
X140132282Y-119891270D01*
X140186452Y-119930626D01*
X140186451Y-119930626D01*
X140195495Y-119935234D01*
X140246292Y-119983208D01*
X140263087Y-120051029D01*
X140240550Y-120117164D01*
X140195499Y-120156202D01*
X140186182Y-120160949D01*
X140014213Y-120285890D01*
X139863890Y-120436213D01*
X139738951Y-120608179D01*
X139642444Y-120797585D01*
X139576753Y-120999760D01*
X139548622Y-121177375D01*
X139543500Y-121209713D01*
X139543500Y-121422287D01*
X139545377Y-121434135D01*
X139575519Y-121624449D01*
X139576754Y-121632243D01*
X139641659Y-121832000D01*
X139642444Y-121834414D01*
X139738951Y-122023820D01*
X139863890Y-122195786D01*
X140014213Y-122346109D01*
X140186179Y-122471048D01*
X140186181Y-122471049D01*
X140186184Y-122471051D01*
X140375588Y-122567557D01*
X140577757Y-122633246D01*
X140787713Y-122666500D01*
X140787714Y-122666500D01*
X141000286Y-122666500D01*
X141000287Y-122666500D01*
X141210243Y-122633246D01*
X141412412Y-122567557D01*
X141601816Y-122471051D01*
X141646969Y-122438246D01*
X141773786Y-122346109D01*
X141773788Y-122346106D01*
X141773792Y-122346104D01*
X141924104Y-122195792D01*
X141924106Y-122195788D01*
X141924109Y-122195786D01*
X142049048Y-122023820D01*
X142049047Y-122023820D01*
X142049051Y-122023816D01*
X142145557Y-121834412D01*
X142159570Y-121791284D01*
X142199006Y-121733611D01*
X142263365Y-121706412D01*
X142332211Y-121718326D01*
X142383687Y-121765570D01*
X142401500Y-121829604D01*
X142401500Y-125937902D01*
X142381815Y-126004941D01*
X142365181Y-126025583D01*
X142027584Y-126363181D01*
X141966261Y-126396666D01*
X141939903Y-126399500D01*
X141662068Y-126399500D01*
X141595029Y-126379815D01*
X141551583Y-126331795D01*
X141491342Y-126213566D01*
X141484764Y-126204512D01*
X141352517Y-126022490D01*
X141185510Y-125855483D01*
X140994433Y-125716657D01*
X140783996Y-125609433D01*
X140559368Y-125536446D01*
X140326097Y-125499500D01*
X140326092Y-125499500D01*
X140089908Y-125499500D01*
X140089903Y-125499500D01*
X139856631Y-125536446D01*
X139632003Y-125609433D01*
X139421566Y-125716657D01*
X139312550Y-125795862D01*
X139230490Y-125855483D01*
X139230488Y-125855485D01*
X139230487Y-125855485D01*
X139063485Y-126022487D01*
X139063485Y-126022488D01*
X139063483Y-126022490D01*
X139028561Y-126070556D01*
X138924657Y-126213566D01*
X138864417Y-126331795D01*
X138816442Y-126382591D01*
X138753932Y-126399500D01*
X135162068Y-126399500D01*
X135095029Y-126379815D01*
X135051583Y-126331795D01*
X134991342Y-126213566D01*
X134984764Y-126204512D01*
X134852517Y-126022490D01*
X134685510Y-125855483D01*
X134494433Y-125716657D01*
X134283996Y-125609433D01*
X134059368Y-125536446D01*
X133826097Y-125499500D01*
X133826092Y-125499500D01*
X133589908Y-125499500D01*
X133589903Y-125499500D01*
X133356631Y-125536446D01*
X133132003Y-125609433D01*
X132921566Y-125716657D01*
X132812550Y-125795862D01*
X132730490Y-125855483D01*
X132730488Y-125855485D01*
X132730487Y-125855485D01*
X132563485Y-126022487D01*
X132563485Y-126022488D01*
X132563483Y-126022490D01*
X132528561Y-126070556D01*
X132424657Y-126213566D01*
X132317433Y-126424003D01*
X132244446Y-126648631D01*
X132207500Y-126881902D01*
X132207500Y-127118097D01*
X132244446Y-127351368D01*
X132317433Y-127575996D01*
X132402150Y-127742260D01*
X132424657Y-127786433D01*
X132563483Y-127977510D01*
X132563485Y-127977512D01*
X132565739Y-127980614D01*
X132589219Y-128046420D01*
X132573394Y-128114474D01*
X132523288Y-128163169D01*
X132465421Y-128177500D01*
X128316098Y-128177500D01*
X128249059Y-128157815D01*
X128228417Y-128141181D01*
X127890819Y-127803583D01*
X127857334Y-127742260D01*
X127854500Y-127715902D01*
X127854500Y-119554945D01*
X127854500Y-119554943D01*
X127813577Y-119402216D01*
X127751337Y-119294412D01*
X127734524Y-119265290D01*
X127734518Y-119265282D01*
X127622717Y-119153481D01*
X127622709Y-119153475D01*
X127485790Y-119074426D01*
X127485786Y-119074424D01*
X127485784Y-119074423D01*
X127333057Y-119033500D01*
X127333056Y-119033500D01*
X103718670Y-119033500D01*
X103718654Y-119033499D01*
X103711058Y-119033499D01*
X103552943Y-119033499D01*
X103476579Y-119053961D01*
X103400214Y-119074423D01*
X103400209Y-119074426D01*
X103263290Y-119153475D01*
X103263282Y-119153481D01*
X102389481Y-120027282D01*
X102389480Y-120027284D01*
X102351397Y-120093246D01*
X102310423Y-120164215D01*
X102269499Y-120316943D01*
X102269499Y-120316945D01*
X102269499Y-120485046D01*
X102269500Y-120485059D01*
X102269500Y-120857500D01*
X102249815Y-120924539D01*
X102197011Y-120970294D01*
X102145507Y-120981500D01*
X102130133Y-120981500D01*
X102130123Y-120981501D01*
X102070516Y-120987908D01*
X101935671Y-121038202D01*
X101935664Y-121038206D01*
X101820455Y-121124452D01*
X101820452Y-121124455D01*
X101734206Y-121239664D01*
X101734202Y-121239671D01*
X101683908Y-121374517D01*
X101677501Y-121434116D01*
X101677500Y-121434135D01*
X101677500Y-123229870D01*
X101677501Y-123229876D01*
X101683908Y-123289483D01*
X101734202Y-123424328D01*
X101734206Y-123424335D01*
X101820452Y-123539544D01*
X101820455Y-123539547D01*
X101935664Y-123625793D01*
X101935671Y-123625797D01*
X102067082Y-123674810D01*
X102123016Y-123716681D01*
X102147433Y-123782145D01*
X102132582Y-123850418D01*
X102111431Y-123878673D01*
X101997889Y-123992215D01*
X101872951Y-124164179D01*
X101776444Y-124353585D01*
X101710753Y-124555760D01*
X101677500Y-124765713D01*
X101677500Y-124978286D01*
X101710753Y-125188239D01*
X101776444Y-125390414D01*
X101872951Y-125579820D01*
X101997890Y-125751786D01*
X102148213Y-125902109D01*
X102320182Y-126027050D01*
X102328946Y-126031516D01*
X102379742Y-126079491D01*
X102396536Y-126147312D01*
X102373998Y-126213447D01*
X102328946Y-126252484D01*
X102320182Y-126256949D01*
X102148213Y-126381890D01*
X101997890Y-126532213D01*
X101872951Y-126704179D01*
X101776444Y-126893585D01*
X101710753Y-127095760D01*
X101677500Y-127305713D01*
X101677500Y-127518286D01*
X101690521Y-127600501D01*
X101710754Y-127728243D01*
X101776097Y-127929348D01*
X101776444Y-127930414D01*
X101872951Y-128119820D01*
X101997890Y-128291786D01*
X102148213Y-128442109D01*
X102320182Y-128567050D01*
X102328946Y-128571516D01*
X102379742Y-128619491D01*
X102396536Y-128687312D01*
X102373998Y-128753447D01*
X102328946Y-128792484D01*
X102320182Y-128796949D01*
X102148213Y-128921890D01*
X101997890Y-129072213D01*
X101872951Y-129244179D01*
X101776444Y-129433585D01*
X101710753Y-129635760D01*
X101677500Y-129845713D01*
X101677500Y-130058287D01*
X101710754Y-130268243D01*
X101775257Y-130466763D01*
X101776444Y-130470414D01*
X101872951Y-130659820D01*
X101997890Y-130831786D01*
X102148213Y-130982109D01*
X102320179Y-131107048D01*
X102320181Y-131107049D01*
X102320184Y-131107051D01*
X102509588Y-131203557D01*
X102711757Y-131269246D01*
X102921713Y-131302500D01*
X102921714Y-131302500D01*
X103134286Y-131302500D01*
X103134287Y-131302500D01*
X103344243Y-131269246D01*
X103546412Y-131203557D01*
X103735816Y-131107051D01*
X103800728Y-131059890D01*
X103907786Y-130982109D01*
X103907788Y-130982106D01*
X103907792Y-130982104D01*
X104058104Y-130831792D01*
X104058106Y-130831788D01*
X104058109Y-130831786D01*
X104180402Y-130663462D01*
X104183051Y-130659816D01*
X104187514Y-130651054D01*
X104235488Y-130600259D01*
X104303308Y-130583463D01*
X104369444Y-130605999D01*
X104408486Y-130651056D01*
X104412951Y-130659820D01*
X104537890Y-130831786D01*
X104688213Y-130982109D01*
X104860179Y-131107048D01*
X104860181Y-131107049D01*
X104860184Y-131107051D01*
X105049588Y-131203557D01*
X105251757Y-131269246D01*
X105461713Y-131302500D01*
X105461714Y-131302500D01*
X105674286Y-131302500D01*
X105674287Y-131302500D01*
X105884243Y-131269246D01*
X106086412Y-131203557D01*
X106275816Y-131107051D01*
X106340728Y-131059890D01*
X106447786Y-130982109D01*
X106447788Y-130982106D01*
X106447792Y-130982104D01*
X106598104Y-130831792D01*
X106598106Y-130831788D01*
X106598109Y-130831786D01*
X106683653Y-130714043D01*
X106723051Y-130659816D01*
X106723349Y-130659230D01*
X106743235Y-130620205D01*
X106791209Y-130569409D01*
X106853719Y-130552500D01*
X132304936Y-130552500D01*
X132371975Y-130572185D01*
X132417730Y-130624989D01*
X132427674Y-130694147D01*
X132415421Y-130732795D01*
X132317897Y-130924197D01*
X132244934Y-131148752D01*
X132208000Y-131381947D01*
X132208000Y-131618052D01*
X132244934Y-131851247D01*
X132317897Y-132075802D01*
X132425087Y-132286174D01*
X132485338Y-132369104D01*
X132485340Y-132369105D01*
X133184212Y-131670233D01*
X133195482Y-131712292D01*
X133267890Y-131837708D01*
X133370292Y-131940110D01*
X133495708Y-132012518D01*
X133537765Y-132023787D01*
X132838893Y-132722658D01*
X132921828Y-132782914D01*
X133132197Y-132890102D01*
X133356752Y-132963065D01*
X133356751Y-132963065D01*
X133589948Y-133000000D01*
X133826052Y-133000000D01*
X134059247Y-132963065D01*
X134283802Y-132890102D01*
X134494163Y-132782918D01*
X134494169Y-132782914D01*
X134577104Y-132722658D01*
X134577105Y-132722658D01*
X133878233Y-132023787D01*
X133920292Y-132012518D01*
X134045708Y-131940110D01*
X134148110Y-131837708D01*
X134220518Y-131712292D01*
X134231787Y-131670234D01*
X134930658Y-132369105D01*
X134930658Y-132369104D01*
X134990914Y-132286169D01*
X134990918Y-132286163D01*
X135098102Y-132075802D01*
X135171065Y-131851247D01*
X135208000Y-131618052D01*
X135208000Y-131381947D01*
X135171065Y-131148752D01*
X135098102Y-130924197D01*
X135000579Y-130732795D01*
X134987683Y-130664125D01*
X135013960Y-130599385D01*
X135071066Y-130559128D01*
X135111064Y-130552500D01*
X138804936Y-130552500D01*
X138871975Y-130572185D01*
X138917730Y-130624989D01*
X138927674Y-130694147D01*
X138915421Y-130732795D01*
X138817897Y-130924197D01*
X138744934Y-131148752D01*
X138708000Y-131381947D01*
X138708000Y-131618052D01*
X138744934Y-131851247D01*
X138817897Y-132075802D01*
X138925087Y-132286174D01*
X138985338Y-132369104D01*
X138985340Y-132369105D01*
X139684212Y-131670233D01*
X139695482Y-131712292D01*
X139767890Y-131837708D01*
X139870292Y-131940110D01*
X139995708Y-132012518D01*
X140037765Y-132023787D01*
X139338893Y-132722658D01*
X139421828Y-132782914D01*
X139632197Y-132890102D01*
X139856752Y-132963065D01*
X139856751Y-132963065D01*
X140089948Y-133000000D01*
X140326052Y-133000000D01*
X140559247Y-132963065D01*
X140783802Y-132890102D01*
X140994163Y-132782918D01*
X140994169Y-132782914D01*
X141077104Y-132722658D01*
X141077105Y-132722658D01*
X140378233Y-132023787D01*
X140420292Y-132012518D01*
X140545708Y-131940110D01*
X140648110Y-131837708D01*
X140720518Y-131712292D01*
X140731787Y-131670234D01*
X141430658Y-132369105D01*
X141430658Y-132369104D01*
X141490914Y-132286169D01*
X141490918Y-132286163D01*
X141598102Y-132075802D01*
X141671065Y-131851247D01*
X141708000Y-131618052D01*
X141708000Y-131381947D01*
X141671065Y-131148752D01*
X141598102Y-130924197D01*
X141500579Y-130732795D01*
X141487683Y-130664125D01*
X141513960Y-130599385D01*
X141571066Y-130559128D01*
X141611064Y-130552500D01*
X143601331Y-130552500D01*
X143601347Y-130552501D01*
X143608943Y-130552501D01*
X143767054Y-130552501D01*
X143767057Y-130552501D01*
X143919785Y-130511577D01*
X143969904Y-130482639D01*
X144056716Y-130432520D01*
X144168520Y-130320716D01*
X144168520Y-130320714D01*
X144178728Y-130310507D01*
X144178729Y-130310504D01*
X145768520Y-128720716D01*
X145847577Y-128583784D01*
X145888501Y-128431057D01*
X145888501Y-128272942D01*
X145888501Y-128272940D01*
X145888501Y-128265347D01*
X145888500Y-128265329D01*
X145888500Y-86534940D01*
X145886035Y-86525741D01*
X145886035Y-86525742D01*
X145886034Y-86525737D01*
X145847577Y-86382215D01*
X145795191Y-86291480D01*
X145768520Y-86245284D01*
X145656716Y-86133480D01*
X145656713Y-86133478D01*
X144917590Y-85394355D01*
X144917588Y-85394352D01*
X144798717Y-85275481D01*
X144798716Y-85275480D01*
X144711904Y-85225360D01*
X144711904Y-85225359D01*
X144711900Y-85225358D01*
X144661785Y-85196423D01*
X144509057Y-85155499D01*
X144350943Y-85155499D01*
X144343347Y-85155499D01*
X144343331Y-85155500D01*
X142179719Y-85155500D01*
X142112680Y-85135815D01*
X142069235Y-85087795D01*
X142049052Y-85048185D01*
X142049051Y-85048184D01*
X141924109Y-84876213D01*
X141773786Y-84725890D01*
X141601820Y-84600951D01*
X141601115Y-84600591D01*
X141593054Y-84596485D01*
X141542259Y-84548512D01*
X141525463Y-84480692D01*
X141547999Y-84414556D01*
X141593054Y-84375515D01*
X141601816Y-84371051D01*
X141623789Y-84355086D01*
X141773786Y-84246109D01*
X141773788Y-84246106D01*
X141773792Y-84246104D01*
X141924104Y-84095792D01*
X141924106Y-84095788D01*
X141924109Y-84095786D01*
X142049048Y-83923820D01*
X142049047Y-83923820D01*
X142049051Y-83923816D01*
X142145557Y-83734412D01*
X142211246Y-83532243D01*
X142244500Y-83322287D01*
X142244500Y-83109713D01*
X142211246Y-82899757D01*
X142145557Y-82697588D01*
X142049051Y-82508184D01*
X142049049Y-82508181D01*
X142049048Y-82508179D01*
X141924109Y-82336213D01*
X141773786Y-82185890D01*
X141601820Y-82060951D01*
X141601115Y-82060591D01*
X141593054Y-82056485D01*
X141542259Y-82008512D01*
X141525463Y-81940692D01*
X141547999Y-81874556D01*
X141593054Y-81835515D01*
X141601816Y-81831051D01*
X141623789Y-81815086D01*
X141773786Y-81706109D01*
X141773788Y-81706106D01*
X141773792Y-81706104D01*
X141924104Y-81555792D01*
X141924106Y-81555788D01*
X141924109Y-81555786D01*
X142049048Y-81383820D01*
X142049047Y-81383820D01*
X142049051Y-81383816D01*
X142145557Y-81194412D01*
X142211246Y-80992243D01*
X142244500Y-80782287D01*
X142244500Y-80569713D01*
X142211246Y-80359757D01*
X142145557Y-80157588D01*
X142049051Y-79968184D01*
X142049049Y-79968181D01*
X142049048Y-79968179D01*
X141924109Y-79796213D01*
X141773786Y-79645890D01*
X141601820Y-79520951D01*
X141601115Y-79520591D01*
X141593054Y-79516485D01*
X141542259Y-79468512D01*
X141525463Y-79400692D01*
X141547999Y-79334556D01*
X141593054Y-79295515D01*
X141601816Y-79291051D01*
X141623789Y-79275086D01*
X141773786Y-79166109D01*
X141773788Y-79166106D01*
X141773792Y-79166104D01*
X141924104Y-79015792D01*
X141924106Y-79015788D01*
X141924109Y-79015786D01*
X142047902Y-78845397D01*
X142049051Y-78843816D01*
X142145557Y-78654412D01*
X142211246Y-78452243D01*
X142244500Y-78242287D01*
X142244500Y-78029713D01*
X142211246Y-77819757D01*
X142145557Y-77617588D01*
X142049051Y-77428184D01*
X142049049Y-77428181D01*
X142049048Y-77428179D01*
X141924109Y-77256213D01*
X141773786Y-77105890D01*
X141601820Y-76980951D01*
X141601115Y-76980591D01*
X141593054Y-76976485D01*
X141542259Y-76928512D01*
X141525463Y-76860692D01*
X141547999Y-76794556D01*
X141593054Y-76755515D01*
X141601816Y-76751051D01*
X141670625Y-76701059D01*
X141773786Y-76626109D01*
X141773788Y-76626106D01*
X141773792Y-76626104D01*
X141924104Y-76475792D01*
X141924106Y-76475788D01*
X141924109Y-76475786D01*
X142049048Y-76303820D01*
X142049050Y-76303817D01*
X142049051Y-76303816D01*
X142145557Y-76114412D01*
X142211246Y-75912243D01*
X142244500Y-75702287D01*
X142244500Y-75489713D01*
X142211246Y-75279757D01*
X142145557Y-75077588D01*
X142049051Y-74888184D01*
X142049049Y-74888181D01*
X142049048Y-74888179D01*
X141924109Y-74716213D01*
X141810569Y-74602673D01*
X141777084Y-74541350D01*
X141782068Y-74471658D01*
X141823940Y-74415725D01*
X141854915Y-74398810D01*
X141986331Y-74349796D01*
X142101546Y-74263546D01*
X142187796Y-74148331D01*
X142238091Y-74013483D01*
X142244500Y-73953873D01*
X142244499Y-72158128D01*
X142238091Y-72098517D01*
X142187796Y-71963669D01*
X142187795Y-71963668D01*
X142187793Y-71963664D01*
X142101547Y-71848455D01*
X142101544Y-71848452D01*
X141986335Y-71762206D01*
X141978546Y-71757953D01*
X141980124Y-71755061D01*
X141937042Y-71722811D01*
X141912625Y-71657347D01*
X141927476Y-71589074D01*
X141976881Y-71539668D01*
X142036309Y-71524500D01*
X151410291Y-71524500D01*
X151477330Y-71544185D01*
X151523085Y-71596989D01*
X151533029Y-71666147D01*
X151504004Y-71729703D01*
X151466751Y-71755567D01*
X151468054Y-71757953D01*
X151460264Y-71762206D01*
X151345055Y-71848452D01*
X151345052Y-71848455D01*
X151258806Y-71963664D01*
X151258802Y-71963671D01*
X151208508Y-72098517D01*
X151202101Y-72158116D01*
X151202101Y-72158123D01*
X151202100Y-72158135D01*
X151202100Y-73953870D01*
X151202101Y-73953876D01*
X151208508Y-74013483D01*
X151258802Y-74148328D01*
X151258806Y-74148335D01*
X151345052Y-74263544D01*
X151345055Y-74263547D01*
X151460264Y-74349793D01*
X151460271Y-74349797D01*
X151591682Y-74398810D01*
X151647616Y-74440681D01*
X151672033Y-74506145D01*
X151657182Y-74574418D01*
X151636031Y-74602673D01*
X151522489Y-74716215D01*
X151397551Y-74888179D01*
X151301044Y-75077585D01*
X151235353Y-75279760D01*
X151202100Y-75489713D01*
X151202100Y-75702286D01*
X151235353Y-75912239D01*
X151301044Y-76114414D01*
X151397551Y-76303820D01*
X151522490Y-76475786D01*
X151672813Y-76626109D01*
X151844782Y-76751050D01*
X151853546Y-76755516D01*
X151904342Y-76803491D01*
X151921136Y-76871312D01*
X151898598Y-76937447D01*
X151853546Y-76976484D01*
X151844782Y-76980949D01*
X151672813Y-77105890D01*
X151522490Y-77256213D01*
X151397551Y-77428179D01*
X151301044Y-77617585D01*
X151235353Y-77819760D01*
X151222249Y-77902498D01*
X151202100Y-78029713D01*
X151202100Y-78242287D01*
X151235354Y-78452243D01*
X151298403Y-78646288D01*
X151301044Y-78654414D01*
X151397551Y-78843820D01*
X151522490Y-79015786D01*
X151672813Y-79166109D01*
X151844782Y-79291050D01*
X151853546Y-79295516D01*
X151904342Y-79343491D01*
X151921136Y-79411312D01*
X151898598Y-79477447D01*
X151853546Y-79516484D01*
X151844782Y-79520949D01*
X151672813Y-79645890D01*
X151522490Y-79796213D01*
X151397551Y-79968179D01*
X151301044Y-80157585D01*
X151235353Y-80359760D01*
X151202100Y-80569713D01*
X151202100Y-80782287D01*
X151235354Y-80992243D01*
X151290443Y-81161790D01*
X151301044Y-81194414D01*
X151397551Y-81383820D01*
X151522490Y-81555786D01*
X151672813Y-81706109D01*
X151844782Y-81831050D01*
X151853546Y-81835516D01*
X151904342Y-81883491D01*
X151921136Y-81951312D01*
X151898598Y-82017447D01*
X151853546Y-82056484D01*
X151844782Y-82060949D01*
X151672813Y-82185890D01*
X151522490Y-82336213D01*
X151397551Y-82508179D01*
X151328452Y-82643795D01*
X151280478Y-82694591D01*
X151217967Y-82711500D01*
X150542940Y-82711500D01*
X150502019Y-82722464D01*
X150502019Y-82722465D01*
X150464751Y-82732451D01*
X150390214Y-82752423D01*
X150390209Y-82752426D01*
X150253290Y-82831475D01*
X150253282Y-82831481D01*
X149633481Y-83451282D01*
X149633479Y-83451285D01*
X149600832Y-83507833D01*
X149600831Y-83507835D01*
X149554423Y-83588214D01*
X149554423Y-83588215D01*
X149513499Y-83740943D01*
X149513499Y-83740945D01*
X149513499Y-83909046D01*
X149513500Y-83909059D01*
X149513500Y-128198164D01*
X149493815Y-128265203D01*
X149445796Y-128308648D01*
X149379976Y-128342185D01*
X149201641Y-128471752D01*
X149201636Y-128471756D01*
X149045756Y-128627636D01*
X149045752Y-128627641D01*
X148916187Y-128805974D01*
X148816104Y-129002393D01*
X148816103Y-129002396D01*
X148747985Y-129212047D01*
X148713500Y-129429778D01*
X148713500Y-129650221D01*
X148747985Y-129867952D01*
X148816103Y-130077603D01*
X148816104Y-130077606D01*
X148884122Y-130211096D01*
X148913240Y-130268243D01*
X148916187Y-130274025D01*
X149045752Y-130452358D01*
X149045756Y-130452363D01*
X149095928Y-130502535D01*
X149129413Y-130563858D01*
X149124429Y-130633550D01*
X149082557Y-130689483D01*
X149051581Y-130706398D01*
X148971669Y-130736203D01*
X148971664Y-130736206D01*
X148856455Y-130822452D01*
X148856452Y-130822455D01*
X148770206Y-130937664D01*
X148770202Y-130937671D01*
X148719908Y-131072517D01*
X148716196Y-131107048D01*
X148713501Y-131132123D01*
X148713500Y-131132135D01*
X148713500Y-133027870D01*
X148713501Y-133027876D01*
X148719908Y-133087483D01*
X148770202Y-133222328D01*
X148770206Y-133222335D01*
X148856452Y-133337544D01*
X148856455Y-133337547D01*
X148971664Y-133423793D01*
X148971671Y-133423797D01*
X149106517Y-133474091D01*
X149106516Y-133474091D01*
X149113444Y-133474835D01*
X149166127Y-133480500D01*
X151061872Y-133480499D01*
X151121483Y-133474091D01*
X151256331Y-133423796D01*
X151371546Y-133337546D01*
X151457796Y-133222331D01*
X151508091Y-133087483D01*
X151514500Y-133027873D01*
X151514500Y-132804500D01*
X151534185Y-132737461D01*
X151586989Y-132691706D01*
X151638500Y-132680500D01*
X154281273Y-132680500D01*
X154348312Y-132700185D01*
X154394067Y-132752989D01*
X154395834Y-132757048D01*
X154427590Y-132833717D01*
X154427593Y-132833722D01*
X154427595Y-132833726D01*
X154539052Y-133026774D01*
X154539057Y-133026780D01*
X154539058Y-133026782D01*
X154674751Y-133203622D01*
X154674757Y-133203629D01*
X154832370Y-133361242D01*
X154832376Y-133361247D01*
X155009226Y-133496948D01*
X155202274Y-133608405D01*
X155332140Y-133662197D01*
X155407074Y-133693236D01*
X155408219Y-133693710D01*
X155623537Y-133751404D01*
X155844543Y-133780500D01*
X155844550Y-133780500D01*
X156067450Y-133780500D01*
X156067457Y-133780500D01*
X156288463Y-133751404D01*
X156503781Y-133693710D01*
X156709726Y-133608405D01*
X156902774Y-133496948D01*
X157079624Y-133361247D01*
X157103327Y-133337544D01*
X157130550Y-133310322D01*
X157237242Y-133203629D01*
X157237247Y-133203624D01*
X157372948Y-133026774D01*
X157484405Y-132833726D01*
X157569710Y-132627781D01*
X157627404Y-132412463D01*
X157656500Y-132191457D01*
X157656500Y-131968575D01*
X169496000Y-131968575D01*
X169496000Y-132191424D01*
X169525085Y-132412354D01*
X169525088Y-132412367D01*
X169582763Y-132627618D01*
X169668045Y-132833502D01*
X169668054Y-132833520D01*
X169779464Y-133026491D01*
X169779473Y-133026504D01*
X169830040Y-133092403D01*
X169830043Y-133092403D01*
X170631387Y-132291059D01*
X170636889Y-132311591D01*
X170715881Y-132448408D01*
X170827592Y-132560119D01*
X170964409Y-132639111D01*
X170984940Y-132644612D01*
X170183595Y-133445955D01*
X170183595Y-133445956D01*
X170249507Y-133496533D01*
X170442485Y-133607949D01*
X170442497Y-133607954D01*
X170648381Y-133693236D01*
X170863632Y-133750911D01*
X170863645Y-133750914D01*
X171084575Y-133780000D01*
X171307425Y-133780000D01*
X171528354Y-133750914D01*
X171528367Y-133750911D01*
X171743618Y-133693236D01*
X171949502Y-133607954D01*
X171949514Y-133607949D01*
X172142498Y-133496530D01*
X172208403Y-133445957D01*
X172208404Y-133445956D01*
X171407059Y-132644612D01*
X171427591Y-132639111D01*
X171564408Y-132560119D01*
X171676119Y-132448408D01*
X171755111Y-132311591D01*
X171760612Y-132291059D01*
X172561956Y-133092404D01*
X172561957Y-133092403D01*
X172612530Y-133026498D01*
X172723949Y-132833514D01*
X172723954Y-132833502D01*
X172809236Y-132627618D01*
X172866911Y-132412367D01*
X172866914Y-132412354D01*
X172896000Y-132191424D01*
X172896000Y-131968575D01*
X172866914Y-131747645D01*
X172866911Y-131747632D01*
X172809236Y-131532381D01*
X172723954Y-131326497D01*
X172723949Y-131326485D01*
X172612533Y-131133507D01*
X172561956Y-131067595D01*
X172561955Y-131067595D01*
X171760612Y-131868939D01*
X171755111Y-131848409D01*
X171676119Y-131711592D01*
X171564408Y-131599881D01*
X171427591Y-131520889D01*
X171407058Y-131515387D01*
X172208403Y-130714043D01*
X172208403Y-130714040D01*
X172142504Y-130663473D01*
X172142491Y-130663464D01*
X171949520Y-130552054D01*
X171949502Y-130552045D01*
X171743618Y-130466763D01*
X171528367Y-130409088D01*
X171528354Y-130409085D01*
X171307425Y-130380000D01*
X171084575Y-130380000D01*
X170863645Y-130409085D01*
X170863632Y-130409088D01*
X170648381Y-130466763D01*
X170442497Y-130552045D01*
X170442479Y-130552054D01*
X170249511Y-130663462D01*
X170183595Y-130714042D01*
X170984941Y-131515387D01*
X170964409Y-131520889D01*
X170827592Y-131599881D01*
X170715881Y-131711592D01*
X170636889Y-131848409D01*
X170631387Y-131868940D01*
X169830042Y-131067595D01*
X169779462Y-131133511D01*
X169668054Y-131326479D01*
X169668045Y-131326497D01*
X169582763Y-131532381D01*
X169525088Y-131747632D01*
X169525085Y-131747645D01*
X169496000Y-131968575D01*
X157656500Y-131968575D01*
X157656500Y-131968543D01*
X157627404Y-131747537D01*
X157569710Y-131532219D01*
X157484405Y-131326274D01*
X157372948Y-131133226D01*
X157316676Y-131059890D01*
X157237248Y-130956377D01*
X157237242Y-130956370D01*
X157079629Y-130798757D01*
X157079622Y-130798751D01*
X156902782Y-130663058D01*
X156902780Y-130663057D01*
X156902774Y-130663052D01*
X156709726Y-130551595D01*
X156709722Y-130551593D01*
X156503790Y-130466293D01*
X156503783Y-130466291D01*
X156503781Y-130466290D01*
X156288463Y-130408596D01*
X156288457Y-130408595D01*
X156288452Y-130408594D01*
X156067466Y-130379501D01*
X156067463Y-130379500D01*
X156067457Y-130379500D01*
X155844543Y-130379500D01*
X155844537Y-130379500D01*
X155844533Y-130379501D01*
X155623547Y-130408594D01*
X155623540Y-130408595D01*
X155623537Y-130408596D01*
X155534255Y-130432519D01*
X155408219Y-130466290D01*
X155408209Y-130466293D01*
X155202277Y-130551593D01*
X155202273Y-130551595D01*
X155009226Y-130663052D01*
X155009217Y-130663058D01*
X154832377Y-130798751D01*
X154832370Y-130798757D01*
X154674757Y-130956370D01*
X154674751Y-130956377D01*
X154539058Y-131133217D01*
X154539052Y-131133226D01*
X154427595Y-131326273D01*
X154427590Y-131326282D01*
X154395834Y-131402952D01*
X154351994Y-131457356D01*
X154285700Y-131479421D01*
X154281273Y-131479500D01*
X151638499Y-131479500D01*
X151571460Y-131459815D01*
X151525705Y-131407011D01*
X151514499Y-131355500D01*
X151514499Y-131132129D01*
X151514498Y-131132123D01*
X151514497Y-131132116D01*
X151508091Y-131072517D01*
X151506255Y-131067595D01*
X151457797Y-130937671D01*
X151457793Y-130937664D01*
X151371547Y-130822455D01*
X151371544Y-130822452D01*
X151256335Y-130736206D01*
X151256328Y-130736202D01*
X151176419Y-130706398D01*
X151120485Y-130664527D01*
X151096068Y-130599062D01*
X151110920Y-130530789D01*
X151132069Y-130502537D01*
X151182242Y-130452365D01*
X151311815Y-130274022D01*
X151411895Y-130077606D01*
X151480015Y-129867951D01*
X151514500Y-129650222D01*
X151514500Y-129429778D01*
X151480015Y-129212049D01*
X151411895Y-129002394D01*
X151411895Y-129002393D01*
X151370876Y-128921890D01*
X151311815Y-128805978D01*
X151225600Y-128687312D01*
X151182247Y-128627641D01*
X151182243Y-128627636D01*
X151026363Y-128471756D01*
X151026358Y-128471752D01*
X150848023Y-128342185D01*
X150782204Y-128308648D01*
X150731409Y-128260674D01*
X150714500Y-128198164D01*
X150714500Y-84120097D01*
X150734185Y-84053058D01*
X150750819Y-84032416D01*
X150834416Y-83948819D01*
X150895739Y-83915334D01*
X150922097Y-83912500D01*
X151326146Y-83912500D01*
X151393185Y-83932185D01*
X151426463Y-83963613D01*
X151476451Y-84032416D01*
X151522496Y-84095792D01*
X151672813Y-84246109D01*
X151844782Y-84371050D01*
X151853546Y-84375516D01*
X151904342Y-84423491D01*
X151921136Y-84491312D01*
X151898598Y-84557447D01*
X151853546Y-84596484D01*
X151844782Y-84600949D01*
X151672813Y-84725890D01*
X151522490Y-84876213D01*
X151397551Y-85048179D01*
X151301044Y-85237585D01*
X151235353Y-85439760D01*
X151222249Y-85522498D01*
X151202100Y-85649713D01*
X151202100Y-85862287D01*
X151235354Y-86072243D01*
X151298403Y-86266288D01*
X151301044Y-86274414D01*
X151397551Y-86463820D01*
X151522490Y-86635786D01*
X151672813Y-86786109D01*
X151844782Y-86911050D01*
X151853546Y-86915516D01*
X151904342Y-86963491D01*
X151921136Y-87031312D01*
X151898598Y-87097447D01*
X151853546Y-87136484D01*
X151844782Y-87140949D01*
X151672813Y-87265890D01*
X151522490Y-87416213D01*
X151397551Y-87588179D01*
X151301044Y-87777585D01*
X151235353Y-87979760D01*
X151202100Y-88189713D01*
X151202100Y-88402286D01*
X151235353Y-88612239D01*
X151301044Y-88814414D01*
X151397551Y-89003820D01*
X151522490Y-89175786D01*
X151672813Y-89326109D01*
X151844782Y-89451050D01*
X151853546Y-89455516D01*
X151904342Y-89503491D01*
X151921136Y-89571312D01*
X151898598Y-89637447D01*
X151853546Y-89676484D01*
X151844782Y-89680949D01*
X151672813Y-89805890D01*
X151522490Y-89956213D01*
X151397551Y-90128179D01*
X151301044Y-90317585D01*
X151235353Y-90519760D01*
X151202100Y-90729713D01*
X151202100Y-90942286D01*
X151230184Y-91119606D01*
X151235354Y-91152243D01*
X151288570Y-91316025D01*
X151301044Y-91354414D01*
X151397551Y-91543820D01*
X151522490Y-91715786D01*
X151672813Y-91866109D01*
X151844782Y-91991050D01*
X151853546Y-91995516D01*
X151904342Y-92043491D01*
X151921136Y-92111312D01*
X151898598Y-92177447D01*
X151853546Y-92216484D01*
X151844782Y-92220949D01*
X151672813Y-92345890D01*
X151522490Y-92496213D01*
X151397551Y-92668179D01*
X151301044Y-92857585D01*
X151235353Y-93059760D01*
X151202100Y-93269713D01*
X151202100Y-93482287D01*
X151235354Y-93692243D01*
X151287030Y-93851286D01*
X151301044Y-93894414D01*
X151397551Y-94083820D01*
X151522490Y-94255786D01*
X151672813Y-94406109D01*
X151844782Y-94531050D01*
X151853546Y-94535516D01*
X151904342Y-94583491D01*
X151921136Y-94651312D01*
X151898598Y-94717447D01*
X151853546Y-94756484D01*
X151844782Y-94760949D01*
X151672813Y-94885890D01*
X151522490Y-95036213D01*
X151397551Y-95208179D01*
X151301044Y-95397585D01*
X151235353Y-95599760D01*
X151202100Y-95809713D01*
X151202100Y-96022287D01*
X151203540Y-96031380D01*
X151234763Y-96228517D01*
X151235354Y-96232243D01*
X151287030Y-96391286D01*
X151301044Y-96434414D01*
X151397551Y-96623820D01*
X151522490Y-96795786D01*
X151672813Y-96946109D01*
X151844782Y-97071050D01*
X151853546Y-97075516D01*
X151904342Y-97123491D01*
X151921136Y-97191312D01*
X151898598Y-97257447D01*
X151853546Y-97296484D01*
X151844782Y-97300949D01*
X151672813Y-97425890D01*
X151522490Y-97576213D01*
X151397551Y-97748179D01*
X151301044Y-97937585D01*
X151235353Y-98139760D01*
X151202100Y-98349713D01*
X151202100Y-98562286D01*
X151232906Y-98756791D01*
X151235354Y-98772243D01*
X151293077Y-98949896D01*
X151301044Y-98974414D01*
X151397551Y-99163820D01*
X151522490Y-99335786D01*
X151672813Y-99486109D01*
X151844782Y-99611050D01*
X151853546Y-99615516D01*
X151904342Y-99663491D01*
X151921136Y-99731312D01*
X151898598Y-99797447D01*
X151853546Y-99836484D01*
X151844782Y-99840949D01*
X151672813Y-99965890D01*
X151522490Y-100116213D01*
X151397551Y-100288179D01*
X151301044Y-100477585D01*
X151235353Y-100679760D01*
X151208831Y-100847213D01*
X151202100Y-100889713D01*
X151202100Y-101102287D01*
X151203684Y-101112286D01*
X151232978Y-101297246D01*
X151235354Y-101312243D01*
X151293077Y-101489896D01*
X151301044Y-101514414D01*
X151397551Y-101703820D01*
X151522490Y-101875786D01*
X151672813Y-102026109D01*
X151844782Y-102151050D01*
X151853546Y-102155516D01*
X151904342Y-102203491D01*
X151921136Y-102271312D01*
X151898598Y-102337447D01*
X151853546Y-102376484D01*
X151844782Y-102380949D01*
X151672813Y-102505890D01*
X151522490Y-102656213D01*
X151397551Y-102828179D01*
X151301044Y-103017585D01*
X151235353Y-103219760D01*
X151223877Y-103292217D01*
X151202100Y-103429713D01*
X151202100Y-103642287D01*
X151202690Y-103646011D01*
X151232978Y-103837246D01*
X151235354Y-103852243D01*
X151298403Y-104046288D01*
X151301044Y-104054414D01*
X151397551Y-104243820D01*
X151522490Y-104415786D01*
X151672813Y-104566109D01*
X151844782Y-104691050D01*
X151853546Y-104695516D01*
X151904342Y-104743491D01*
X151921136Y-104811312D01*
X151898598Y-104877447D01*
X151853546Y-104916484D01*
X151844782Y-104920949D01*
X151672813Y-105045890D01*
X151522490Y-105196213D01*
X151397551Y-105368179D01*
X151301044Y-105557585D01*
X151235353Y-105759760D01*
X151207473Y-105935789D01*
X151202100Y-105969713D01*
X151202100Y-106182287D01*
X151235354Y-106392243D01*
X151295935Y-106578692D01*
X151301044Y-106594414D01*
X151397551Y-106783820D01*
X151522490Y-106955786D01*
X151672813Y-107106109D01*
X151844782Y-107231050D01*
X151853546Y-107235516D01*
X151904342Y-107283491D01*
X151921136Y-107351312D01*
X151898598Y-107417447D01*
X151853546Y-107456484D01*
X151844782Y-107460949D01*
X151672813Y-107585890D01*
X151522490Y-107736213D01*
X151397551Y-107908179D01*
X151301044Y-108097585D01*
X151235353Y-108299760D01*
X151202697Y-108505943D01*
X151202100Y-108509713D01*
X151202100Y-108722287D01*
X151235354Y-108932243D01*
X151295935Y-109118692D01*
X151301044Y-109134414D01*
X151397551Y-109323820D01*
X151522490Y-109495786D01*
X151672813Y-109646109D01*
X151844782Y-109771050D01*
X151853546Y-109775516D01*
X151904342Y-109823491D01*
X151921136Y-109891312D01*
X151898598Y-109957447D01*
X151853546Y-109996484D01*
X151844782Y-110000949D01*
X151672813Y-110125890D01*
X151522490Y-110276213D01*
X151397551Y-110448179D01*
X151301044Y-110637585D01*
X151235353Y-110839760D01*
X151223846Y-110912412D01*
X151202100Y-111049713D01*
X151202100Y-111262287D01*
X151235354Y-111472243D01*
X151299475Y-111669587D01*
X151301044Y-111674414D01*
X151397551Y-111863820D01*
X151522490Y-112035786D01*
X151672813Y-112186109D01*
X151844782Y-112311050D01*
X151853546Y-112315516D01*
X151904342Y-112363491D01*
X151921136Y-112431312D01*
X151898598Y-112497447D01*
X151853546Y-112536484D01*
X151844782Y-112540949D01*
X151672813Y-112665890D01*
X151522490Y-112816213D01*
X151397551Y-112988179D01*
X151301044Y-113177585D01*
X151235353Y-113379760D01*
X151202100Y-113589713D01*
X151202100Y-113802286D01*
X151225495Y-113950000D01*
X151235354Y-114012243D01*
X151289927Y-114180202D01*
X151301044Y-114214414D01*
X151397551Y-114403820D01*
X151522490Y-114575786D01*
X151672813Y-114726109D01*
X151844782Y-114851050D01*
X151853546Y-114855516D01*
X151904342Y-114903491D01*
X151921136Y-114971312D01*
X151898598Y-115037447D01*
X151853546Y-115076484D01*
X151844782Y-115080949D01*
X151672813Y-115205890D01*
X151522490Y-115356213D01*
X151397551Y-115528179D01*
X151301044Y-115717585D01*
X151235353Y-115919760D01*
X151202100Y-116129713D01*
X151202100Y-116342287D01*
X151235354Y-116552243D01*
X151287030Y-116711286D01*
X151301044Y-116754414D01*
X151397551Y-116943820D01*
X151522490Y-117115786D01*
X151672813Y-117266109D01*
X151844779Y-117391048D01*
X151844781Y-117391049D01*
X151844784Y-117391051D01*
X151854093Y-117395794D01*
X151904890Y-117443766D01*
X151921687Y-117511587D01*
X151899152Y-117577722D01*
X151854105Y-117616760D01*
X151845046Y-117621376D01*
X151845040Y-117621380D01*
X151790882Y-117660727D01*
X151790882Y-117660728D01*
X152423191Y-118293037D01*
X152359607Y-118310075D01*
X152245593Y-118375901D01*
X152152501Y-118468993D01*
X152086675Y-118583007D01*
X152069637Y-118646591D01*
X151437328Y-118014282D01*
X151437327Y-118014282D01*
X151397980Y-118068439D01*
X151301504Y-118257782D01*
X151235842Y-118459869D01*
X151235842Y-118459872D01*
X151202600Y-118669753D01*
X151202600Y-118882246D01*
X151235842Y-119092127D01*
X151235842Y-119092130D01*
X151301504Y-119294217D01*
X151397975Y-119483550D01*
X151437328Y-119537716D01*
X152069637Y-118905408D01*
X152086675Y-118968993D01*
X152152501Y-119083007D01*
X152245593Y-119176099D01*
X152359607Y-119241925D01*
X152423190Y-119258962D01*
X151790882Y-119891269D01*
X151790882Y-119891270D01*
X151845052Y-119930626D01*
X151845051Y-119930626D01*
X151854095Y-119935234D01*
X151904892Y-119983208D01*
X151921687Y-120051029D01*
X151899150Y-120117164D01*
X151854099Y-120156202D01*
X151844782Y-120160949D01*
X151672813Y-120285890D01*
X151522490Y-120436213D01*
X151397551Y-120608179D01*
X151301044Y-120797585D01*
X151235353Y-120999760D01*
X151207222Y-121177375D01*
X151202100Y-121209713D01*
X151202100Y-121422287D01*
X151203977Y-121434135D01*
X151234119Y-121624449D01*
X151235354Y-121632243D01*
X151300259Y-121832000D01*
X151301044Y-121834414D01*
X151397551Y-122023820D01*
X151522490Y-122195786D01*
X151672813Y-122346109D01*
X151844779Y-122471048D01*
X151844781Y-122471049D01*
X151844784Y-122471051D01*
X152034188Y-122567557D01*
X152236357Y-122633246D01*
X152446313Y-122666500D01*
X152446314Y-122666500D01*
X152658886Y-122666500D01*
X152658887Y-122666500D01*
X152868843Y-122633246D01*
X153071012Y-122567557D01*
X153260416Y-122471051D01*
X153305569Y-122438246D01*
X153432386Y-122346109D01*
X153432388Y-122346106D01*
X153432392Y-122346104D01*
X153582704Y-122195792D01*
X153582706Y-122195788D01*
X153582709Y-122195786D01*
X153707648Y-122023820D01*
X153707647Y-122023820D01*
X153707651Y-122023816D01*
X153804157Y-121834412D01*
X153869846Y-121632243D01*
X153903100Y-121422287D01*
X153903100Y-121209713D01*
X153869846Y-120999757D01*
X153804157Y-120797588D01*
X153707651Y-120608184D01*
X153707649Y-120608181D01*
X153707648Y-120608179D01*
X153582709Y-120436213D01*
X153432386Y-120285890D01*
X153260417Y-120160949D01*
X153251104Y-120156204D01*
X153200307Y-120108230D01*
X153183512Y-120040409D01*
X153206049Y-119974274D01*
X153251107Y-119935232D01*
X153260155Y-119930622D01*
X153314316Y-119891270D01*
X153314317Y-119891270D01*
X152682008Y-119258962D01*
X152745593Y-119241925D01*
X152859607Y-119176099D01*
X152952699Y-119083007D01*
X153018525Y-118968993D01*
X153035562Y-118905409D01*
X153667870Y-119537717D01*
X153667870Y-119537716D01*
X153707222Y-119483554D01*
X153803695Y-119294217D01*
X153869357Y-119092130D01*
X153869357Y-119092127D01*
X153902600Y-118882246D01*
X153902600Y-118669753D01*
X153869357Y-118459872D01*
X153869357Y-118459869D01*
X153803695Y-118257782D01*
X153707224Y-118068449D01*
X153667870Y-118014282D01*
X153667869Y-118014282D01*
X153035562Y-118646590D01*
X153018525Y-118583007D01*
X152952699Y-118468993D01*
X152859607Y-118375901D01*
X152745593Y-118310075D01*
X152682009Y-118293037D01*
X153314316Y-117660728D01*
X153260147Y-117621373D01*
X153260147Y-117621372D01*
X153251100Y-117616763D01*
X153200306Y-117568788D01*
X153183512Y-117500966D01*
X153206051Y-117434832D01*
X153251108Y-117395793D01*
X153260416Y-117391051D01*
X153339607Y-117333515D01*
X153432386Y-117266109D01*
X153432388Y-117266106D01*
X153432392Y-117266104D01*
X153582704Y-117115792D01*
X153582706Y-117115788D01*
X153582709Y-117115786D01*
X153707648Y-116943820D01*
X153707647Y-116943820D01*
X153707651Y-116943816D01*
X153804157Y-116754412D01*
X153869846Y-116552243D01*
X153903100Y-116342287D01*
X153903100Y-116129713D01*
X153869846Y-115919757D01*
X153804157Y-115717588D01*
X153707651Y-115528184D01*
X153707649Y-115528181D01*
X153707648Y-115528179D01*
X153582709Y-115356213D01*
X153432386Y-115205890D01*
X153260420Y-115080951D01*
X153259715Y-115080591D01*
X153251654Y-115076485D01*
X153200859Y-115028512D01*
X153184063Y-114960692D01*
X153206599Y-114894556D01*
X153251654Y-114855515D01*
X153260416Y-114851051D01*
X153334518Y-114797213D01*
X153432386Y-114726109D01*
X153432388Y-114726106D01*
X153432392Y-114726104D01*
X153582704Y-114575792D01*
X153582706Y-114575788D01*
X153582709Y-114575786D01*
X153707648Y-114403820D01*
X153707647Y-114403820D01*
X153707651Y-114403816D01*
X153804157Y-114214412D01*
X153869846Y-114012243D01*
X153903100Y-113802287D01*
X153903100Y-113589713D01*
X153869846Y-113379757D01*
X153804157Y-113177588D01*
X153707651Y-112988184D01*
X153707649Y-112988181D01*
X153707648Y-112988179D01*
X153582709Y-112816213D01*
X153432386Y-112665890D01*
X153260420Y-112540951D01*
X153259715Y-112540591D01*
X153251654Y-112536485D01*
X153200859Y-112488512D01*
X153184063Y-112420692D01*
X153206599Y-112354556D01*
X153251654Y-112315515D01*
X153260416Y-112311051D01*
X153282389Y-112295086D01*
X153432386Y-112186109D01*
X153432388Y-112186106D01*
X153432392Y-112186104D01*
X153582704Y-112035792D01*
X153582706Y-112035788D01*
X153582709Y-112035786D01*
X153707648Y-111863820D01*
X153707647Y-111863820D01*
X153707651Y-111863816D01*
X153804157Y-111674412D01*
X153869846Y-111472243D01*
X153903100Y-111262287D01*
X153903100Y-111049713D01*
X153869846Y-110839757D01*
X153804157Y-110637588D01*
X153707651Y-110448184D01*
X153707649Y-110448181D01*
X153707648Y-110448179D01*
X153582709Y-110276213D01*
X153432386Y-110125890D01*
X153260420Y-110000951D01*
X153259715Y-110000591D01*
X153251654Y-109996485D01*
X153200859Y-109948512D01*
X153184063Y-109880692D01*
X153206599Y-109814556D01*
X153251654Y-109775515D01*
X153260416Y-109771051D01*
X153282389Y-109755086D01*
X153432386Y-109646109D01*
X153432388Y-109646106D01*
X153432392Y-109646104D01*
X153582704Y-109495792D01*
X153582706Y-109495788D01*
X153582709Y-109495786D01*
X153707648Y-109323820D01*
X153707647Y-109323820D01*
X153707651Y-109323816D01*
X153804157Y-109134412D01*
X153869846Y-108932243D01*
X153903100Y-108722287D01*
X153903100Y-108509713D01*
X153869846Y-108299757D01*
X153804157Y-108097588D01*
X153707651Y-107908184D01*
X153707649Y-107908181D01*
X153707648Y-107908179D01*
X153582709Y-107736213D01*
X153432386Y-107585890D01*
X153260420Y-107460951D01*
X153259715Y-107460591D01*
X153251654Y-107456485D01*
X153200859Y-107408512D01*
X153184063Y-107340692D01*
X153206599Y-107274556D01*
X153251654Y-107235515D01*
X153260416Y-107231051D01*
X153377225Y-107146185D01*
X153432386Y-107106109D01*
X153432388Y-107106106D01*
X153432392Y-107106104D01*
X153582704Y-106955792D01*
X153582706Y-106955788D01*
X153582709Y-106955786D01*
X153707648Y-106783820D01*
X153707647Y-106783820D01*
X153707651Y-106783816D01*
X153804157Y-106594412D01*
X153869846Y-106392243D01*
X153903100Y-106182287D01*
X153903100Y-105969713D01*
X153869846Y-105759757D01*
X153804157Y-105557588D01*
X153707651Y-105368184D01*
X153707649Y-105368181D01*
X153707648Y-105368179D01*
X153582709Y-105196213D01*
X153432386Y-105045890D01*
X153260420Y-104920951D01*
X153259715Y-104920591D01*
X153251654Y-104916485D01*
X153200859Y-104868512D01*
X153184063Y-104800692D01*
X153206599Y-104734556D01*
X153251654Y-104695515D01*
X153260416Y-104691051D01*
X153282389Y-104675086D01*
X153432386Y-104566109D01*
X153432388Y-104566106D01*
X153432392Y-104566104D01*
X153582704Y-104415792D01*
X153582706Y-104415788D01*
X153582709Y-104415786D01*
X153706502Y-104245397D01*
X153707651Y-104243816D01*
X153804157Y-104054412D01*
X153869846Y-103852243D01*
X153903100Y-103642287D01*
X153903100Y-103429713D01*
X153869846Y-103219757D01*
X153804157Y-103017588D01*
X153707651Y-102828184D01*
X153707649Y-102828181D01*
X153707648Y-102828179D01*
X153582709Y-102656213D01*
X153432386Y-102505890D01*
X153260420Y-102380951D01*
X153259715Y-102380591D01*
X153251654Y-102376485D01*
X153200859Y-102328512D01*
X153184063Y-102260692D01*
X153206599Y-102194556D01*
X153251654Y-102155515D01*
X153260416Y-102151051D01*
X153330682Y-102100000D01*
X153432386Y-102026109D01*
X153432388Y-102026106D01*
X153432392Y-102026104D01*
X153582704Y-101875792D01*
X153582706Y-101875788D01*
X153582709Y-101875786D01*
X153707648Y-101703820D01*
X153707647Y-101703820D01*
X153707651Y-101703816D01*
X153804157Y-101514412D01*
X153869846Y-101312243D01*
X153903100Y-101102287D01*
X153903100Y-100889713D01*
X153869846Y-100679757D01*
X153804157Y-100477588D01*
X153707651Y-100288184D01*
X153707649Y-100288181D01*
X153707648Y-100288179D01*
X153582709Y-100116213D01*
X153432386Y-99965890D01*
X153260420Y-99840951D01*
X153259715Y-99840591D01*
X153251654Y-99836485D01*
X153200859Y-99788512D01*
X153184063Y-99720692D01*
X153206599Y-99654556D01*
X153251654Y-99615515D01*
X153260416Y-99611051D01*
X153282389Y-99595086D01*
X153432386Y-99486109D01*
X153432388Y-99486106D01*
X153432392Y-99486104D01*
X153582704Y-99335792D01*
X153582706Y-99335788D01*
X153582709Y-99335786D01*
X153707648Y-99163820D01*
X153707647Y-99163820D01*
X153707651Y-99163816D01*
X153804157Y-98974412D01*
X153869846Y-98772243D01*
X153903100Y-98562287D01*
X153903100Y-98349713D01*
X153869846Y-98139757D01*
X153804157Y-97937588D01*
X153707651Y-97748184D01*
X153707649Y-97748181D01*
X153707648Y-97748179D01*
X153582709Y-97576213D01*
X153432386Y-97425890D01*
X153260420Y-97300951D01*
X153259715Y-97300591D01*
X153251654Y-97296485D01*
X153200859Y-97248512D01*
X153184063Y-97180692D01*
X153206599Y-97114556D01*
X153251654Y-97075515D01*
X153260416Y-97071051D01*
X153282389Y-97055086D01*
X153432386Y-96946109D01*
X153432388Y-96946106D01*
X153432392Y-96946104D01*
X153582704Y-96795792D01*
X153582706Y-96795788D01*
X153582709Y-96795786D01*
X153707648Y-96623820D01*
X153707647Y-96623820D01*
X153707651Y-96623816D01*
X153804157Y-96434412D01*
X153869846Y-96232243D01*
X153903100Y-96022287D01*
X153903100Y-95809713D01*
X153869846Y-95599757D01*
X153804157Y-95397588D01*
X153707651Y-95208184D01*
X153707649Y-95208181D01*
X153707648Y-95208179D01*
X153582709Y-95036213D01*
X153432386Y-94885890D01*
X153260420Y-94760951D01*
X153259715Y-94760591D01*
X153251654Y-94756485D01*
X153200859Y-94708512D01*
X153184063Y-94640692D01*
X153206599Y-94574556D01*
X153251654Y-94535515D01*
X153260416Y-94531051D01*
X153282389Y-94515086D01*
X153432386Y-94406109D01*
X153432388Y-94406106D01*
X153432392Y-94406104D01*
X153582704Y-94255792D01*
X153582706Y-94255788D01*
X153582709Y-94255786D01*
X153707648Y-94083820D01*
X153707647Y-94083820D01*
X153707651Y-94083816D01*
X153804157Y-93894412D01*
X153869846Y-93692243D01*
X153903100Y-93482287D01*
X153903100Y-93269713D01*
X153869846Y-93059757D01*
X153804157Y-92857588D01*
X153707651Y-92668184D01*
X153707649Y-92668181D01*
X153707648Y-92668179D01*
X153582709Y-92496213D01*
X153432386Y-92345890D01*
X153260420Y-92220951D01*
X153259715Y-92220591D01*
X153251654Y-92216485D01*
X153200859Y-92168512D01*
X153184063Y-92100692D01*
X153206599Y-92034556D01*
X153251654Y-91995515D01*
X153260416Y-91991051D01*
X153303675Y-91959622D01*
X153432386Y-91866109D01*
X153432388Y-91866106D01*
X153432392Y-91866104D01*
X153582704Y-91715792D01*
X153582706Y-91715788D01*
X153582709Y-91715786D01*
X153707648Y-91543820D01*
X153707647Y-91543820D01*
X153707651Y-91543816D01*
X153804157Y-91354412D01*
X153869846Y-91152243D01*
X153903100Y-90942287D01*
X153903100Y-90729713D01*
X153869846Y-90519757D01*
X153804157Y-90317588D01*
X153707651Y-90128184D01*
X153707649Y-90128181D01*
X153707648Y-90128179D01*
X153582709Y-89956213D01*
X153432386Y-89805890D01*
X153260420Y-89680951D01*
X153259715Y-89680591D01*
X153251654Y-89676485D01*
X153200859Y-89628512D01*
X153184063Y-89560692D01*
X153206599Y-89494556D01*
X153251654Y-89455515D01*
X153260416Y-89451051D01*
X153352450Y-89384185D01*
X153432386Y-89326109D01*
X153432388Y-89326106D01*
X153432392Y-89326104D01*
X153582704Y-89175792D01*
X153582706Y-89175788D01*
X153582709Y-89175786D01*
X153707648Y-89003820D01*
X153707647Y-89003820D01*
X153707651Y-89003816D01*
X153804157Y-88814412D01*
X153869846Y-88612243D01*
X153903100Y-88402287D01*
X153903100Y-88189713D01*
X153869846Y-87979757D01*
X153804157Y-87777588D01*
X153707651Y-87588184D01*
X153707649Y-87588181D01*
X153707648Y-87588179D01*
X153582709Y-87416213D01*
X153432386Y-87265890D01*
X153260420Y-87140951D01*
X153259715Y-87140591D01*
X153251654Y-87136485D01*
X153200859Y-87088512D01*
X153184063Y-87020692D01*
X153206599Y-86954556D01*
X153251654Y-86915515D01*
X153260416Y-86911051D01*
X153282389Y-86895086D01*
X153432386Y-86786109D01*
X153432388Y-86786106D01*
X153432392Y-86786104D01*
X153582704Y-86635792D01*
X153582706Y-86635788D01*
X153582709Y-86635786D01*
X153706502Y-86465397D01*
X153707651Y-86463816D01*
X153804157Y-86274412D01*
X153869846Y-86072243D01*
X153903100Y-85862287D01*
X153903100Y-85649713D01*
X153869846Y-85439757D01*
X153804157Y-85237588D01*
X153707651Y-85048184D01*
X153707649Y-85048181D01*
X153707648Y-85048179D01*
X153582709Y-84876213D01*
X153432386Y-84725890D01*
X153260420Y-84600951D01*
X153259715Y-84600591D01*
X153251654Y-84596485D01*
X153200859Y-84548512D01*
X153184063Y-84480692D01*
X153206599Y-84414556D01*
X153251654Y-84375515D01*
X153260416Y-84371051D01*
X153282389Y-84355086D01*
X153432386Y-84246109D01*
X153432388Y-84246106D01*
X153432392Y-84246104D01*
X153582704Y-84095792D01*
X153582706Y-84095788D01*
X153582709Y-84095786D01*
X153707648Y-83923820D01*
X153707647Y-83923820D01*
X153707651Y-83923816D01*
X153804157Y-83734412D01*
X153869846Y-83532243D01*
X153903100Y-83322287D01*
X153903100Y-83109713D01*
X153869846Y-82899757D01*
X153804157Y-82697588D01*
X153707651Y-82508184D01*
X153707649Y-82508181D01*
X153707648Y-82508179D01*
X153582709Y-82336213D01*
X153432386Y-82185890D01*
X153260420Y-82060951D01*
X153259715Y-82060591D01*
X153251654Y-82056485D01*
X153200859Y-82008512D01*
X153184063Y-81940692D01*
X153206599Y-81874556D01*
X153251654Y-81835515D01*
X153260416Y-81831051D01*
X153282389Y-81815086D01*
X153432386Y-81706109D01*
X153432388Y-81706106D01*
X153432392Y-81706104D01*
X153582704Y-81555792D01*
X153582706Y-81555788D01*
X153582709Y-81555786D01*
X153707648Y-81383820D01*
X153707647Y-81383820D01*
X153707651Y-81383816D01*
X153804157Y-81194412D01*
X153869846Y-80992243D01*
X153903100Y-80782287D01*
X153903100Y-80569713D01*
X153869846Y-80359757D01*
X153804157Y-80157588D01*
X153707651Y-79968184D01*
X153707649Y-79968181D01*
X153707648Y-79968179D01*
X153582709Y-79796213D01*
X153432386Y-79645890D01*
X153260420Y-79520951D01*
X153259715Y-79520591D01*
X153251654Y-79516485D01*
X153200859Y-79468512D01*
X153184063Y-79400692D01*
X153206599Y-79334556D01*
X153251654Y-79295515D01*
X153260416Y-79291051D01*
X153282389Y-79275086D01*
X153432386Y-79166109D01*
X153432388Y-79166106D01*
X153432392Y-79166104D01*
X153582704Y-79015792D01*
X153582706Y-79015788D01*
X153582709Y-79015786D01*
X153706502Y-78845397D01*
X153707651Y-78843816D01*
X153804157Y-78654412D01*
X153869846Y-78452243D01*
X153903100Y-78242287D01*
X153903100Y-78029713D01*
X153869846Y-77819757D01*
X153804157Y-77617588D01*
X153707651Y-77428184D01*
X153707649Y-77428181D01*
X153707648Y-77428179D01*
X153582709Y-77256213D01*
X153432386Y-77105890D01*
X153260420Y-76980951D01*
X153259715Y-76980591D01*
X153251654Y-76976485D01*
X153200859Y-76928512D01*
X153184063Y-76860692D01*
X153206599Y-76794556D01*
X153251654Y-76755515D01*
X153260416Y-76751051D01*
X153329225Y-76701059D01*
X153432386Y-76626109D01*
X153432388Y-76626106D01*
X153432392Y-76626104D01*
X153582704Y-76475792D01*
X153582706Y-76475788D01*
X153582709Y-76475786D01*
X153707648Y-76303820D01*
X153707650Y-76303817D01*
X153707651Y-76303816D01*
X153804157Y-76114412D01*
X153869846Y-75912243D01*
X153903100Y-75702287D01*
X153903100Y-75489713D01*
X153869846Y-75279757D01*
X153804157Y-75077588D01*
X153707651Y-74888184D01*
X153707649Y-74888181D01*
X153707648Y-74888179D01*
X153582709Y-74716213D01*
X153469169Y-74602673D01*
X153435684Y-74541350D01*
X153440668Y-74471658D01*
X153482540Y-74415725D01*
X153513515Y-74398810D01*
X153644931Y-74349796D01*
X153760146Y-74263546D01*
X153846396Y-74148331D01*
X153896691Y-74013483D01*
X153903100Y-73953873D01*
X153903099Y-72158128D01*
X153896691Y-72098517D01*
X153846396Y-71963669D01*
X153846395Y-71963668D01*
X153846393Y-71963664D01*
X153760147Y-71848455D01*
X153760144Y-71848452D01*
X153644935Y-71762206D01*
X153637146Y-71757953D01*
X153638724Y-71755061D01*
X153595642Y-71722811D01*
X153571225Y-71657347D01*
X153586076Y-71589074D01*
X153635481Y-71539668D01*
X153694909Y-71524500D01*
X166675691Y-71524500D01*
X166742730Y-71544185D01*
X166788485Y-71596989D01*
X166798429Y-71666147D01*
X166769404Y-71729703D01*
X166732151Y-71755567D01*
X166733454Y-71757953D01*
X166725664Y-71762206D01*
X166610455Y-71848452D01*
X166610452Y-71848455D01*
X166524206Y-71963664D01*
X166524202Y-71963671D01*
X166473908Y-72098517D01*
X166467501Y-72158116D01*
X166467501Y-72158123D01*
X166467500Y-72158135D01*
X166467500Y-73953870D01*
X166467501Y-73953876D01*
X166473908Y-74013483D01*
X166524202Y-74148328D01*
X166524206Y-74148335D01*
X166610452Y-74263544D01*
X166610455Y-74263547D01*
X166725664Y-74349793D01*
X166725671Y-74349797D01*
X166770618Y-74366561D01*
X166860517Y-74400091D01*
X166920127Y-74406500D01*
X166930685Y-74406499D01*
X166997723Y-74426179D01*
X167018372Y-74442818D01*
X167688591Y-75113037D01*
X167625007Y-75130075D01*
X167510993Y-75195901D01*
X167417901Y-75288993D01*
X167352075Y-75403007D01*
X167335037Y-75466591D01*
X166702728Y-74834282D01*
X166702727Y-74834282D01*
X166663380Y-74888439D01*
X166566904Y-75077782D01*
X166501242Y-75279869D01*
X166501242Y-75279872D01*
X166468000Y-75489753D01*
X166468000Y-75702246D01*
X166501242Y-75912127D01*
X166501242Y-75912130D01*
X166566904Y-76114217D01*
X166663375Y-76303550D01*
X166702728Y-76357716D01*
X167335037Y-75725408D01*
X167352075Y-75788993D01*
X167417901Y-75903007D01*
X167510993Y-75996099D01*
X167625007Y-76061925D01*
X167688590Y-76078962D01*
X167056282Y-76711269D01*
X167056282Y-76711270D01*
X167110452Y-76750626D01*
X167110451Y-76750626D01*
X167119495Y-76755234D01*
X167170292Y-76803208D01*
X167187087Y-76871029D01*
X167164550Y-76937164D01*
X167119499Y-76976202D01*
X167110182Y-76980949D01*
X166938213Y-77105890D01*
X166787890Y-77256213D01*
X166662951Y-77428179D01*
X166566444Y-77617585D01*
X166500753Y-77819760D01*
X166487649Y-77902498D01*
X166467500Y-78029713D01*
X166467500Y-78242287D01*
X166500754Y-78452243D01*
X166563803Y-78646288D01*
X166566444Y-78654414D01*
X166662951Y-78843820D01*
X166787890Y-79015786D01*
X166938213Y-79166109D01*
X167110182Y-79291050D01*
X167118946Y-79295516D01*
X167169742Y-79343491D01*
X167186536Y-79411312D01*
X167163998Y-79477447D01*
X167118946Y-79516484D01*
X167110182Y-79520949D01*
X166938213Y-79645890D01*
X166787890Y-79796213D01*
X166662951Y-79968179D01*
X166566444Y-80157585D01*
X166500753Y-80359760D01*
X166467500Y-80569713D01*
X166467500Y-80782287D01*
X166500754Y-80992243D01*
X166555843Y-81161790D01*
X166566444Y-81194414D01*
X166662951Y-81383820D01*
X166787890Y-81555786D01*
X166938213Y-81706109D01*
X167110182Y-81831050D01*
X167118946Y-81835516D01*
X167169742Y-81883491D01*
X167186536Y-81951312D01*
X167163998Y-82017447D01*
X167118946Y-82056484D01*
X167110182Y-82060949D01*
X166938213Y-82185890D01*
X166787890Y-82336213D01*
X166662951Y-82508179D01*
X166566444Y-82697585D01*
X166500753Y-82899760D01*
X166467500Y-83109713D01*
X166467500Y-83322286D01*
X166498196Y-83516097D01*
X166500754Y-83532243D01*
X166518940Y-83588215D01*
X166566444Y-83734414D01*
X166662951Y-83923820D01*
X166787890Y-84095786D01*
X166938213Y-84246109D01*
X167110182Y-84371050D01*
X167118946Y-84375516D01*
X167169742Y-84423491D01*
X167186536Y-84491312D01*
X167163998Y-84557447D01*
X167118946Y-84596484D01*
X167110182Y-84600949D01*
X166938213Y-84725890D01*
X166787890Y-84876213D01*
X166662951Y-85048179D01*
X166566444Y-85237585D01*
X166500753Y-85439760D01*
X166487649Y-85522498D01*
X166467500Y-85649713D01*
X166467500Y-85862287D01*
X166500754Y-86072243D01*
X166563803Y-86266288D01*
X166566444Y-86274414D01*
X166662951Y-86463820D01*
X166787890Y-86635786D01*
X166938213Y-86786109D01*
X167110182Y-86911050D01*
X167118946Y-86915516D01*
X167169742Y-86963491D01*
X167186536Y-87031312D01*
X167163998Y-87097447D01*
X167118946Y-87136484D01*
X167110182Y-87140949D01*
X166938213Y-87265890D01*
X166787890Y-87416213D01*
X166662951Y-87588179D01*
X166566444Y-87777585D01*
X166500753Y-87979760D01*
X166467500Y-88189713D01*
X166467500Y-88402286D01*
X166500753Y-88612239D01*
X166566444Y-88814414D01*
X166662951Y-89003820D01*
X166787890Y-89175786D01*
X166938213Y-89326109D01*
X167110182Y-89451050D01*
X167118946Y-89455516D01*
X167169742Y-89503491D01*
X167186536Y-89571312D01*
X167163998Y-89637447D01*
X167118946Y-89676484D01*
X167110182Y-89680949D01*
X166938213Y-89805890D01*
X166787890Y-89956213D01*
X166662951Y-90128179D01*
X166566444Y-90317585D01*
X166500753Y-90519760D01*
X166467500Y-90729713D01*
X166467500Y-90942286D01*
X166495584Y-91119606D01*
X166500754Y-91152243D01*
X166553970Y-91316025D01*
X166566444Y-91354414D01*
X166662951Y-91543820D01*
X166787890Y-91715786D01*
X166938213Y-91866109D01*
X167110182Y-91991050D01*
X167118946Y-91995516D01*
X167169742Y-92043491D01*
X167186536Y-92111312D01*
X167163998Y-92177447D01*
X167118946Y-92216484D01*
X167110182Y-92220949D01*
X166938213Y-92345890D01*
X166787890Y-92496213D01*
X166662951Y-92668179D01*
X166566444Y-92857585D01*
X166500753Y-93059760D01*
X166467500Y-93269713D01*
X166467500Y-93482287D01*
X166500754Y-93692243D01*
X166552430Y-93851286D01*
X166566444Y-93894414D01*
X166662951Y-94083820D01*
X166787890Y-94255786D01*
X166938213Y-94406109D01*
X167110182Y-94531050D01*
X167118946Y-94535516D01*
X167169742Y-94583491D01*
X167186536Y-94651312D01*
X167163998Y-94717447D01*
X167118946Y-94756484D01*
X167110182Y-94760949D01*
X166938213Y-94885890D01*
X166787890Y-95036213D01*
X166662951Y-95208179D01*
X166566444Y-95397585D01*
X166500753Y-95599760D01*
X166467500Y-95809713D01*
X166467500Y-96022287D01*
X166468940Y-96031380D01*
X166500163Y-96228517D01*
X166500754Y-96232243D01*
X166552430Y-96391286D01*
X166566444Y-96434414D01*
X166662951Y-96623820D01*
X166787890Y-96795786D01*
X166938213Y-96946109D01*
X167110182Y-97071050D01*
X167118946Y-97075516D01*
X167169742Y-97123491D01*
X167186536Y-97191312D01*
X167163998Y-97257447D01*
X167118946Y-97296484D01*
X167110182Y-97300949D01*
X166938213Y-97425890D01*
X166787890Y-97576213D01*
X166662951Y-97748179D01*
X166566444Y-97937585D01*
X166500753Y-98139760D01*
X166467500Y-98349713D01*
X166467500Y-98562286D01*
X166498306Y-98756791D01*
X166500754Y-98772243D01*
X166558477Y-98949896D01*
X166566444Y-98974414D01*
X166662951Y-99163820D01*
X166787890Y-99335786D01*
X166938213Y-99486109D01*
X167110182Y-99611050D01*
X167118946Y-99615516D01*
X167169742Y-99663491D01*
X167186536Y-99731312D01*
X167163998Y-99797447D01*
X167118946Y-99836484D01*
X167110182Y-99840949D01*
X166938213Y-99965890D01*
X166787890Y-100116213D01*
X166662951Y-100288179D01*
X166566444Y-100477585D01*
X166500753Y-100679760D01*
X166474231Y-100847213D01*
X166467500Y-100889713D01*
X166467500Y-101102287D01*
X166469084Y-101112286D01*
X166498378Y-101297246D01*
X166500754Y-101312243D01*
X166558477Y-101489896D01*
X166566444Y-101514414D01*
X166662951Y-101703820D01*
X166787890Y-101875786D01*
X166938213Y-102026109D01*
X167110182Y-102151050D01*
X167118946Y-102155516D01*
X167169742Y-102203491D01*
X167186536Y-102271312D01*
X167163998Y-102337447D01*
X167118946Y-102376484D01*
X167110182Y-102380949D01*
X166938213Y-102505890D01*
X166787890Y-102656213D01*
X166662951Y-102828179D01*
X166566444Y-103017585D01*
X166500753Y-103219760D01*
X166489277Y-103292217D01*
X166467500Y-103429713D01*
X166467500Y-103642287D01*
X166468090Y-103646011D01*
X166498378Y-103837246D01*
X166500754Y-103852243D01*
X166563803Y-104046288D01*
X166566444Y-104054414D01*
X166662951Y-104243820D01*
X166787890Y-104415786D01*
X166938213Y-104566109D01*
X167110182Y-104691050D01*
X167118946Y-104695516D01*
X167169742Y-104743491D01*
X167186536Y-104811312D01*
X167163998Y-104877447D01*
X167118946Y-104916484D01*
X167110182Y-104920949D01*
X166938213Y-105045890D01*
X166787890Y-105196213D01*
X166662951Y-105368179D01*
X166566444Y-105557585D01*
X166500753Y-105759760D01*
X166472873Y-105935789D01*
X166467500Y-105969713D01*
X166467500Y-106182287D01*
X166500754Y-106392243D01*
X166561335Y-106578692D01*
X166566444Y-106594414D01*
X166662951Y-106783820D01*
X166787890Y-106955786D01*
X166938213Y-107106109D01*
X167110182Y-107231050D01*
X167118946Y-107235516D01*
X167169742Y-107283491D01*
X167186536Y-107351312D01*
X167163998Y-107417447D01*
X167118946Y-107456484D01*
X167110182Y-107460949D01*
X166938213Y-107585890D01*
X166787890Y-107736213D01*
X166662951Y-107908179D01*
X166566444Y-108097585D01*
X166500753Y-108299760D01*
X166468097Y-108505943D01*
X166467500Y-108509713D01*
X166467500Y-108722287D01*
X166500754Y-108932243D01*
X166561335Y-109118692D01*
X166566444Y-109134414D01*
X166662951Y-109323820D01*
X166787890Y-109495786D01*
X166938213Y-109646109D01*
X167110182Y-109771050D01*
X167118946Y-109775516D01*
X167169742Y-109823491D01*
X167186536Y-109891312D01*
X167163998Y-109957447D01*
X167118946Y-109996484D01*
X167110182Y-110000949D01*
X166938213Y-110125890D01*
X166787890Y-110276213D01*
X166662951Y-110448179D01*
X166566444Y-110637585D01*
X166500753Y-110839760D01*
X166489246Y-110912412D01*
X166467500Y-111049713D01*
X166467500Y-111262287D01*
X166500754Y-111472243D01*
X166564875Y-111669587D01*
X166566444Y-111674414D01*
X166662951Y-111863820D01*
X166787890Y-112035786D01*
X166938213Y-112186109D01*
X167110182Y-112311050D01*
X167118946Y-112315516D01*
X167169742Y-112363491D01*
X167186536Y-112431312D01*
X167163998Y-112497447D01*
X167118946Y-112536484D01*
X167110182Y-112540949D01*
X166938213Y-112665890D01*
X166787890Y-112816213D01*
X166662951Y-112988179D01*
X166566444Y-113177585D01*
X166500753Y-113379760D01*
X166467500Y-113589713D01*
X166467500Y-113802286D01*
X166490895Y-113950000D01*
X166500754Y-114012243D01*
X166555327Y-114180202D01*
X166566444Y-114214414D01*
X166662951Y-114403820D01*
X166787890Y-114575786D01*
X166938213Y-114726109D01*
X167110182Y-114851050D01*
X167118946Y-114855516D01*
X167169742Y-114903491D01*
X167186536Y-114971312D01*
X167163998Y-115037447D01*
X167118946Y-115076484D01*
X167110182Y-115080949D01*
X166938213Y-115205890D01*
X166787890Y-115356213D01*
X166662951Y-115528179D01*
X166566444Y-115717585D01*
X166500753Y-115919760D01*
X166467500Y-116129713D01*
X166467500Y-116342287D01*
X166500754Y-116552243D01*
X166552430Y-116711286D01*
X166566444Y-116754414D01*
X166662951Y-116943820D01*
X166787890Y-117115786D01*
X166938213Y-117266109D01*
X167110182Y-117391050D01*
X167118946Y-117395516D01*
X167169742Y-117443491D01*
X167186536Y-117511312D01*
X167163998Y-117577447D01*
X167118946Y-117616484D01*
X167110182Y-117620949D01*
X166938213Y-117745890D01*
X166787890Y-117896213D01*
X166662951Y-118068179D01*
X166566444Y-118257585D01*
X166500753Y-118459760D01*
X166467500Y-118669713D01*
X166467500Y-118882286D01*
X166500735Y-119092127D01*
X166500754Y-119092243D01*
X166564356Y-119287990D01*
X166566444Y-119294414D01*
X166662951Y-119483820D01*
X166787890Y-119655786D01*
X166938213Y-119806109D01*
X167110182Y-119931050D01*
X167118946Y-119935516D01*
X167169742Y-119983491D01*
X167186536Y-120051312D01*
X167163998Y-120117447D01*
X167118946Y-120156484D01*
X167110182Y-120160949D01*
X166938213Y-120285890D01*
X166787890Y-120436213D01*
X166662951Y-120608179D01*
X166566444Y-120797585D01*
X166500753Y-120999760D01*
X166472622Y-121177375D01*
X166467500Y-121209713D01*
X166467500Y-121422287D01*
X166469377Y-121434135D01*
X166499519Y-121624449D01*
X166500754Y-121632243D01*
X166565659Y-121832000D01*
X166566444Y-121834414D01*
X166662951Y-122023820D01*
X166787890Y-122195786D01*
X166938213Y-122346109D01*
X167110179Y-122471048D01*
X167110181Y-122471049D01*
X167110184Y-122471051D01*
X167299588Y-122567557D01*
X167501757Y-122633246D01*
X167711713Y-122666500D01*
X167711714Y-122666500D01*
X167924286Y-122666500D01*
X167924287Y-122666500D01*
X168134243Y-122633246D01*
X168336412Y-122567557D01*
X168525816Y-122471051D01*
X168570969Y-122438246D01*
X168697786Y-122346109D01*
X168697788Y-122346106D01*
X168697792Y-122346104D01*
X168848104Y-122195792D01*
X168848106Y-122195788D01*
X168848109Y-122195786D01*
X168973048Y-122023820D01*
X168973047Y-122023820D01*
X168973051Y-122023816D01*
X169069557Y-121834412D01*
X169135246Y-121632243D01*
X169168500Y-121422287D01*
X169168500Y-121209713D01*
X169135246Y-120999757D01*
X169069557Y-120797588D01*
X168973051Y-120608184D01*
X168973049Y-120608181D01*
X168973048Y-120608179D01*
X168848109Y-120436213D01*
X168697786Y-120285890D01*
X168525820Y-120160951D01*
X168525115Y-120160591D01*
X168517054Y-120156485D01*
X168466259Y-120108512D01*
X168449463Y-120040692D01*
X168471999Y-119974556D01*
X168517054Y-119935515D01*
X168525816Y-119931051D01*
X168580572Y-119891269D01*
X168697786Y-119806109D01*
X168697788Y-119806106D01*
X168697792Y-119806104D01*
X168848104Y-119655792D01*
X168848106Y-119655788D01*
X168848109Y-119655786D01*
X168973048Y-119483820D01*
X168973047Y-119483820D01*
X168973051Y-119483816D01*
X169069557Y-119294412D01*
X169135246Y-119092243D01*
X169168500Y-118882287D01*
X169168500Y-118669713D01*
X169135246Y-118459757D01*
X169069557Y-118257588D01*
X168973051Y-118068184D01*
X168973049Y-118068181D01*
X168973048Y-118068179D01*
X168848109Y-117896213D01*
X168697786Y-117745890D01*
X168525820Y-117620951D01*
X168517600Y-117616763D01*
X168517054Y-117616485D01*
X168466259Y-117568512D01*
X168449463Y-117500692D01*
X168471999Y-117434556D01*
X168517054Y-117395515D01*
X168525816Y-117391051D01*
X168547789Y-117375086D01*
X168697786Y-117266109D01*
X168697788Y-117266106D01*
X168697792Y-117266104D01*
X168848104Y-117115792D01*
X168848106Y-117115788D01*
X168848109Y-117115786D01*
X168973048Y-116943820D01*
X168973047Y-116943820D01*
X168973051Y-116943816D01*
X169069557Y-116754412D01*
X169135246Y-116552243D01*
X169168500Y-116342287D01*
X169168500Y-116129713D01*
X169135246Y-115919757D01*
X169069557Y-115717588D01*
X168973051Y-115528184D01*
X168973049Y-115528181D01*
X168973048Y-115528179D01*
X168848109Y-115356213D01*
X168697786Y-115205890D01*
X168525820Y-115080951D01*
X168525115Y-115080591D01*
X168517054Y-115076485D01*
X168466259Y-115028512D01*
X168449463Y-114960692D01*
X168471999Y-114894556D01*
X168517054Y-114855515D01*
X168525816Y-114851051D01*
X168599918Y-114797213D01*
X168697786Y-114726109D01*
X168697788Y-114726106D01*
X168697792Y-114726104D01*
X168848104Y-114575792D01*
X168848106Y-114575788D01*
X168848109Y-114575786D01*
X168973048Y-114403820D01*
X168973047Y-114403820D01*
X168973051Y-114403816D01*
X169069557Y-114214412D01*
X169135246Y-114012243D01*
X169168500Y-113802287D01*
X169168500Y-113589713D01*
X169135246Y-113379757D01*
X169069557Y-113177588D01*
X168973051Y-112988184D01*
X168973049Y-112988181D01*
X168973048Y-112988179D01*
X168848109Y-112816213D01*
X168697786Y-112665890D01*
X168525820Y-112540951D01*
X168525115Y-112540591D01*
X168517054Y-112536485D01*
X168466259Y-112488512D01*
X168449463Y-112420692D01*
X168471999Y-112354556D01*
X168517054Y-112315515D01*
X168525816Y-112311051D01*
X168547789Y-112295086D01*
X168697786Y-112186109D01*
X168697788Y-112186106D01*
X168697792Y-112186104D01*
X168848104Y-112035792D01*
X168848106Y-112035788D01*
X168848109Y-112035786D01*
X168973048Y-111863820D01*
X168973047Y-111863820D01*
X168973051Y-111863816D01*
X169069557Y-111674412D01*
X169135246Y-111472243D01*
X169168500Y-111262287D01*
X169168500Y-111049713D01*
X169135246Y-110839757D01*
X169069557Y-110637588D01*
X168973051Y-110448184D01*
X168973049Y-110448181D01*
X168973048Y-110448179D01*
X168848109Y-110276213D01*
X168697786Y-110125890D01*
X168525820Y-110000951D01*
X168525115Y-110000591D01*
X168517054Y-109996485D01*
X168466259Y-109948512D01*
X168449463Y-109880692D01*
X168471999Y-109814556D01*
X168517054Y-109775515D01*
X168525816Y-109771051D01*
X168547789Y-109755086D01*
X168697786Y-109646109D01*
X168697788Y-109646106D01*
X168697792Y-109646104D01*
X168848104Y-109495792D01*
X168848106Y-109495788D01*
X168848109Y-109495786D01*
X168973048Y-109323820D01*
X168973047Y-109323820D01*
X168973051Y-109323816D01*
X169069557Y-109134412D01*
X169135246Y-108932243D01*
X169168500Y-108722287D01*
X169168500Y-108509713D01*
X169135246Y-108299757D01*
X169069557Y-108097588D01*
X168973051Y-107908184D01*
X168973049Y-107908181D01*
X168973048Y-107908179D01*
X168848109Y-107736213D01*
X168697786Y-107585890D01*
X168525820Y-107460951D01*
X168525115Y-107460591D01*
X168517054Y-107456485D01*
X168466259Y-107408512D01*
X168449463Y-107340692D01*
X168471999Y-107274556D01*
X168517054Y-107235515D01*
X168525816Y-107231051D01*
X168642625Y-107146185D01*
X168697786Y-107106109D01*
X168697788Y-107106106D01*
X168697792Y-107106104D01*
X168848104Y-106955792D01*
X168848106Y-106955788D01*
X168848109Y-106955786D01*
X168973048Y-106783820D01*
X168973047Y-106783820D01*
X168973051Y-106783816D01*
X169069557Y-106594412D01*
X169135246Y-106392243D01*
X169168500Y-106182287D01*
X169168500Y-105969713D01*
X169135246Y-105759757D01*
X169069557Y-105557588D01*
X168973051Y-105368184D01*
X168973049Y-105368181D01*
X168973048Y-105368179D01*
X168848109Y-105196213D01*
X168697786Y-105045890D01*
X168525820Y-104920951D01*
X168525115Y-104920591D01*
X168517054Y-104916485D01*
X168466259Y-104868512D01*
X168449463Y-104800692D01*
X168471999Y-104734556D01*
X168517054Y-104695515D01*
X168525816Y-104691051D01*
X168547789Y-104675086D01*
X168697786Y-104566109D01*
X168697788Y-104566106D01*
X168697792Y-104566104D01*
X168848104Y-104415792D01*
X168848106Y-104415788D01*
X168848109Y-104415786D01*
X168971902Y-104245397D01*
X168973051Y-104243816D01*
X169069557Y-104054412D01*
X169135246Y-103852243D01*
X169168500Y-103642287D01*
X169168500Y-103429713D01*
X169135246Y-103219757D01*
X169069557Y-103017588D01*
X168973051Y-102828184D01*
X168973049Y-102828181D01*
X168973048Y-102828179D01*
X168848109Y-102656213D01*
X168697786Y-102505890D01*
X168525820Y-102380951D01*
X168525115Y-102380591D01*
X168517054Y-102376485D01*
X168466259Y-102328512D01*
X168449463Y-102260692D01*
X168471999Y-102194556D01*
X168517054Y-102155515D01*
X168525816Y-102151051D01*
X168596082Y-102100000D01*
X168697786Y-102026109D01*
X168697788Y-102026106D01*
X168697792Y-102026104D01*
X168848104Y-101875792D01*
X168848106Y-101875788D01*
X168848109Y-101875786D01*
X168973048Y-101703820D01*
X168973047Y-101703820D01*
X168973051Y-101703816D01*
X169069557Y-101514412D01*
X169135246Y-101312243D01*
X169168500Y-101102287D01*
X169168500Y-100889713D01*
X169135246Y-100679757D01*
X169069557Y-100477588D01*
X168973051Y-100288184D01*
X168973049Y-100288181D01*
X168973048Y-100288179D01*
X168848109Y-100116213D01*
X168697786Y-99965890D01*
X168525820Y-99840951D01*
X168525115Y-99840591D01*
X168517054Y-99836485D01*
X168466259Y-99788512D01*
X168449463Y-99720692D01*
X168471999Y-99654556D01*
X168517054Y-99615515D01*
X168525816Y-99611051D01*
X168547789Y-99595086D01*
X168697786Y-99486109D01*
X168697788Y-99486106D01*
X168697792Y-99486104D01*
X168848104Y-99335792D01*
X168848106Y-99335788D01*
X168848109Y-99335786D01*
X168973048Y-99163820D01*
X168973047Y-99163820D01*
X168973051Y-99163816D01*
X169069557Y-98974412D01*
X169135246Y-98772243D01*
X169168500Y-98562287D01*
X169168500Y-98349713D01*
X169135246Y-98139757D01*
X169069557Y-97937588D01*
X168973051Y-97748184D01*
X168973049Y-97748181D01*
X168973048Y-97748179D01*
X168848109Y-97576213D01*
X168697786Y-97425890D01*
X168525820Y-97300951D01*
X168525115Y-97300591D01*
X168517054Y-97296485D01*
X168466259Y-97248512D01*
X168449463Y-97180692D01*
X168471999Y-97114556D01*
X168517054Y-97075515D01*
X168525816Y-97071051D01*
X168547789Y-97055086D01*
X168697786Y-96946109D01*
X168697788Y-96946106D01*
X168697792Y-96946104D01*
X168848104Y-96795792D01*
X168848106Y-96795788D01*
X168848109Y-96795786D01*
X168973048Y-96623820D01*
X168973047Y-96623820D01*
X168973051Y-96623816D01*
X169069557Y-96434412D01*
X169135246Y-96232243D01*
X169168500Y-96022287D01*
X169168500Y-95809713D01*
X169135246Y-95599757D01*
X169069557Y-95397588D01*
X168973051Y-95208184D01*
X168973049Y-95208181D01*
X168973048Y-95208179D01*
X168848109Y-95036213D01*
X168697786Y-94885890D01*
X168525820Y-94760951D01*
X168525115Y-94760591D01*
X168517054Y-94756485D01*
X168466259Y-94708512D01*
X168449463Y-94640692D01*
X168471999Y-94574556D01*
X168517054Y-94535515D01*
X168525816Y-94531051D01*
X168547789Y-94515086D01*
X168697786Y-94406109D01*
X168697788Y-94406106D01*
X168697792Y-94406104D01*
X168848104Y-94255792D01*
X168848106Y-94255788D01*
X168848109Y-94255786D01*
X168973048Y-94083820D01*
X168973047Y-94083820D01*
X168973051Y-94083816D01*
X169069557Y-93894412D01*
X169135246Y-93692243D01*
X169168500Y-93482287D01*
X169168500Y-93269713D01*
X169135246Y-93059757D01*
X169069557Y-92857588D01*
X168973051Y-92668184D01*
X168973049Y-92668181D01*
X168973048Y-92668179D01*
X168848109Y-92496213D01*
X168697786Y-92345890D01*
X168525820Y-92220951D01*
X168525115Y-92220591D01*
X168517054Y-92216485D01*
X168466259Y-92168512D01*
X168449463Y-92100692D01*
X168471999Y-92034556D01*
X168517054Y-91995515D01*
X168525816Y-91991051D01*
X168569075Y-91959622D01*
X168697786Y-91866109D01*
X168697788Y-91866106D01*
X168697792Y-91866104D01*
X168848104Y-91715792D01*
X168848106Y-91715788D01*
X168848109Y-91715786D01*
X168973048Y-91543820D01*
X168973047Y-91543820D01*
X168973051Y-91543816D01*
X169069557Y-91354412D01*
X169135246Y-91152243D01*
X169168500Y-90942287D01*
X169168500Y-90729713D01*
X169135246Y-90519757D01*
X169069557Y-90317588D01*
X168973051Y-90128184D01*
X168973049Y-90128181D01*
X168973048Y-90128179D01*
X168848109Y-89956213D01*
X168697786Y-89805890D01*
X168525820Y-89680951D01*
X168525115Y-89680591D01*
X168517054Y-89676485D01*
X168466259Y-89628512D01*
X168449463Y-89560692D01*
X168471999Y-89494556D01*
X168517054Y-89455515D01*
X168525816Y-89451051D01*
X168617850Y-89384185D01*
X168697786Y-89326109D01*
X168697788Y-89326106D01*
X168697792Y-89326104D01*
X168848104Y-89175792D01*
X168848106Y-89175788D01*
X168848109Y-89175786D01*
X168973048Y-89003820D01*
X168973047Y-89003820D01*
X168973051Y-89003816D01*
X169069557Y-88814412D01*
X169135246Y-88612243D01*
X169168500Y-88402287D01*
X169168500Y-88189713D01*
X169135246Y-87979757D01*
X169069557Y-87777588D01*
X168973051Y-87588184D01*
X168973049Y-87588181D01*
X168973048Y-87588179D01*
X168848109Y-87416213D01*
X168697786Y-87265890D01*
X168525820Y-87140951D01*
X168525115Y-87140591D01*
X168517054Y-87136485D01*
X168466259Y-87088512D01*
X168449463Y-87020692D01*
X168471999Y-86954556D01*
X168517054Y-86915515D01*
X168525816Y-86911051D01*
X168547789Y-86895086D01*
X168697786Y-86786109D01*
X168697788Y-86786106D01*
X168697792Y-86786104D01*
X168848104Y-86635792D01*
X168848106Y-86635788D01*
X168848109Y-86635786D01*
X168971902Y-86465397D01*
X168973051Y-86463816D01*
X169069557Y-86274412D01*
X169135246Y-86072243D01*
X169168500Y-85862287D01*
X169168500Y-85649713D01*
X169135246Y-85439757D01*
X169069557Y-85237588D01*
X168973051Y-85048184D01*
X168973049Y-85048181D01*
X168973048Y-85048179D01*
X168848109Y-84876213D01*
X168697786Y-84725890D01*
X168525820Y-84600951D01*
X168525115Y-84600591D01*
X168517054Y-84596485D01*
X168466259Y-84548512D01*
X168449463Y-84480692D01*
X168471999Y-84414556D01*
X168517054Y-84375515D01*
X168525816Y-84371051D01*
X168547789Y-84355086D01*
X168697786Y-84246109D01*
X168697788Y-84246106D01*
X168697792Y-84246104D01*
X168848104Y-84095792D01*
X168848106Y-84095788D01*
X168848109Y-84095786D01*
X168973048Y-83923820D01*
X168973047Y-83923820D01*
X168973051Y-83923816D01*
X169069557Y-83734412D01*
X169135246Y-83532243D01*
X169168500Y-83322287D01*
X169168500Y-83109713D01*
X169135246Y-82899757D01*
X169069557Y-82697588D01*
X168973051Y-82508184D01*
X168973049Y-82508181D01*
X168973048Y-82508179D01*
X168848109Y-82336213D01*
X168697786Y-82185890D01*
X168525820Y-82060951D01*
X168525115Y-82060591D01*
X168517054Y-82056485D01*
X168466259Y-82008512D01*
X168449463Y-81940692D01*
X168471999Y-81874556D01*
X168517054Y-81835515D01*
X168525816Y-81831051D01*
X168547789Y-81815086D01*
X168697786Y-81706109D01*
X168697788Y-81706106D01*
X168697792Y-81706104D01*
X168848104Y-81555792D01*
X168848106Y-81555788D01*
X168848109Y-81555786D01*
X168973048Y-81383820D01*
X168973047Y-81383820D01*
X168973051Y-81383816D01*
X169069557Y-81194412D01*
X169135246Y-80992243D01*
X169168500Y-80782287D01*
X169168500Y-80569713D01*
X169135246Y-80359757D01*
X169069557Y-80157588D01*
X168973051Y-79968184D01*
X168973049Y-79968181D01*
X168973048Y-79968179D01*
X168848109Y-79796213D01*
X168697786Y-79645890D01*
X168525820Y-79520951D01*
X168525115Y-79520591D01*
X168517054Y-79516485D01*
X168466259Y-79468512D01*
X168449463Y-79400692D01*
X168471999Y-79334556D01*
X168517054Y-79295515D01*
X168525816Y-79291051D01*
X168547789Y-79275086D01*
X168697786Y-79166109D01*
X168697788Y-79166106D01*
X168697792Y-79166104D01*
X168848104Y-79015792D01*
X168848106Y-79015788D01*
X168848109Y-79015786D01*
X168971902Y-78845397D01*
X168973051Y-78843816D01*
X169069557Y-78654412D01*
X169135246Y-78452243D01*
X169168500Y-78242287D01*
X169168500Y-78029713D01*
X169135246Y-77819757D01*
X169069557Y-77617588D01*
X168973051Y-77428184D01*
X168973049Y-77428181D01*
X168973048Y-77428179D01*
X168848109Y-77256213D01*
X168697786Y-77105890D01*
X168525817Y-76980949D01*
X168516504Y-76976204D01*
X168465707Y-76928230D01*
X168448912Y-76860409D01*
X168471449Y-76794274D01*
X168516507Y-76755232D01*
X168525555Y-76750622D01*
X168579716Y-76711270D01*
X168579717Y-76711270D01*
X167947408Y-76078962D01*
X168010993Y-76061925D01*
X168125007Y-75996099D01*
X168218099Y-75903007D01*
X168283925Y-75788993D01*
X168300962Y-75725408D01*
X168933270Y-76357717D01*
X168933270Y-76357716D01*
X168972622Y-76303554D01*
X169069095Y-76114217D01*
X169134757Y-75912130D01*
X169134757Y-75912127D01*
X169168000Y-75702246D01*
X169168000Y-75489753D01*
X169134757Y-75279872D01*
X169134757Y-75279869D01*
X169069095Y-75077782D01*
X168972624Y-74888449D01*
X168933270Y-74834282D01*
X168933269Y-74834282D01*
X168300962Y-75466590D01*
X168283925Y-75403007D01*
X168218099Y-75288993D01*
X168125007Y-75195901D01*
X168010993Y-75130075D01*
X167947409Y-75113037D01*
X168617627Y-74442818D01*
X168678950Y-74409333D01*
X168705307Y-74406499D01*
X168715872Y-74406499D01*
X168775483Y-74400091D01*
X168910331Y-74349796D01*
X169025546Y-74263546D01*
X169111796Y-74148331D01*
X169162091Y-74013483D01*
X169168500Y-73953873D01*
X169168499Y-72158128D01*
X169162091Y-72098517D01*
X169111796Y-71963669D01*
X169111795Y-71963668D01*
X169111793Y-71963664D01*
X169025547Y-71848455D01*
X169025544Y-71848452D01*
X168910335Y-71762206D01*
X168902546Y-71757953D01*
X168904124Y-71755061D01*
X168861042Y-71722811D01*
X168836625Y-71657347D01*
X168851476Y-71589074D01*
X168900881Y-71539668D01*
X168960309Y-71524500D01*
X178359691Y-71524500D01*
X178426730Y-71544185D01*
X178472485Y-71596989D01*
X178482429Y-71666147D01*
X178453404Y-71729703D01*
X178416151Y-71755567D01*
X178417454Y-71757953D01*
X178409664Y-71762206D01*
X178294455Y-71848452D01*
X178294452Y-71848455D01*
X178208206Y-71963664D01*
X178208202Y-71963671D01*
X178157908Y-72098517D01*
X178151501Y-72158116D01*
X178151501Y-72158123D01*
X178151500Y-72158135D01*
X178151500Y-73953870D01*
X178151501Y-73953876D01*
X178157908Y-74013483D01*
X178208202Y-74148328D01*
X178208206Y-74148335D01*
X178294452Y-74263544D01*
X178294455Y-74263547D01*
X178409664Y-74349793D01*
X178409671Y-74349797D01*
X178454618Y-74366561D01*
X178544517Y-74400091D01*
X178604127Y-74406500D01*
X178614685Y-74406499D01*
X178681723Y-74426179D01*
X178702372Y-74442818D01*
X179372591Y-75113037D01*
X179309007Y-75130075D01*
X179194993Y-75195901D01*
X179101901Y-75288993D01*
X179036075Y-75403007D01*
X179019037Y-75466591D01*
X178386728Y-74834282D01*
X178386727Y-74834282D01*
X178347380Y-74888439D01*
X178250904Y-75077782D01*
X178185242Y-75279869D01*
X178185242Y-75279872D01*
X178152000Y-75489753D01*
X178152000Y-75702246D01*
X178185242Y-75912127D01*
X178185242Y-75912130D01*
X178250904Y-76114217D01*
X178347375Y-76303550D01*
X178386728Y-76357716D01*
X179019037Y-75725408D01*
X179036075Y-75788993D01*
X179101901Y-75903007D01*
X179194993Y-75996099D01*
X179309007Y-76061925D01*
X179372590Y-76078962D01*
X178740282Y-76711269D01*
X178740282Y-76711270D01*
X178794452Y-76750626D01*
X178794451Y-76750626D01*
X178803495Y-76755234D01*
X178854292Y-76803208D01*
X178871087Y-76871029D01*
X178848550Y-76937164D01*
X178803499Y-76976202D01*
X178794182Y-76980949D01*
X178622213Y-77105890D01*
X178471890Y-77256213D01*
X178346951Y-77428179D01*
X178250444Y-77617585D01*
X178184753Y-77819760D01*
X178171649Y-77902498D01*
X178151500Y-78029713D01*
X178151500Y-78242287D01*
X178184754Y-78452243D01*
X178247803Y-78646288D01*
X178250444Y-78654414D01*
X178346951Y-78843820D01*
X178471890Y-79015786D01*
X178622213Y-79166109D01*
X178794182Y-79291050D01*
X178802946Y-79295516D01*
X178853742Y-79343491D01*
X178870536Y-79411312D01*
X178847998Y-79477447D01*
X178802946Y-79516484D01*
X178794182Y-79520949D01*
X178622213Y-79645890D01*
X178471890Y-79796213D01*
X178346951Y-79968179D01*
X178250444Y-80157585D01*
X178184753Y-80359760D01*
X178151500Y-80569713D01*
X178151500Y-80782287D01*
X178184754Y-80992243D01*
X178239843Y-81161790D01*
X178250444Y-81194414D01*
X178346951Y-81383820D01*
X178471890Y-81555786D01*
X178622213Y-81706109D01*
X178794182Y-81831050D01*
X178802946Y-81835516D01*
X178853742Y-81883491D01*
X178870536Y-81951312D01*
X178847998Y-82017447D01*
X178802946Y-82056484D01*
X178794182Y-82060949D01*
X178622213Y-82185890D01*
X178471890Y-82336213D01*
X178346951Y-82508179D01*
X178250444Y-82697585D01*
X178184753Y-82899760D01*
X178151500Y-83109713D01*
X178151500Y-83322286D01*
X178182196Y-83516097D01*
X178184754Y-83532243D01*
X178202940Y-83588215D01*
X178250444Y-83734414D01*
X178346951Y-83923820D01*
X178471890Y-84095786D01*
X178622213Y-84246109D01*
X178794182Y-84371050D01*
X178802946Y-84375516D01*
X178853742Y-84423491D01*
X178870536Y-84491312D01*
X178847998Y-84557447D01*
X178802946Y-84596484D01*
X178794182Y-84600949D01*
X178622213Y-84725890D01*
X178471890Y-84876213D01*
X178346951Y-85048179D01*
X178250444Y-85237585D01*
X178184753Y-85439760D01*
X178171649Y-85522498D01*
X178151500Y-85649713D01*
X178151500Y-85862287D01*
X178184754Y-86072243D01*
X178247803Y-86266288D01*
X178250444Y-86274414D01*
X178346951Y-86463820D01*
X178471890Y-86635786D01*
X178622213Y-86786109D01*
X178794182Y-86911050D01*
X178802946Y-86915516D01*
X178853742Y-86963491D01*
X178870536Y-87031312D01*
X178847998Y-87097447D01*
X178802946Y-87136484D01*
X178794182Y-87140949D01*
X178622213Y-87265890D01*
X178471890Y-87416213D01*
X178346951Y-87588179D01*
X178250444Y-87777585D01*
X178184753Y-87979760D01*
X178151500Y-88189713D01*
X178151500Y-88402286D01*
X178184753Y-88612239D01*
X178250444Y-88814414D01*
X178346951Y-89003820D01*
X178471890Y-89175786D01*
X178622213Y-89326109D01*
X178794182Y-89451050D01*
X178802946Y-89455516D01*
X178853742Y-89503491D01*
X178870536Y-89571312D01*
X178847998Y-89637447D01*
X178802946Y-89676484D01*
X178794182Y-89680949D01*
X178622213Y-89805890D01*
X178471890Y-89956213D01*
X178346951Y-90128179D01*
X178250444Y-90317585D01*
X178184753Y-90519760D01*
X178151500Y-90729713D01*
X178151500Y-90942286D01*
X178179584Y-91119606D01*
X178184754Y-91152243D01*
X178237970Y-91316025D01*
X178250444Y-91354414D01*
X178346951Y-91543820D01*
X178471890Y-91715786D01*
X178622213Y-91866109D01*
X178794182Y-91991050D01*
X178802946Y-91995516D01*
X178853742Y-92043491D01*
X178870536Y-92111312D01*
X178847998Y-92177447D01*
X178802946Y-92216484D01*
X178794182Y-92220949D01*
X178622213Y-92345890D01*
X178471890Y-92496213D01*
X178346951Y-92668179D01*
X178250444Y-92857585D01*
X178184753Y-93059760D01*
X178151500Y-93269713D01*
X178151500Y-93482287D01*
X178184754Y-93692243D01*
X178236430Y-93851286D01*
X178250444Y-93894414D01*
X178346951Y-94083820D01*
X178471890Y-94255786D01*
X178622213Y-94406109D01*
X178794182Y-94531050D01*
X178802946Y-94535516D01*
X178853742Y-94583491D01*
X178870536Y-94651312D01*
X178847998Y-94717447D01*
X178802946Y-94756484D01*
X178794182Y-94760949D01*
X178622213Y-94885890D01*
X178471890Y-95036213D01*
X178346951Y-95208179D01*
X178250444Y-95397585D01*
X178184753Y-95599760D01*
X178151500Y-95809713D01*
X178151500Y-96022287D01*
X178152940Y-96031380D01*
X178184163Y-96228517D01*
X178184754Y-96232243D01*
X178236430Y-96391286D01*
X178250444Y-96434414D01*
X178346951Y-96623820D01*
X178471890Y-96795786D01*
X178622213Y-96946109D01*
X178794182Y-97071050D01*
X178802946Y-97075516D01*
X178853742Y-97123491D01*
X178870536Y-97191312D01*
X178847998Y-97257447D01*
X178802946Y-97296484D01*
X178794182Y-97300949D01*
X178622213Y-97425890D01*
X178471890Y-97576213D01*
X178346951Y-97748179D01*
X178250444Y-97937585D01*
X178184753Y-98139760D01*
X178151500Y-98349713D01*
X178151500Y-98562286D01*
X178182306Y-98756791D01*
X178184754Y-98772243D01*
X178242477Y-98949896D01*
X178250444Y-98974414D01*
X178346951Y-99163820D01*
X178471890Y-99335786D01*
X178622213Y-99486109D01*
X178794182Y-99611050D01*
X178802946Y-99615516D01*
X178853742Y-99663491D01*
X178870536Y-99731312D01*
X178847998Y-99797447D01*
X178802946Y-99836484D01*
X178794182Y-99840949D01*
X178622213Y-99965890D01*
X178471890Y-100116213D01*
X178346951Y-100288179D01*
X178250444Y-100477585D01*
X178184753Y-100679760D01*
X178158231Y-100847213D01*
X178151500Y-100889713D01*
X178151500Y-101102287D01*
X178153084Y-101112286D01*
X178182378Y-101297246D01*
X178184754Y-101312243D01*
X178242477Y-101489896D01*
X178250444Y-101514414D01*
X178346951Y-101703820D01*
X178471890Y-101875786D01*
X178622213Y-102026109D01*
X178794182Y-102151050D01*
X178802946Y-102155516D01*
X178853742Y-102203491D01*
X178870536Y-102271312D01*
X178847998Y-102337447D01*
X178802946Y-102376484D01*
X178794182Y-102380949D01*
X178622213Y-102505890D01*
X178471890Y-102656213D01*
X178346951Y-102828179D01*
X178250444Y-103017585D01*
X178184753Y-103219760D01*
X178173277Y-103292217D01*
X178151500Y-103429713D01*
X178151500Y-103642287D01*
X178152090Y-103646011D01*
X178182378Y-103837246D01*
X178184754Y-103852243D01*
X178247803Y-104046288D01*
X178250444Y-104054414D01*
X178346951Y-104243820D01*
X178471890Y-104415786D01*
X178622213Y-104566109D01*
X178794182Y-104691050D01*
X178802946Y-104695516D01*
X178853742Y-104743491D01*
X178870536Y-104811312D01*
X178847998Y-104877447D01*
X178802946Y-104916484D01*
X178794182Y-104920949D01*
X178622213Y-105045890D01*
X178471890Y-105196213D01*
X178346951Y-105368179D01*
X178250444Y-105557585D01*
X178184753Y-105759760D01*
X178156873Y-105935789D01*
X178151500Y-105969713D01*
X178151500Y-106182287D01*
X178184754Y-106392243D01*
X178245335Y-106578692D01*
X178250444Y-106594414D01*
X178346951Y-106783820D01*
X178471890Y-106955786D01*
X178622213Y-107106109D01*
X178794182Y-107231050D01*
X178802946Y-107235516D01*
X178853742Y-107283491D01*
X178870536Y-107351312D01*
X178847998Y-107417447D01*
X178802946Y-107456484D01*
X178794182Y-107460949D01*
X178622213Y-107585890D01*
X178471890Y-107736213D01*
X178346951Y-107908179D01*
X178250444Y-108097585D01*
X178184753Y-108299760D01*
X178152097Y-108505943D01*
X178151500Y-108509713D01*
X178151500Y-108722287D01*
X178184754Y-108932243D01*
X178245335Y-109118692D01*
X178250444Y-109134414D01*
X178346951Y-109323820D01*
X178471890Y-109495786D01*
X178622213Y-109646109D01*
X178794182Y-109771050D01*
X178802946Y-109775516D01*
X178853742Y-109823491D01*
X178870536Y-109891312D01*
X178847998Y-109957447D01*
X178802946Y-109996484D01*
X178794182Y-110000949D01*
X178622213Y-110125890D01*
X178471890Y-110276213D01*
X178346951Y-110448179D01*
X178250444Y-110637585D01*
X178184753Y-110839760D01*
X178173246Y-110912412D01*
X178151500Y-111049713D01*
X178151500Y-111262287D01*
X178184754Y-111472243D01*
X178248875Y-111669587D01*
X178250444Y-111674414D01*
X178346951Y-111863820D01*
X178471890Y-112035786D01*
X178622213Y-112186109D01*
X178794182Y-112311050D01*
X178802946Y-112315516D01*
X178853742Y-112363491D01*
X178870536Y-112431312D01*
X178847998Y-112497447D01*
X178802946Y-112536484D01*
X178794182Y-112540949D01*
X178622213Y-112665890D01*
X178471890Y-112816213D01*
X178346951Y-112988179D01*
X178250444Y-113177585D01*
X178184753Y-113379760D01*
X178151500Y-113589713D01*
X178151500Y-113802286D01*
X178174895Y-113950000D01*
X178184754Y-114012243D01*
X178239327Y-114180202D01*
X178250444Y-114214414D01*
X178346951Y-114403820D01*
X178471890Y-114575786D01*
X178622213Y-114726109D01*
X178794182Y-114851050D01*
X178802946Y-114855516D01*
X178853742Y-114903491D01*
X178870536Y-114971312D01*
X178847998Y-115037447D01*
X178802946Y-115076484D01*
X178794182Y-115080949D01*
X178622213Y-115205890D01*
X178471890Y-115356213D01*
X178346951Y-115528179D01*
X178250444Y-115717585D01*
X178184753Y-115919760D01*
X178151500Y-116129713D01*
X178151500Y-116342287D01*
X178184754Y-116552243D01*
X178236430Y-116711286D01*
X178250444Y-116754414D01*
X178346951Y-116943820D01*
X178471890Y-117115786D01*
X178622213Y-117266109D01*
X178794182Y-117391050D01*
X178802946Y-117395516D01*
X178853742Y-117443491D01*
X178870536Y-117511312D01*
X178847998Y-117577447D01*
X178802946Y-117616484D01*
X178794182Y-117620949D01*
X178622213Y-117745890D01*
X178471890Y-117896213D01*
X178346951Y-118068179D01*
X178250444Y-118257585D01*
X178184753Y-118459760D01*
X178151500Y-118669713D01*
X178151500Y-118882286D01*
X178184735Y-119092127D01*
X178184754Y-119092243D01*
X178248356Y-119287990D01*
X178250444Y-119294414D01*
X178346951Y-119483820D01*
X178471890Y-119655786D01*
X178622213Y-119806109D01*
X178794182Y-119931050D01*
X178802946Y-119935516D01*
X178853742Y-119983491D01*
X178870536Y-120051312D01*
X178847998Y-120117447D01*
X178802946Y-120156484D01*
X178794182Y-120160949D01*
X178622213Y-120285890D01*
X178471890Y-120436213D01*
X178346951Y-120608179D01*
X178250444Y-120797585D01*
X178184753Y-120999760D01*
X178156622Y-121177375D01*
X178151500Y-121209713D01*
X178151500Y-121422287D01*
X178153377Y-121434135D01*
X178183519Y-121624449D01*
X178184754Y-121632243D01*
X178249659Y-121832000D01*
X178250444Y-121834414D01*
X178346951Y-122023820D01*
X178471890Y-122195786D01*
X178622213Y-122346109D01*
X178794179Y-122471048D01*
X178794181Y-122471049D01*
X178794184Y-122471051D01*
X178983588Y-122567557D01*
X179185757Y-122633246D01*
X179395713Y-122666500D01*
X179395714Y-122666500D01*
X179608286Y-122666500D01*
X179608287Y-122666500D01*
X179818243Y-122633246D01*
X180020412Y-122567557D01*
X180209816Y-122471051D01*
X180254969Y-122438246D01*
X180381786Y-122346109D01*
X180381788Y-122346106D01*
X180381792Y-122346104D01*
X180532104Y-122195792D01*
X180532106Y-122195788D01*
X180532109Y-122195786D01*
X180657048Y-122023820D01*
X180657047Y-122023820D01*
X180657051Y-122023816D01*
X180753557Y-121834412D01*
X180819246Y-121632243D01*
X180852500Y-121422287D01*
X180852500Y-121209713D01*
X180819246Y-120999757D01*
X180753557Y-120797588D01*
X180657051Y-120608184D01*
X180657049Y-120608181D01*
X180657048Y-120608179D01*
X180532109Y-120436213D01*
X180381786Y-120285890D01*
X180209820Y-120160951D01*
X180209115Y-120160591D01*
X180201054Y-120156485D01*
X180150259Y-120108512D01*
X180133463Y-120040692D01*
X180155999Y-119974556D01*
X180201054Y-119935515D01*
X180209816Y-119931051D01*
X180264572Y-119891269D01*
X180381786Y-119806109D01*
X180381788Y-119806106D01*
X180381792Y-119806104D01*
X180532104Y-119655792D01*
X180532106Y-119655788D01*
X180532109Y-119655786D01*
X180657048Y-119483820D01*
X180657047Y-119483820D01*
X180657051Y-119483816D01*
X180753557Y-119294412D01*
X180819246Y-119092243D01*
X180852500Y-118882287D01*
X180852500Y-118669713D01*
X180819246Y-118459757D01*
X180753557Y-118257588D01*
X180657051Y-118068184D01*
X180657049Y-118068181D01*
X180657048Y-118068179D01*
X180532109Y-117896213D01*
X180381786Y-117745890D01*
X180209820Y-117620951D01*
X180201600Y-117616763D01*
X180201054Y-117616485D01*
X180150259Y-117568512D01*
X180133463Y-117500692D01*
X180155999Y-117434556D01*
X180201054Y-117395515D01*
X180209816Y-117391051D01*
X180231789Y-117375086D01*
X180381786Y-117266109D01*
X180381788Y-117266106D01*
X180381792Y-117266104D01*
X180532104Y-117115792D01*
X180532106Y-117115788D01*
X180532109Y-117115786D01*
X180657048Y-116943820D01*
X180657047Y-116943820D01*
X180657051Y-116943816D01*
X180753557Y-116754412D01*
X180819246Y-116552243D01*
X180852500Y-116342287D01*
X180852500Y-116129713D01*
X180819246Y-115919757D01*
X180753557Y-115717588D01*
X180657051Y-115528184D01*
X180657049Y-115528181D01*
X180657048Y-115528179D01*
X180532109Y-115356213D01*
X180381786Y-115205890D01*
X180209820Y-115080951D01*
X180209115Y-115080591D01*
X180201054Y-115076485D01*
X180150259Y-115028512D01*
X180133463Y-114960692D01*
X180155999Y-114894556D01*
X180201054Y-114855515D01*
X180209816Y-114851051D01*
X180283918Y-114797213D01*
X180381786Y-114726109D01*
X180381788Y-114726106D01*
X180381792Y-114726104D01*
X180532104Y-114575792D01*
X180532106Y-114575788D01*
X180532109Y-114575786D01*
X180657048Y-114403820D01*
X180657047Y-114403820D01*
X180657051Y-114403816D01*
X180753557Y-114214412D01*
X180819246Y-114012243D01*
X180852500Y-113802287D01*
X180852500Y-113589713D01*
X180819246Y-113379757D01*
X180753557Y-113177588D01*
X180657051Y-112988184D01*
X180657049Y-112988181D01*
X180657048Y-112988179D01*
X180532109Y-112816213D01*
X180381786Y-112665890D01*
X180209820Y-112540951D01*
X180209115Y-112540591D01*
X180201054Y-112536485D01*
X180150259Y-112488512D01*
X180133463Y-112420692D01*
X180155999Y-112354556D01*
X180201054Y-112315515D01*
X180209816Y-112311051D01*
X180231789Y-112295086D01*
X180381786Y-112186109D01*
X180381788Y-112186106D01*
X180381792Y-112186104D01*
X180532104Y-112035792D01*
X180532106Y-112035788D01*
X180532109Y-112035786D01*
X180657048Y-111863820D01*
X180657047Y-111863820D01*
X180657051Y-111863816D01*
X180753557Y-111674412D01*
X180819246Y-111472243D01*
X180852500Y-111262287D01*
X180852500Y-111049713D01*
X180819246Y-110839757D01*
X180753557Y-110637588D01*
X180657051Y-110448184D01*
X180657049Y-110448181D01*
X180657048Y-110448179D01*
X180532109Y-110276213D01*
X180381786Y-110125890D01*
X180209820Y-110000951D01*
X180209115Y-110000591D01*
X180201054Y-109996485D01*
X180150259Y-109948512D01*
X180133463Y-109880692D01*
X180155999Y-109814556D01*
X180201054Y-109775515D01*
X180209816Y-109771051D01*
X180231789Y-109755086D01*
X180381786Y-109646109D01*
X180381788Y-109646106D01*
X180381792Y-109646104D01*
X180532104Y-109495792D01*
X180532106Y-109495788D01*
X180532109Y-109495786D01*
X180657048Y-109323820D01*
X180657047Y-109323820D01*
X180657051Y-109323816D01*
X180753557Y-109134412D01*
X180819246Y-108932243D01*
X180852500Y-108722287D01*
X180852500Y-108509713D01*
X180819246Y-108299757D01*
X180753557Y-108097588D01*
X180657051Y-107908184D01*
X180657049Y-107908181D01*
X180657048Y-107908179D01*
X180532109Y-107736213D01*
X180381786Y-107585890D01*
X180209820Y-107460951D01*
X180209115Y-107460591D01*
X180201054Y-107456485D01*
X180150259Y-107408512D01*
X180133463Y-107340692D01*
X180155999Y-107274556D01*
X180201054Y-107235515D01*
X180209816Y-107231051D01*
X180326625Y-107146185D01*
X180381786Y-107106109D01*
X180381788Y-107106106D01*
X180381792Y-107106104D01*
X180532104Y-106955792D01*
X180532106Y-106955788D01*
X180532109Y-106955786D01*
X180657048Y-106783820D01*
X180657047Y-106783820D01*
X180657051Y-106783816D01*
X180753557Y-106594412D01*
X180819246Y-106392243D01*
X180852500Y-106182287D01*
X180852500Y-105969713D01*
X180819246Y-105759757D01*
X180753557Y-105557588D01*
X180657051Y-105368184D01*
X180657049Y-105368181D01*
X180657048Y-105368179D01*
X180532109Y-105196213D01*
X180381786Y-105045890D01*
X180209820Y-104920951D01*
X180209115Y-104920591D01*
X180201054Y-104916485D01*
X180150259Y-104868512D01*
X180133463Y-104800692D01*
X180155999Y-104734556D01*
X180201054Y-104695515D01*
X180209816Y-104691051D01*
X180231789Y-104675086D01*
X180381786Y-104566109D01*
X180381788Y-104566106D01*
X180381792Y-104566104D01*
X180532104Y-104415792D01*
X180532106Y-104415788D01*
X180532109Y-104415786D01*
X180655902Y-104245397D01*
X180657051Y-104243816D01*
X180753557Y-104054412D01*
X180819246Y-103852243D01*
X180852500Y-103642287D01*
X180852500Y-103429713D01*
X180819246Y-103219757D01*
X180753557Y-103017588D01*
X180657051Y-102828184D01*
X180657049Y-102828181D01*
X180657048Y-102828179D01*
X180532109Y-102656213D01*
X180381786Y-102505890D01*
X180209820Y-102380951D01*
X180209115Y-102380591D01*
X180201054Y-102376485D01*
X180150259Y-102328512D01*
X180133463Y-102260692D01*
X180155999Y-102194556D01*
X180201054Y-102155515D01*
X180209816Y-102151051D01*
X180280082Y-102100000D01*
X180381786Y-102026109D01*
X180381788Y-102026106D01*
X180381792Y-102026104D01*
X180532104Y-101875792D01*
X180532106Y-101875788D01*
X180532109Y-101875786D01*
X180657048Y-101703820D01*
X180657047Y-101703820D01*
X180657051Y-101703816D01*
X180753557Y-101514412D01*
X180819246Y-101312243D01*
X180852500Y-101102287D01*
X180852500Y-100889713D01*
X180819246Y-100679757D01*
X180753557Y-100477588D01*
X180657051Y-100288184D01*
X180657049Y-100288181D01*
X180657048Y-100288179D01*
X180532109Y-100116213D01*
X180381786Y-99965890D01*
X180209820Y-99840951D01*
X180209115Y-99840591D01*
X180201054Y-99836485D01*
X180150259Y-99788512D01*
X180133463Y-99720692D01*
X180155999Y-99654556D01*
X180201054Y-99615515D01*
X180209816Y-99611051D01*
X180231789Y-99595086D01*
X180381786Y-99486109D01*
X180381788Y-99486106D01*
X180381792Y-99486104D01*
X180532104Y-99335792D01*
X180532106Y-99335788D01*
X180532109Y-99335786D01*
X180657048Y-99163820D01*
X180657047Y-99163820D01*
X180657051Y-99163816D01*
X180753557Y-98974412D01*
X180819246Y-98772243D01*
X180852500Y-98562287D01*
X180852500Y-98349713D01*
X180819246Y-98139757D01*
X180753557Y-97937588D01*
X180657051Y-97748184D01*
X180657049Y-97748181D01*
X180657048Y-97748179D01*
X180532109Y-97576213D01*
X180381786Y-97425890D01*
X180209820Y-97300951D01*
X180209115Y-97300591D01*
X180201054Y-97296485D01*
X180150259Y-97248512D01*
X180133463Y-97180692D01*
X180155999Y-97114556D01*
X180201054Y-97075515D01*
X180209816Y-97071051D01*
X180231789Y-97055086D01*
X180381786Y-96946109D01*
X180381788Y-96946106D01*
X180381792Y-96946104D01*
X180532104Y-96795792D01*
X180532106Y-96795788D01*
X180532109Y-96795786D01*
X180657048Y-96623820D01*
X180657047Y-96623820D01*
X180657051Y-96623816D01*
X180753557Y-96434412D01*
X180819246Y-96232243D01*
X180852500Y-96022287D01*
X180852500Y-95809713D01*
X180819246Y-95599757D01*
X180753557Y-95397588D01*
X180657051Y-95208184D01*
X180657049Y-95208181D01*
X180657048Y-95208179D01*
X180532109Y-95036213D01*
X180381786Y-94885890D01*
X180209820Y-94760951D01*
X180209115Y-94760591D01*
X180201054Y-94756485D01*
X180150259Y-94708512D01*
X180133463Y-94640692D01*
X180155999Y-94574556D01*
X180201054Y-94535515D01*
X180209816Y-94531051D01*
X180231789Y-94515086D01*
X180381786Y-94406109D01*
X180381788Y-94406106D01*
X180381792Y-94406104D01*
X180532104Y-94255792D01*
X180532106Y-94255788D01*
X180532109Y-94255786D01*
X180657048Y-94083820D01*
X180657047Y-94083820D01*
X180657051Y-94083816D01*
X180753557Y-93894412D01*
X180819246Y-93692243D01*
X180852500Y-93482287D01*
X180852500Y-93269713D01*
X180819246Y-93059757D01*
X180753557Y-92857588D01*
X180657051Y-92668184D01*
X180657049Y-92668181D01*
X180657048Y-92668179D01*
X180532109Y-92496213D01*
X180381786Y-92345890D01*
X180209820Y-92220951D01*
X180209115Y-92220591D01*
X180201054Y-92216485D01*
X180150259Y-92168512D01*
X180133463Y-92100692D01*
X180155999Y-92034556D01*
X180201054Y-91995515D01*
X180209816Y-91991051D01*
X180253075Y-91959622D01*
X180381786Y-91866109D01*
X180381788Y-91866106D01*
X180381792Y-91866104D01*
X180532104Y-91715792D01*
X180532106Y-91715788D01*
X180532109Y-91715786D01*
X180657048Y-91543820D01*
X180657047Y-91543820D01*
X180657051Y-91543816D01*
X180753557Y-91354412D01*
X180819246Y-91152243D01*
X180852500Y-90942287D01*
X180852500Y-90729713D01*
X180819246Y-90519757D01*
X180753557Y-90317588D01*
X180657051Y-90128184D01*
X180657049Y-90128181D01*
X180657048Y-90128179D01*
X180532109Y-89956213D01*
X180381786Y-89805890D01*
X180209820Y-89680951D01*
X180209115Y-89680591D01*
X180201054Y-89676485D01*
X180150259Y-89628512D01*
X180133463Y-89560692D01*
X180155999Y-89494556D01*
X180201054Y-89455515D01*
X180209816Y-89451051D01*
X180301850Y-89384185D01*
X180381786Y-89326109D01*
X180381788Y-89326106D01*
X180381792Y-89326104D01*
X180532104Y-89175792D01*
X180532106Y-89175788D01*
X180532109Y-89175786D01*
X180657048Y-89003820D01*
X180657047Y-89003820D01*
X180657051Y-89003816D01*
X180753557Y-88814412D01*
X180819246Y-88612243D01*
X180852500Y-88402287D01*
X180852500Y-88189713D01*
X180819246Y-87979757D01*
X180753557Y-87777588D01*
X180657051Y-87588184D01*
X180657049Y-87588181D01*
X180657048Y-87588179D01*
X180532109Y-87416213D01*
X180381786Y-87265890D01*
X180209820Y-87140951D01*
X180209115Y-87140591D01*
X180201054Y-87136485D01*
X180150259Y-87088512D01*
X180133463Y-87020692D01*
X180155999Y-86954556D01*
X180201054Y-86915515D01*
X180209816Y-86911051D01*
X180231789Y-86895086D01*
X180381786Y-86786109D01*
X180381788Y-86786106D01*
X180381792Y-86786104D01*
X180532104Y-86635792D01*
X180532106Y-86635788D01*
X180532109Y-86635786D01*
X180655902Y-86465397D01*
X180657051Y-86463816D01*
X180753557Y-86274412D01*
X180819246Y-86072243D01*
X180852500Y-85862287D01*
X180852500Y-85649713D01*
X180819246Y-85439757D01*
X180753557Y-85237588D01*
X180657051Y-85048184D01*
X180657049Y-85048181D01*
X180657048Y-85048179D01*
X180532109Y-84876213D01*
X180381786Y-84725890D01*
X180209820Y-84600951D01*
X180209115Y-84600591D01*
X180201054Y-84596485D01*
X180150259Y-84548512D01*
X180133463Y-84480692D01*
X180155999Y-84414556D01*
X180201054Y-84375515D01*
X180209816Y-84371051D01*
X180231789Y-84355086D01*
X180381786Y-84246109D01*
X180381788Y-84246106D01*
X180381792Y-84246104D01*
X180532104Y-84095792D01*
X180532106Y-84095788D01*
X180532109Y-84095786D01*
X180657048Y-83923820D01*
X180657047Y-83923820D01*
X180657051Y-83923816D01*
X180753557Y-83734412D01*
X180819246Y-83532243D01*
X180852500Y-83322287D01*
X180852500Y-83109713D01*
X180819246Y-82899757D01*
X180753557Y-82697588D01*
X180657051Y-82508184D01*
X180657049Y-82508181D01*
X180657048Y-82508179D01*
X180532109Y-82336213D01*
X180381786Y-82185890D01*
X180209820Y-82060951D01*
X180209115Y-82060591D01*
X180201054Y-82056485D01*
X180150259Y-82008512D01*
X180133463Y-81940692D01*
X180155999Y-81874556D01*
X180201054Y-81835515D01*
X180209816Y-81831051D01*
X180231789Y-81815086D01*
X180381786Y-81706109D01*
X180381788Y-81706106D01*
X180381792Y-81706104D01*
X180532104Y-81555792D01*
X180532106Y-81555788D01*
X180532109Y-81555786D01*
X180657048Y-81383820D01*
X180657047Y-81383820D01*
X180657051Y-81383816D01*
X180753557Y-81194412D01*
X180819246Y-80992243D01*
X180852500Y-80782287D01*
X180852500Y-80569713D01*
X180819246Y-80359757D01*
X180753557Y-80157588D01*
X180657051Y-79968184D01*
X180657049Y-79968181D01*
X180657048Y-79968179D01*
X180532109Y-79796213D01*
X180381786Y-79645890D01*
X180209820Y-79520951D01*
X180209115Y-79520591D01*
X180201054Y-79516485D01*
X180150259Y-79468512D01*
X180133463Y-79400692D01*
X180155999Y-79334556D01*
X180201054Y-79295515D01*
X180209816Y-79291051D01*
X180231789Y-79275086D01*
X180381786Y-79166109D01*
X180381788Y-79166106D01*
X180381792Y-79166104D01*
X180532104Y-79015792D01*
X180532106Y-79015788D01*
X180532109Y-79015786D01*
X180655902Y-78845397D01*
X180657051Y-78843816D01*
X180753557Y-78654412D01*
X180819246Y-78452243D01*
X180852500Y-78242287D01*
X180852500Y-78029713D01*
X180819246Y-77819757D01*
X180753557Y-77617588D01*
X180657051Y-77428184D01*
X180657049Y-77428181D01*
X180657048Y-77428179D01*
X180532109Y-77256213D01*
X180381786Y-77105890D01*
X180209817Y-76980949D01*
X180200504Y-76976204D01*
X180149707Y-76928230D01*
X180132912Y-76860409D01*
X180155449Y-76794274D01*
X180200507Y-76755232D01*
X180209555Y-76750622D01*
X180263716Y-76711270D01*
X180263717Y-76711270D01*
X179631408Y-76078962D01*
X179694993Y-76061925D01*
X179809007Y-75996099D01*
X179902099Y-75903007D01*
X179967925Y-75788993D01*
X179984962Y-75725408D01*
X180617270Y-76357717D01*
X180617270Y-76357716D01*
X180656622Y-76303554D01*
X180753095Y-76114217D01*
X180818757Y-75912130D01*
X180818757Y-75912127D01*
X180852000Y-75702246D01*
X180852000Y-75489753D01*
X180818757Y-75279872D01*
X180818757Y-75279869D01*
X180753095Y-75077782D01*
X180656624Y-74888449D01*
X180617270Y-74834282D01*
X180617269Y-74834282D01*
X179984962Y-75466590D01*
X179967925Y-75403007D01*
X179902099Y-75288993D01*
X179809007Y-75195901D01*
X179694993Y-75130075D01*
X179631409Y-75113037D01*
X180301627Y-74442818D01*
X180362950Y-74409333D01*
X180389307Y-74406499D01*
X180399872Y-74406499D01*
X180459483Y-74400091D01*
X180594331Y-74349796D01*
X180709546Y-74263546D01*
X180795796Y-74148331D01*
X180846091Y-74013483D01*
X180852500Y-73953873D01*
X180852499Y-72158128D01*
X180846091Y-72098517D01*
X180795796Y-71963669D01*
X180795795Y-71963668D01*
X180795793Y-71963664D01*
X180709547Y-71848455D01*
X180709544Y-71848452D01*
X180594335Y-71762206D01*
X180586546Y-71757953D01*
X180588124Y-71755061D01*
X180545042Y-71722811D01*
X180520625Y-71657347D01*
X180535476Y-71589074D01*
X180584881Y-71539668D01*
X180644309Y-71524500D01*
X181838108Y-71524500D01*
X181899572Y-71524500D01*
X181908418Y-71524816D01*
X182108561Y-71539130D01*
X182126063Y-71541647D01*
X182317797Y-71583355D01*
X182334755Y-71588334D01*
X182518609Y-71656909D01*
X182534701Y-71664259D01*
X182706904Y-71758288D01*
X182721784Y-71767849D01*
X182878867Y-71885441D01*
X182892237Y-71897027D01*
X183030972Y-72035762D01*
X183042558Y-72049132D01*
X183160146Y-72206210D01*
X183169711Y-72221095D01*
X183263740Y-72393298D01*
X183271090Y-72409390D01*
X183339662Y-72593236D01*
X183344646Y-72610212D01*
X183386351Y-72801931D01*
X183388869Y-72819442D01*
X183403184Y-73019580D01*
X183403500Y-73028427D01*
X183403500Y-134019572D01*
X183403184Y-134028419D01*
X183388869Y-134228557D01*
X183386351Y-134246068D01*
X183344646Y-134437787D01*
X183339662Y-134454763D01*
X183271090Y-134638609D01*
X183263740Y-134654701D01*
X183169711Y-134826904D01*
X183160146Y-134841789D01*
X183042558Y-134998867D01*
X183030972Y-135012237D01*
X182892237Y-135150972D01*
X182878867Y-135162558D01*
X182721789Y-135280146D01*
X182706904Y-135289711D01*
X182534701Y-135383740D01*
X182518609Y-135391090D01*
X182334763Y-135459662D01*
X182317787Y-135464646D01*
X182126068Y-135506351D01*
X182108557Y-135508869D01*
X181927779Y-135521799D01*
X181908417Y-135523184D01*
X181899572Y-135523500D01*
X95908428Y-135523500D01*
X95899582Y-135523184D01*
X95877622Y-135521613D01*
X95699442Y-135508869D01*
X95681931Y-135506351D01*
X95490212Y-135464646D01*
X95473236Y-135459662D01*
X95289390Y-135391090D01*
X95273298Y-135383740D01*
X95101095Y-135289711D01*
X95086210Y-135280146D01*
X94929132Y-135162558D01*
X94915762Y-135150972D01*
X94777027Y-135012237D01*
X94765441Y-134998867D01*
X94647849Y-134841784D01*
X94638288Y-134826904D01*
X94544259Y-134654701D01*
X94536909Y-134638609D01*
X94476091Y-134475551D01*
X94468334Y-134454755D01*
X94463355Y-134437797D01*
X94421647Y-134246063D01*
X94419130Y-134228556D01*
X94404816Y-134028418D01*
X94404500Y-134019572D01*
X94404500Y-113847648D01*
X101767500Y-113847648D01*
X101767500Y-114052351D01*
X101799522Y-114254534D01*
X101862781Y-114449223D01*
X101905248Y-114532567D01*
X101955585Y-114631359D01*
X101955715Y-114631613D01*
X102076028Y-114797213D01*
X102220786Y-114941971D01*
X102339902Y-115028512D01*
X102386390Y-115062287D01*
X102502607Y-115121503D01*
X102568776Y-115155218D01*
X102568778Y-115155218D01*
X102568781Y-115155220D01*
X102673137Y-115189127D01*
X102763465Y-115218477D01*
X102864557Y-115234488D01*
X102965648Y-115250500D01*
X102965649Y-115250500D01*
X103170351Y-115250500D01*
X103170352Y-115250500D01*
X103372534Y-115218477D01*
X103567219Y-115155220D01*
X103749610Y-115062287D01*
X103856754Y-114984443D01*
X103915213Y-114941971D01*
X103915215Y-114941968D01*
X103915219Y-114941966D01*
X104059966Y-114797219D01*
X104059968Y-114797215D01*
X104059971Y-114797213D01*
X104180286Y-114631611D01*
X104180415Y-114631359D01*
X104207795Y-114577621D01*
X104255769Y-114526826D01*
X104323589Y-114510030D01*
X104389725Y-114532567D01*
X104428765Y-114577621D01*
X104456141Y-114631350D01*
X104456147Y-114631359D01*
X104488523Y-114675921D01*
X104488524Y-114675922D01*
X105168000Y-113996446D01*
X105168000Y-114002661D01*
X105195259Y-114104394D01*
X105247920Y-114195606D01*
X105322394Y-114270080D01*
X105413606Y-114322741D01*
X105515339Y-114350000D01*
X105521553Y-114350000D01*
X104842076Y-115029474D01*
X104886650Y-115061859D01*
X105068968Y-115154755D01*
X105263582Y-115217990D01*
X105465683Y-115250000D01*
X105670317Y-115250000D01*
X105872417Y-115217990D01*
X106067031Y-115154755D01*
X106249349Y-115061859D01*
X106293921Y-115029474D01*
X105614447Y-114350000D01*
X105620661Y-114350000D01*
X105722394Y-114322741D01*
X105813606Y-114270080D01*
X105888080Y-114195606D01*
X105940741Y-114104394D01*
X105968000Y-114002661D01*
X105968000Y-113996447D01*
X106647474Y-114675921D01*
X106679861Y-114631347D01*
X106679861Y-114631346D01*
X106738372Y-114516512D01*
X106738372Y-114516511D01*
X106772755Y-114449031D01*
X106835990Y-114254417D01*
X106868000Y-114052317D01*
X106868000Y-113847682D01*
X106835990Y-113645582D01*
X106772755Y-113450968D01*
X106679859Y-113268650D01*
X106647474Y-113224077D01*
X106647474Y-113224076D01*
X105968000Y-113903551D01*
X105968000Y-113897339D01*
X105940741Y-113795606D01*
X105888080Y-113704394D01*
X105813606Y-113629920D01*
X105722394Y-113577259D01*
X105620661Y-113550000D01*
X105614446Y-113550000D01*
X106293921Y-112870524D01*
X106293921Y-112870523D01*
X106249359Y-112838147D01*
X106249350Y-112838141D01*
X106067031Y-112745244D01*
X105872417Y-112682009D01*
X105670317Y-112650000D01*
X105465683Y-112650000D01*
X105263582Y-112682009D01*
X105068968Y-112745244D01*
X104886644Y-112838143D01*
X104842077Y-112870523D01*
X104842077Y-112870524D01*
X105521554Y-113550000D01*
X105515339Y-113550000D01*
X105413606Y-113577259D01*
X105322394Y-113629920D01*
X105247920Y-113704394D01*
X105195259Y-113795606D01*
X105168000Y-113897339D01*
X105168000Y-113903553D01*
X104488524Y-113224077D01*
X104488523Y-113224077D01*
X104456143Y-113268644D01*
X104428765Y-113322378D01*
X104380790Y-113373174D01*
X104312969Y-113389969D01*
X104246834Y-113367431D01*
X104207795Y-113322378D01*
X104180287Y-113268390D01*
X104180285Y-113268387D01*
X104180284Y-113268385D01*
X104059971Y-113102786D01*
X103915213Y-112958028D01*
X103749613Y-112837715D01*
X103749612Y-112837714D01*
X103749610Y-112837713D01*
X103692653Y-112808691D01*
X103567223Y-112744781D01*
X103372534Y-112681522D01*
X103197995Y-112653878D01*
X103170352Y-112649500D01*
X102965648Y-112649500D01*
X102941329Y-112653351D01*
X102763465Y-112681522D01*
X102568776Y-112744781D01*
X102386386Y-112837715D01*
X102220786Y-112958028D01*
X102076028Y-113102786D01*
X101955715Y-113268386D01*
X101862781Y-113450776D01*
X101799522Y-113645465D01*
X101767500Y-113847648D01*
X94404500Y-113847648D01*
X94404500Y-99897648D01*
X98699500Y-99897648D01*
X98699500Y-100102351D01*
X98731522Y-100304534D01*
X98794781Y-100499223D01*
X98833957Y-100576108D01*
X98886770Y-100679760D01*
X98887715Y-100681613D01*
X99008028Y-100847213D01*
X99152786Y-100991971D01*
X99318385Y-101112284D01*
X99318387Y-101112285D01*
X99318390Y-101112287D01*
X99372378Y-101139795D01*
X99423174Y-101187769D01*
X99439969Y-101255590D01*
X99417432Y-101321725D01*
X99372378Y-101360765D01*
X99318644Y-101388143D01*
X99274077Y-101420523D01*
X99274077Y-101420524D01*
X99953554Y-102100000D01*
X99947339Y-102100000D01*
X99845606Y-102127259D01*
X99754394Y-102179920D01*
X99679920Y-102254394D01*
X99627259Y-102345606D01*
X99600000Y-102447339D01*
X99600000Y-102453553D01*
X98920524Y-101774077D01*
X98920523Y-101774077D01*
X98888143Y-101818644D01*
X98795244Y-102000968D01*
X98732009Y-102195582D01*
X98700000Y-102397682D01*
X98700000Y-102602317D01*
X98732009Y-102804417D01*
X98795244Y-102999031D01*
X98888141Y-103181350D01*
X98888147Y-103181359D01*
X98920523Y-103225921D01*
X98920524Y-103225922D01*
X99600000Y-102546446D01*
X99600000Y-102552661D01*
X99627259Y-102654394D01*
X99679920Y-102745606D01*
X99754394Y-102820080D01*
X99845606Y-102872741D01*
X99947339Y-102900000D01*
X99953553Y-102900000D01*
X99274076Y-103579474D01*
X99318650Y-103611859D01*
X99500968Y-103704755D01*
X99695582Y-103767990D01*
X99897683Y-103800000D01*
X100102317Y-103800000D01*
X100304417Y-103767990D01*
X100499031Y-103704755D01*
X100681349Y-103611859D01*
X100725921Y-103579474D01*
X100046447Y-102900000D01*
X100052661Y-102900000D01*
X100154394Y-102872741D01*
X100245606Y-102820080D01*
X100320080Y-102745606D01*
X100372741Y-102654394D01*
X100400000Y-102552661D01*
X100400000Y-102546448D01*
X101079474Y-103225922D01*
X101079474Y-103225921D01*
X101111859Y-103181349D01*
X101204755Y-102999031D01*
X101267990Y-102804417D01*
X101284649Y-102699240D01*
X101300000Y-102602317D01*
X101300000Y-102397682D01*
X101267990Y-102195582D01*
X101204755Y-102000968D01*
X101111859Y-101818650D01*
X101079474Y-101774077D01*
X101079474Y-101774076D01*
X100400000Y-102453551D01*
X100400000Y-102447339D01*
X100372741Y-102345606D01*
X100320080Y-102254394D01*
X100245606Y-102179920D01*
X100154394Y-102127259D01*
X100052661Y-102100000D01*
X100046446Y-102100000D01*
X100725922Y-101420524D01*
X100725921Y-101420523D01*
X100681359Y-101388147D01*
X100681350Y-101388141D01*
X100627621Y-101360765D01*
X100576825Y-101312791D01*
X100560030Y-101244970D01*
X100582567Y-101178835D01*
X100627621Y-101139795D01*
X100681610Y-101112287D01*
X100739482Y-101070241D01*
X100847213Y-100991971D01*
X100847215Y-100991968D01*
X100847219Y-100991966D01*
X100991966Y-100847219D01*
X100991968Y-100847215D01*
X100991971Y-100847213D01*
X101044732Y-100774590D01*
X101112287Y-100681610D01*
X101205220Y-100499219D01*
X101268477Y-100304534D01*
X101300500Y-100102352D01*
X101300500Y-99897648D01*
X101290812Y-99836484D01*
X101268477Y-99695465D01*
X101205218Y-99500776D01*
X101171503Y-99434607D01*
X101112287Y-99318390D01*
X101078717Y-99272184D01*
X100991971Y-99152786D01*
X100847213Y-99008028D01*
X100681613Y-98887715D01*
X100681612Y-98887714D01*
X100681610Y-98887713D01*
X100623935Y-98858326D01*
X100499223Y-98794781D01*
X100304534Y-98731522D01*
X100129995Y-98703878D01*
X100102352Y-98699500D01*
X99897648Y-98699500D01*
X99873329Y-98703351D01*
X99695465Y-98731522D01*
X99500776Y-98794781D01*
X99318386Y-98887715D01*
X99152786Y-99008028D01*
X99008028Y-99152786D01*
X98887715Y-99318386D01*
X98794781Y-99500776D01*
X98731522Y-99695465D01*
X98699500Y-99897648D01*
X94404500Y-99897648D01*
X94404500Y-73028427D01*
X94404816Y-73019581D01*
X94419130Y-72819443D01*
X94419131Y-72819434D01*
X94421646Y-72801938D01*
X94463356Y-72610199D01*
X94468333Y-72593248D01*
X94536911Y-72409385D01*
X94544259Y-72393298D01*
X94606815Y-72278734D01*
X94638291Y-72221089D01*
X94647845Y-72206221D01*
X94765448Y-72049123D01*
X94777020Y-72035769D01*
X94915769Y-71897020D01*
X94929123Y-71885448D01*
X95086221Y-71767845D01*
X95101089Y-71758291D01*
X95273298Y-71664258D01*
X95289385Y-71656911D01*
X95473248Y-71588333D01*
X95490199Y-71583356D01*
X95681938Y-71541646D01*
X95699436Y-71539130D01*
X95899582Y-71524816D01*
X95908428Y-71524500D01*
X95969892Y-71524500D01*
X139751691Y-71524500D01*
X139818730Y-71544185D01*
G37*
%TD.AperFunction*%
%TA.AperFunction,Conductor*%
G36*
X126596539Y-120254185D02*
G01*
X126642294Y-120306989D01*
X126653500Y-120358500D01*
X126653500Y-127929330D01*
X126653499Y-127929348D01*
X126653499Y-128095054D01*
X126653498Y-128095054D01*
X126675590Y-128177500D01*
X126694423Y-128247785D01*
X126708948Y-128272942D01*
X126729563Y-128308648D01*
X126773479Y-128384715D01*
X126892349Y-128503585D01*
X126892355Y-128503590D01*
X127528583Y-129139819D01*
X127562068Y-129201142D01*
X127557084Y-129270834D01*
X127515212Y-129326767D01*
X127449748Y-129351184D01*
X127440902Y-129351500D01*
X106853719Y-129351500D01*
X106786680Y-129331815D01*
X106743235Y-129283795D01*
X106723052Y-129244185D01*
X106723051Y-129244184D01*
X106598109Y-129072213D01*
X106447786Y-128921890D01*
X106275820Y-128796951D01*
X106275115Y-128796591D01*
X106267054Y-128792485D01*
X106216259Y-128744512D01*
X106199463Y-128676692D01*
X106221999Y-128610556D01*
X106267054Y-128571515D01*
X106275816Y-128567051D01*
X106297789Y-128551086D01*
X106447786Y-128442109D01*
X106447788Y-128442106D01*
X106447792Y-128442104D01*
X106598104Y-128291792D01*
X106598106Y-128291788D01*
X106598109Y-128291786D01*
X106723048Y-128119820D01*
X106723047Y-128119820D01*
X106723051Y-128119816D01*
X106819557Y-127930412D01*
X106885246Y-127728243D01*
X106918500Y-127518287D01*
X106918500Y-127305713D01*
X106885246Y-127095757D01*
X106819557Y-126893588D01*
X106723051Y-126704184D01*
X106723049Y-126704181D01*
X106723048Y-126704179D01*
X106598109Y-126532213D01*
X106447786Y-126381890D01*
X106275820Y-126256951D01*
X106275115Y-126256591D01*
X106267054Y-126252485D01*
X106216259Y-126204512D01*
X106199463Y-126136692D01*
X106221999Y-126070556D01*
X106267054Y-126031515D01*
X106275816Y-126027051D01*
X106327826Y-125989264D01*
X106447786Y-125902109D01*
X106447788Y-125902106D01*
X106447792Y-125902104D01*
X106598104Y-125751792D01*
X106598106Y-125751788D01*
X106598109Y-125751786D01*
X106723048Y-125579820D01*
X106723047Y-125579820D01*
X106723051Y-125579816D01*
X106819557Y-125390412D01*
X106885246Y-125188243D01*
X106918500Y-124978287D01*
X106918500Y-124765713D01*
X106885246Y-124555757D01*
X106819557Y-124353588D01*
X106723051Y-124164184D01*
X106723049Y-124164181D01*
X106723048Y-124164179D01*
X106598109Y-123992213D01*
X106447786Y-123841890D01*
X106275817Y-123716949D01*
X106266504Y-123712204D01*
X106215707Y-123664230D01*
X106198912Y-123596409D01*
X106221449Y-123530274D01*
X106266507Y-123491232D01*
X106275555Y-123486622D01*
X106329716Y-123447270D01*
X106329717Y-123447270D01*
X105697408Y-122814962D01*
X105760993Y-122797925D01*
X105875007Y-122732099D01*
X105968099Y-122639007D01*
X106033925Y-122524993D01*
X106050962Y-122461409D01*
X106683270Y-123093717D01*
X106683270Y-123093716D01*
X106722622Y-123039554D01*
X106819095Y-122850217D01*
X106884757Y-122648130D01*
X106884757Y-122648127D01*
X106918000Y-122438246D01*
X106918000Y-122225753D01*
X106884757Y-122015872D01*
X106884757Y-122015869D01*
X106819095Y-121813782D01*
X106722624Y-121624449D01*
X106683270Y-121570282D01*
X106683269Y-121570282D01*
X106050962Y-122202590D01*
X106033925Y-122139007D01*
X105968099Y-122024993D01*
X105875007Y-121931901D01*
X105760993Y-121866075D01*
X105697409Y-121849037D01*
X106329716Y-121216728D01*
X106275550Y-121177375D01*
X106086217Y-121080904D01*
X105884129Y-121015242D01*
X105674246Y-120982000D01*
X105461754Y-120982000D01*
X105251872Y-121015242D01*
X105251869Y-121015242D01*
X105049782Y-121080904D01*
X104860439Y-121177380D01*
X104806282Y-121216727D01*
X104806282Y-121216728D01*
X105438591Y-121849037D01*
X105375007Y-121866075D01*
X105260993Y-121931901D01*
X105167901Y-122024993D01*
X105102075Y-122139007D01*
X105085037Y-122202591D01*
X104414818Y-121532372D01*
X104381333Y-121471049D01*
X104381330Y-121471036D01*
X104378499Y-121458015D01*
X104378499Y-121434128D01*
X104372091Y-121374517D01*
X104343926Y-121299002D01*
X104321798Y-121239673D01*
X104321793Y-121239664D01*
X104235547Y-121124455D01*
X104235544Y-121124452D01*
X104120335Y-121038206D01*
X104120328Y-121038202D01*
X103985482Y-120987908D01*
X103985483Y-120987908D01*
X103925883Y-120981501D01*
X103925881Y-120981500D01*
X103925873Y-120981500D01*
X103925865Y-120981500D01*
X103594500Y-120981500D01*
X103585814Y-120978949D01*
X103576853Y-120980238D01*
X103552812Y-120969259D01*
X103527461Y-120961815D01*
X103521533Y-120954974D01*
X103513297Y-120951213D01*
X103499007Y-120928978D01*
X103481706Y-120909011D01*
X103479418Y-120898496D01*
X103475523Y-120892435D01*
X103470500Y-120857500D01*
X103470500Y-120696097D01*
X103490185Y-120629058D01*
X103506819Y-120608416D01*
X103844417Y-120270819D01*
X103905740Y-120237334D01*
X103932098Y-120234500D01*
X126529500Y-120234500D01*
X126596539Y-120254185D01*
G37*
%TD.AperFunction*%
%TA.AperFunction,Conductor*%
G36*
X105102075Y-122524993D02*
G01*
X105167901Y-122639007D01*
X105260993Y-122732099D01*
X105375007Y-122797925D01*
X105438590Y-122814962D01*
X104806282Y-123447269D01*
X104806282Y-123447270D01*
X104860452Y-123486626D01*
X104860451Y-123486626D01*
X104869495Y-123491234D01*
X104920292Y-123539208D01*
X104937087Y-123607029D01*
X104914550Y-123673164D01*
X104869499Y-123712202D01*
X104860182Y-123716949D01*
X104688213Y-123841890D01*
X104537890Y-123992213D01*
X104412949Y-124164182D01*
X104408484Y-124172946D01*
X104360509Y-124223742D01*
X104292688Y-124240536D01*
X104226553Y-124217998D01*
X104187516Y-124172946D01*
X104183050Y-124164182D01*
X104058109Y-123992213D01*
X103944569Y-123878673D01*
X103911084Y-123817350D01*
X103916068Y-123747658D01*
X103957940Y-123691725D01*
X103988915Y-123674810D01*
X104120331Y-123625796D01*
X104235546Y-123539546D01*
X104321796Y-123424331D01*
X104372091Y-123289483D01*
X104378500Y-123229873D01*
X104378499Y-123219312D01*
X104398179Y-123152275D01*
X104414818Y-123131626D01*
X105085037Y-122461408D01*
X105102075Y-122524993D01*
G37*
%TD.AperFunction*%
%TA.AperFunction,Conductor*%
G36*
X142009270Y-119537717D02*
G01*
X142009270Y-119537716D01*
X142048622Y-119483554D01*
X142145095Y-119294217D01*
X142159569Y-119249672D01*
X142199006Y-119191997D01*
X142263365Y-119164798D01*
X142332211Y-119176712D01*
X142383687Y-119223956D01*
X142401500Y-119287990D01*
X142401500Y-120802395D01*
X142381815Y-120869434D01*
X142329011Y-120915189D01*
X142259853Y-120925133D01*
X142196297Y-120896108D01*
X142159569Y-120840713D01*
X142145557Y-120797588D01*
X142049051Y-120608184D01*
X142049049Y-120608181D01*
X142049048Y-120608179D01*
X141924109Y-120436213D01*
X141773786Y-120285890D01*
X141601817Y-120160949D01*
X141592504Y-120156204D01*
X141541707Y-120108230D01*
X141524912Y-120040409D01*
X141547449Y-119974274D01*
X141592507Y-119935232D01*
X141601555Y-119930622D01*
X141655716Y-119891270D01*
X141655717Y-119891270D01*
X141023408Y-119258962D01*
X141086993Y-119241925D01*
X141201007Y-119176099D01*
X141294099Y-119083007D01*
X141359925Y-118968993D01*
X141376962Y-118905408D01*
X142009270Y-119537717D01*
G37*
%TD.AperFunction*%
%TA.AperFunction,Conductor*%
G36*
X142332211Y-116638326D02*
G01*
X142383687Y-116685570D01*
X142401500Y-116749604D01*
X142401500Y-118264009D01*
X142381815Y-118331048D01*
X142329011Y-118376803D01*
X142259853Y-118386747D01*
X142196297Y-118357722D01*
X142159569Y-118302327D01*
X142145095Y-118257783D01*
X142048624Y-118068449D01*
X142009270Y-118014282D01*
X142009269Y-118014282D01*
X141376962Y-118646590D01*
X141359925Y-118583007D01*
X141294099Y-118468993D01*
X141201007Y-118375901D01*
X141086993Y-118310075D01*
X141023409Y-118293037D01*
X141655716Y-117660728D01*
X141601547Y-117621373D01*
X141601547Y-117621372D01*
X141592500Y-117616763D01*
X141541706Y-117568788D01*
X141524912Y-117500966D01*
X141547451Y-117434832D01*
X141592508Y-117395793D01*
X141601816Y-117391051D01*
X141681007Y-117333515D01*
X141773786Y-117266109D01*
X141773788Y-117266106D01*
X141773792Y-117266104D01*
X141924104Y-117115792D01*
X141924106Y-117115788D01*
X141924109Y-117115786D01*
X142049048Y-116943820D01*
X142049047Y-116943820D01*
X142049051Y-116943816D01*
X142145557Y-116754412D01*
X142159570Y-116711284D01*
X142199006Y-116653611D01*
X142263365Y-116626412D01*
X142332211Y-116638326D01*
G37*
%TD.AperFunction*%
%TA.AperFunction,Conductor*%
G36*
X139675320Y-76216185D02*
G01*
X139718765Y-76264205D01*
X139738947Y-76303814D01*
X139738948Y-76303815D01*
X139863890Y-76475786D01*
X140014213Y-76626109D01*
X140186182Y-76751050D01*
X140194946Y-76755516D01*
X140245742Y-76803491D01*
X140262536Y-76871312D01*
X140239998Y-76937447D01*
X140194946Y-76976484D01*
X140186182Y-76980949D01*
X140014213Y-77105890D01*
X139863890Y-77256213D01*
X139738951Y-77428179D01*
X139642444Y-77617585D01*
X139576753Y-77819760D01*
X139563649Y-77902498D01*
X139543500Y-78029713D01*
X139543500Y-78242287D01*
X139576754Y-78452243D01*
X139639803Y-78646288D01*
X139642444Y-78654414D01*
X139738951Y-78843820D01*
X139863890Y-79015786D01*
X140014213Y-79166109D01*
X140186182Y-79291050D01*
X140194946Y-79295516D01*
X140245742Y-79343491D01*
X140262536Y-79411312D01*
X140239998Y-79477447D01*
X140194946Y-79516484D01*
X140186182Y-79520949D01*
X140014213Y-79645890D01*
X139863890Y-79796213D01*
X139738951Y-79968179D01*
X139642444Y-80157585D01*
X139576753Y-80359760D01*
X139543500Y-80569713D01*
X139543500Y-80782287D01*
X139576754Y-80992243D01*
X139631843Y-81161790D01*
X139642444Y-81194414D01*
X139738951Y-81383820D01*
X139863890Y-81555786D01*
X140014213Y-81706109D01*
X140186182Y-81831050D01*
X140194946Y-81835516D01*
X140245742Y-81883491D01*
X140262536Y-81951312D01*
X140239998Y-82017447D01*
X140194946Y-82056484D01*
X140186182Y-82060949D01*
X140014213Y-82185890D01*
X139863890Y-82336213D01*
X139738951Y-82508179D01*
X139642444Y-82697585D01*
X139576753Y-82899760D01*
X139543500Y-83109713D01*
X139543500Y-83322286D01*
X139574196Y-83516097D01*
X139576754Y-83532243D01*
X139594940Y-83588215D01*
X139642444Y-83734414D01*
X139738951Y-83923820D01*
X139863890Y-84095786D01*
X140014213Y-84246109D01*
X140186182Y-84371050D01*
X140194946Y-84375516D01*
X140245742Y-84423491D01*
X140262536Y-84491312D01*
X140239998Y-84557447D01*
X140194946Y-84596484D01*
X140186182Y-84600949D01*
X140014213Y-84725890D01*
X139863890Y-84876213D01*
X139738951Y-85048179D01*
X139642444Y-85237585D01*
X139576753Y-85439760D01*
X139563649Y-85522498D01*
X139543500Y-85649713D01*
X139543500Y-85862287D01*
X139576754Y-86072243D01*
X139639803Y-86266288D01*
X139642444Y-86274414D01*
X139738951Y-86463820D01*
X139863890Y-86635786D01*
X140014213Y-86786109D01*
X140186182Y-86911050D01*
X140194946Y-86915516D01*
X140245742Y-86963491D01*
X140262536Y-87031312D01*
X140239998Y-87097447D01*
X140194946Y-87136484D01*
X140186182Y-87140949D01*
X140014213Y-87265890D01*
X139863890Y-87416213D01*
X139738951Y-87588179D01*
X139642444Y-87777585D01*
X139576753Y-87979760D01*
X139543500Y-88189713D01*
X139543500Y-88402286D01*
X139576753Y-88612239D01*
X139642444Y-88814414D01*
X139738951Y-89003820D01*
X139863890Y-89175786D01*
X140014213Y-89326109D01*
X140186182Y-89451050D01*
X140194946Y-89455516D01*
X140245742Y-89503491D01*
X140262536Y-89571312D01*
X140239998Y-89637447D01*
X140194946Y-89676484D01*
X140186182Y-89680949D01*
X140014213Y-89805890D01*
X139863890Y-89956213D01*
X139738951Y-90128179D01*
X139642444Y-90317585D01*
X139576753Y-90519760D01*
X139543500Y-90729713D01*
X139543500Y-90942286D01*
X139571584Y-91119606D01*
X139576754Y-91152243D01*
X139629970Y-91316025D01*
X139642444Y-91354414D01*
X139738951Y-91543820D01*
X139863890Y-91715786D01*
X140014213Y-91866109D01*
X140186182Y-91991050D01*
X140194946Y-91995516D01*
X140245742Y-92043491D01*
X140262536Y-92111312D01*
X140239998Y-92177447D01*
X140194946Y-92216484D01*
X140186182Y-92220949D01*
X140014213Y-92345890D01*
X139863890Y-92496213D01*
X139738951Y-92668179D01*
X139642444Y-92857585D01*
X139576753Y-93059760D01*
X139543500Y-93269713D01*
X139543500Y-93482287D01*
X139576754Y-93692243D01*
X139628430Y-93851286D01*
X139642444Y-93894414D01*
X139738951Y-94083820D01*
X139863890Y-94255786D01*
X140014213Y-94406109D01*
X140186182Y-94531050D01*
X140194946Y-94535516D01*
X140245742Y-94583491D01*
X140262536Y-94651312D01*
X140239998Y-94717447D01*
X140194946Y-94756484D01*
X140186182Y-94760949D01*
X140014213Y-94885890D01*
X139863890Y-95036213D01*
X139738951Y-95208179D01*
X139642444Y-95397585D01*
X139576753Y-95599760D01*
X139543500Y-95809713D01*
X139543500Y-96022287D01*
X139544940Y-96031380D01*
X139576163Y-96228517D01*
X139576754Y-96232243D01*
X139628430Y-96391286D01*
X139642444Y-96434414D01*
X139738951Y-96623820D01*
X139863890Y-96795786D01*
X140014213Y-96946109D01*
X140186182Y-97071050D01*
X140194946Y-97075516D01*
X140245742Y-97123491D01*
X140262536Y-97191312D01*
X140239998Y-97257447D01*
X140194946Y-97296484D01*
X140186182Y-97300949D01*
X140014213Y-97425890D01*
X139863890Y-97576213D01*
X139738951Y-97748179D01*
X139642444Y-97937585D01*
X139576753Y-98139760D01*
X139543500Y-98349713D01*
X139543500Y-98562286D01*
X139574306Y-98756791D01*
X139576754Y-98772243D01*
X139634477Y-98949896D01*
X139642444Y-98974414D01*
X139738951Y-99163820D01*
X139863890Y-99335786D01*
X140014213Y-99486109D01*
X140186182Y-99611050D01*
X140194946Y-99615516D01*
X140245742Y-99663491D01*
X140262536Y-99731312D01*
X140239998Y-99797447D01*
X140194946Y-99836484D01*
X140186182Y-99840949D01*
X140014213Y-99965890D01*
X139863890Y-100116213D01*
X139738951Y-100288179D01*
X139642444Y-100477585D01*
X139576753Y-100679760D01*
X139550231Y-100847213D01*
X139543500Y-100889713D01*
X139543500Y-101102287D01*
X139545084Y-101112286D01*
X139574378Y-101297246D01*
X139576754Y-101312243D01*
X139634477Y-101489896D01*
X139642444Y-101514414D01*
X139738951Y-101703820D01*
X139863890Y-101875786D01*
X140014213Y-102026109D01*
X140186182Y-102151050D01*
X140194946Y-102155516D01*
X140245742Y-102203491D01*
X140262536Y-102271312D01*
X140239998Y-102337447D01*
X140194946Y-102376484D01*
X140186182Y-102380949D01*
X140014213Y-102505890D01*
X139863890Y-102656213D01*
X139738951Y-102828179D01*
X139642444Y-103017585D01*
X139576753Y-103219760D01*
X139565277Y-103292217D01*
X139543500Y-103429713D01*
X139543500Y-103642287D01*
X139544090Y-103646011D01*
X139574378Y-103837246D01*
X139576754Y-103852243D01*
X139639803Y-104046288D01*
X139642444Y-104054414D01*
X139738951Y-104243820D01*
X139863890Y-104415786D01*
X140014213Y-104566109D01*
X140186182Y-104691050D01*
X140194946Y-104695516D01*
X140245742Y-104743491D01*
X140262536Y-104811312D01*
X140239998Y-104877447D01*
X140194946Y-104916484D01*
X140186182Y-104920949D01*
X140014213Y-105045890D01*
X139863890Y-105196213D01*
X139738951Y-105368179D01*
X139642444Y-105557585D01*
X139576753Y-105759760D01*
X139548873Y-105935789D01*
X139543500Y-105969713D01*
X139543500Y-106182287D01*
X139576754Y-106392243D01*
X139637335Y-106578692D01*
X139642444Y-106594414D01*
X139738951Y-106783820D01*
X139863890Y-106955786D01*
X140014213Y-107106109D01*
X140186182Y-107231050D01*
X140194946Y-107235516D01*
X140245742Y-107283491D01*
X140262536Y-107351312D01*
X140239998Y-107417447D01*
X140194946Y-107456484D01*
X140186182Y-107460949D01*
X140014213Y-107585890D01*
X139863890Y-107736213D01*
X139738951Y-107908179D01*
X139642444Y-108097585D01*
X139576753Y-108299760D01*
X139544097Y-108505943D01*
X139543500Y-108509713D01*
X139543500Y-108722287D01*
X139576754Y-108932243D01*
X139637335Y-109118692D01*
X139642444Y-109134414D01*
X139738951Y-109323820D01*
X139863890Y-109495786D01*
X140014213Y-109646109D01*
X140186182Y-109771050D01*
X140194946Y-109775516D01*
X140245742Y-109823491D01*
X140262536Y-109891312D01*
X140239998Y-109957447D01*
X140194946Y-109996484D01*
X140186182Y-110000949D01*
X140014213Y-110125890D01*
X139863890Y-110276213D01*
X139738951Y-110448179D01*
X139642444Y-110637585D01*
X139576753Y-110839760D01*
X139565246Y-110912412D01*
X139543500Y-111049713D01*
X139543500Y-111262287D01*
X139576754Y-111472243D01*
X139640875Y-111669587D01*
X139642444Y-111674414D01*
X139738951Y-111863820D01*
X139863890Y-112035786D01*
X140014213Y-112186109D01*
X140186182Y-112311050D01*
X140194946Y-112315516D01*
X140245742Y-112363491D01*
X140262536Y-112431312D01*
X140239998Y-112497447D01*
X140194946Y-112536484D01*
X140186182Y-112540949D01*
X140014213Y-112665890D01*
X139863890Y-112816213D01*
X139738948Y-112988184D01*
X139738947Y-112988185D01*
X139718765Y-113027795D01*
X139670791Y-113078591D01*
X139608281Y-113095500D01*
X138761097Y-113095500D01*
X138694058Y-113075815D01*
X138673416Y-113059181D01*
X138431819Y-112817584D01*
X138398334Y-112756261D01*
X138395500Y-112729903D01*
X138395500Y-108505945D01*
X138395500Y-108505943D01*
X138354577Y-108353216D01*
X138354577Y-108353215D01*
X138279233Y-108222716D01*
X138275520Y-108216284D01*
X138275516Y-108216279D01*
X138159397Y-108100160D01*
X138159374Y-108100139D01*
X137551590Y-107492355D01*
X137551588Y-107492352D01*
X137432717Y-107373481D01*
X137432712Y-107373477D01*
X137303286Y-107298754D01*
X137295785Y-107294423D01*
X137143057Y-107253499D01*
X136984943Y-107253499D01*
X136977347Y-107253499D01*
X136977331Y-107253500D01*
X135575719Y-107253500D01*
X135508680Y-107233815D01*
X135465235Y-107185795D01*
X135445052Y-107146185D01*
X135445051Y-107146184D01*
X135320109Y-106974213D01*
X135169786Y-106823890D01*
X134997820Y-106698951D01*
X134997115Y-106698591D01*
X134989054Y-106694485D01*
X134938259Y-106646512D01*
X134921463Y-106578692D01*
X134943999Y-106512556D01*
X134989054Y-106473515D01*
X134997816Y-106469051D01*
X135103534Y-106392243D01*
X135169786Y-106344109D01*
X135169788Y-106344106D01*
X135169792Y-106344104D01*
X135320104Y-106193792D01*
X135320106Y-106193788D01*
X135320109Y-106193786D01*
X135443902Y-106023397D01*
X135445051Y-106021816D01*
X135541557Y-105832412D01*
X135607246Y-105630243D01*
X135640500Y-105420287D01*
X135640500Y-105207713D01*
X135607246Y-104997757D01*
X135541557Y-104795588D01*
X135445051Y-104606184D01*
X135445049Y-104606181D01*
X135445048Y-104606179D01*
X135320109Y-104434213D01*
X135169786Y-104283890D01*
X134997817Y-104158949D01*
X134988504Y-104154204D01*
X134937707Y-104106230D01*
X134920912Y-104038409D01*
X134943449Y-103972274D01*
X134988507Y-103933232D01*
X134997555Y-103928622D01*
X135051716Y-103889270D01*
X135051717Y-103889270D01*
X134419408Y-103256962D01*
X134482993Y-103239925D01*
X134597007Y-103174099D01*
X134690099Y-103081007D01*
X134755925Y-102966993D01*
X134772962Y-102903408D01*
X135405270Y-103535717D01*
X135405270Y-103535716D01*
X135444622Y-103481554D01*
X135541095Y-103292217D01*
X135606757Y-103090130D01*
X135606757Y-103090127D01*
X135640000Y-102880246D01*
X135640000Y-102667753D01*
X135606757Y-102457872D01*
X135606757Y-102457869D01*
X135541095Y-102255782D01*
X135444624Y-102066449D01*
X135405270Y-102012282D01*
X135405269Y-102012282D01*
X134772962Y-102644590D01*
X134755925Y-102581007D01*
X134690099Y-102466993D01*
X134597007Y-102373901D01*
X134482993Y-102308075D01*
X134419409Y-102291037D01*
X135051716Y-101658728D01*
X134997550Y-101619375D01*
X134914355Y-101576985D01*
X134863559Y-101529010D01*
X134846764Y-101461189D01*
X134869301Y-101395054D01*
X134924017Y-101351603D01*
X134970650Y-101342500D01*
X137291903Y-101342500D01*
X137358942Y-101362185D01*
X137379584Y-101378819D01*
X137717181Y-101716416D01*
X137750666Y-101777739D01*
X137753500Y-101804097D01*
X137753500Y-102956234D01*
X137733815Y-103023273D01*
X137732602Y-103025125D01*
X137644609Y-103156814D01*
X137644602Y-103156827D01*
X137584264Y-103302498D01*
X137584261Y-103302510D01*
X137553500Y-103457153D01*
X137553500Y-103614846D01*
X137584261Y-103769489D01*
X137584264Y-103769501D01*
X137644602Y-103915172D01*
X137644607Y-103915181D01*
X137732210Y-104046288D01*
X137732213Y-104046292D01*
X137843707Y-104157786D01*
X137843711Y-104157789D01*
X137974814Y-104245390D01*
X137974827Y-104245397D01*
X138120498Y-104305735D01*
X138120503Y-104305737D01*
X138275153Y-104336499D01*
X138275156Y-104336500D01*
X138275158Y-104336500D01*
X138432844Y-104336500D01*
X138432845Y-104336499D01*
X138587497Y-104305737D01*
X138733179Y-104245394D01*
X138864289Y-104157789D01*
X138975789Y-104046289D01*
X139041019Y-103948666D01*
X139063393Y-103915181D01*
X139063397Y-103915172D01*
X139080705Y-103873386D01*
X139123737Y-103769497D01*
X139154500Y-103614842D01*
X139154500Y-103457158D01*
X139154500Y-103457155D01*
X139154499Y-103457153D01*
X139143088Y-103399786D01*
X139123737Y-103302503D01*
X139123735Y-103302498D01*
X139063397Y-103156827D01*
X139063390Y-103156814D01*
X138975398Y-103025125D01*
X138954520Y-102958447D01*
X138954500Y-102956234D01*
X138954500Y-101593060D01*
X138954501Y-101593047D01*
X138954501Y-101424944D01*
X138953317Y-101420524D01*
X138913577Y-101272216D01*
X138913573Y-101272209D01*
X138834524Y-101135290D01*
X138834518Y-101135282D01*
X138079590Y-100380355D01*
X138079588Y-100380352D01*
X137960717Y-100261481D01*
X137960716Y-100261480D01*
X137873904Y-100211360D01*
X137873904Y-100211359D01*
X137873900Y-100211358D01*
X137823785Y-100182423D01*
X137671057Y-100141499D01*
X137512943Y-100141499D01*
X137505347Y-100141499D01*
X137505331Y-100141500D01*
X122685057Y-100141500D01*
X122526942Y-100141500D01*
X122374215Y-100182423D01*
X122374214Y-100182423D01*
X122374212Y-100182424D01*
X122374209Y-100182425D01*
X122324096Y-100211359D01*
X122324095Y-100211360D01*
X122280689Y-100236420D01*
X122237285Y-100261479D01*
X122237282Y-100261481D01*
X121132181Y-101366583D01*
X121070858Y-101400068D01*
X121001166Y-101395084D01*
X120945233Y-101353212D01*
X120920816Y-101287748D01*
X120920500Y-101278902D01*
X120920500Y-97079753D01*
X129638000Y-97079753D01*
X129638000Y-97292246D01*
X129671242Y-97502127D01*
X129671242Y-97502130D01*
X129736904Y-97704217D01*
X129833375Y-97893550D01*
X129872728Y-97947716D01*
X130505037Y-97315408D01*
X130522075Y-97378993D01*
X130587901Y-97493007D01*
X130680993Y-97586099D01*
X130795007Y-97651925D01*
X130858590Y-97668962D01*
X130226282Y-98301269D01*
X130226282Y-98301270D01*
X130280449Y-98340624D01*
X130469782Y-98437095D01*
X130671870Y-98502757D01*
X130881754Y-98536000D01*
X131094246Y-98536000D01*
X131304127Y-98502757D01*
X131304130Y-98502757D01*
X131506217Y-98437095D01*
X131695554Y-98340622D01*
X131749716Y-98301270D01*
X131749717Y-98301270D01*
X131117408Y-97668962D01*
X131180993Y-97651925D01*
X131295007Y-97586099D01*
X131388099Y-97493007D01*
X131453925Y-97378993D01*
X131470962Y-97315409D01*
X132141181Y-97985628D01*
X132174666Y-98046951D01*
X132177500Y-98073300D01*
X132177500Y-98083865D01*
X132177501Y-98083876D01*
X132183908Y-98143483D01*
X132234202Y-98278328D01*
X132234206Y-98278335D01*
X132320452Y-98393544D01*
X132320455Y-98393547D01*
X132435664Y-98479793D01*
X132435671Y-98479797D01*
X132570517Y-98530091D01*
X132570516Y-98530091D01*
X132577444Y-98530835D01*
X132630127Y-98536500D01*
X134425872Y-98536499D01*
X134485483Y-98530091D01*
X134620331Y-98479796D01*
X134735546Y-98393546D01*
X134821796Y-98278331D01*
X134872091Y-98143483D01*
X134878500Y-98083873D01*
X134878499Y-96288128D01*
X134872091Y-96228517D01*
X134821796Y-96093669D01*
X134821795Y-96093668D01*
X134821793Y-96093664D01*
X134735547Y-95978455D01*
X134735544Y-95978452D01*
X134620335Y-95892206D01*
X134620328Y-95892202D01*
X134485482Y-95841908D01*
X134485483Y-95841908D01*
X134425883Y-95835501D01*
X134425881Y-95835500D01*
X134425873Y-95835500D01*
X134425864Y-95835500D01*
X132630129Y-95835500D01*
X132630123Y-95835501D01*
X132570516Y-95841908D01*
X132435671Y-95892202D01*
X132435664Y-95892206D01*
X132320455Y-95978452D01*
X132320452Y-95978455D01*
X132234206Y-96093664D01*
X132234202Y-96093671D01*
X132183908Y-96228517D01*
X132177501Y-96288116D01*
X132177501Y-96288123D01*
X132177500Y-96288135D01*
X132177500Y-96298690D01*
X132157815Y-96365729D01*
X132141181Y-96386371D01*
X131470962Y-97056590D01*
X131453925Y-96993007D01*
X131388099Y-96878993D01*
X131295007Y-96785901D01*
X131180993Y-96720075D01*
X131117409Y-96703037D01*
X131749716Y-96070728D01*
X131695550Y-96031375D01*
X131506217Y-95934904D01*
X131304129Y-95869242D01*
X131094246Y-95836000D01*
X130881754Y-95836000D01*
X130671872Y-95869242D01*
X130671869Y-95869242D01*
X130469782Y-95934904D01*
X130280439Y-96031380D01*
X130226282Y-96070727D01*
X130226282Y-96070728D01*
X130858591Y-96703037D01*
X130795007Y-96720075D01*
X130680993Y-96785901D01*
X130587901Y-96878993D01*
X130522075Y-96993007D01*
X130505037Y-97056591D01*
X129872728Y-96424282D01*
X129872727Y-96424282D01*
X129833380Y-96478439D01*
X129736904Y-96667782D01*
X129671242Y-96869869D01*
X129671242Y-96869872D01*
X129638000Y-97079753D01*
X120920500Y-97079753D01*
X120920500Y-90724549D01*
X123191500Y-90724549D01*
X123191500Y-90947450D01*
X123191501Y-90947466D01*
X123220594Y-91168452D01*
X123220595Y-91168457D01*
X123220596Y-91168463D01*
X123220597Y-91168465D01*
X123278290Y-91383780D01*
X123278293Y-91383790D01*
X123363081Y-91588486D01*
X123363595Y-91589726D01*
X123475052Y-91782774D01*
X123475057Y-91782780D01*
X123475058Y-91782782D01*
X123610751Y-91959622D01*
X123610757Y-91959629D01*
X123768370Y-92117242D01*
X123768376Y-92117247D01*
X123945226Y-92252948D01*
X124138274Y-92364405D01*
X124344219Y-92449710D01*
X124559537Y-92507404D01*
X124780543Y-92536500D01*
X124780550Y-92536500D01*
X125003450Y-92536500D01*
X125003457Y-92536500D01*
X125224463Y-92507404D01*
X125439781Y-92449710D01*
X125645726Y-92364405D01*
X125838774Y-92252948D01*
X126015624Y-92117247D01*
X126173247Y-91959624D01*
X126308948Y-91782774D01*
X126420405Y-91589726D01*
X126505710Y-91383781D01*
X126563404Y-91168463D01*
X126592500Y-90947457D01*
X126592500Y-90724543D01*
X126563404Y-90503537D01*
X126505710Y-90288219D01*
X126420405Y-90082274D01*
X126308948Y-89889226D01*
X126288633Y-89862750D01*
X126173246Y-89712374D01*
X126095007Y-89634135D01*
X129333500Y-89634135D01*
X129333500Y-91529870D01*
X129333501Y-91529876D01*
X129339908Y-91589483D01*
X129390202Y-91724328D01*
X129390206Y-91724335D01*
X129476452Y-91839544D01*
X129476455Y-91839547D01*
X129591664Y-91925793D01*
X129591671Y-91925797D01*
X129726517Y-91976091D01*
X129726516Y-91976091D01*
X129733444Y-91976835D01*
X129786127Y-91982500D01*
X131681872Y-91982499D01*
X131741483Y-91976091D01*
X131876331Y-91925796D01*
X131991546Y-91839546D01*
X132077796Y-91724331D01*
X132081747Y-91713739D01*
X132107601Y-91644420D01*
X132149471Y-91588486D01*
X132214936Y-91564068D01*
X132283209Y-91578919D01*
X132311464Y-91600071D01*
X132361636Y-91650243D01*
X132361641Y-91650247D01*
X132517192Y-91763260D01*
X132539978Y-91779815D01*
X132668375Y-91845237D01*
X132736393Y-91879895D01*
X132736396Y-91879896D01*
X132841221Y-91913955D01*
X132946049Y-91948015D01*
X133163778Y-91982500D01*
X133163779Y-91982500D01*
X133384221Y-91982500D01*
X133384222Y-91982500D01*
X133601951Y-91948015D01*
X133811606Y-91879895D01*
X134008022Y-91779815D01*
X134186365Y-91650242D01*
X134342242Y-91494365D01*
X134471815Y-91316022D01*
X134571895Y-91119606D01*
X134640015Y-90909951D01*
X134674500Y-90692222D01*
X134674500Y-90471778D01*
X134640015Y-90254049D01*
X134584203Y-90082274D01*
X134571896Y-90044396D01*
X134571895Y-90044393D01*
X134526964Y-89956213D01*
X134471815Y-89847978D01*
X134441241Y-89805896D01*
X134342247Y-89669641D01*
X134342243Y-89669636D01*
X134186363Y-89513756D01*
X134186358Y-89513752D01*
X134008025Y-89384187D01*
X134008024Y-89384186D01*
X134008022Y-89384185D01*
X133894043Y-89326109D01*
X133811606Y-89284104D01*
X133811603Y-89284103D01*
X133601952Y-89215985D01*
X133493086Y-89198742D01*
X133384222Y-89181500D01*
X133163778Y-89181500D01*
X133091201Y-89192995D01*
X132946047Y-89215985D01*
X132736396Y-89284103D01*
X132736393Y-89284104D01*
X132539974Y-89384187D01*
X132361641Y-89513752D01*
X132361636Y-89513756D01*
X132311463Y-89563929D01*
X132250140Y-89597413D01*
X132180448Y-89592428D01*
X132124515Y-89550557D01*
X132107601Y-89519580D01*
X132077797Y-89439671D01*
X132077793Y-89439664D01*
X131991547Y-89324455D01*
X131991544Y-89324452D01*
X131876335Y-89238206D01*
X131876328Y-89238202D01*
X131741482Y-89187908D01*
X131741483Y-89187908D01*
X131681883Y-89181501D01*
X131681881Y-89181500D01*
X131681873Y-89181500D01*
X131681864Y-89181500D01*
X129786129Y-89181500D01*
X129786123Y-89181501D01*
X129726516Y-89187908D01*
X129591671Y-89238202D01*
X129591664Y-89238206D01*
X129476455Y-89324452D01*
X129476452Y-89324455D01*
X129390206Y-89439664D01*
X129390202Y-89439671D01*
X129339908Y-89574517D01*
X129333501Y-89634116D01*
X129333500Y-89634135D01*
X126095007Y-89634135D01*
X126015629Y-89554757D01*
X126015622Y-89554751D01*
X125838782Y-89419058D01*
X125838780Y-89419057D01*
X125838774Y-89419052D01*
X125645726Y-89307595D01*
X125645722Y-89307593D01*
X125439790Y-89222293D01*
X125439783Y-89222291D01*
X125439781Y-89222290D01*
X125224463Y-89164596D01*
X125224457Y-89164595D01*
X125224452Y-89164594D01*
X125003466Y-89135501D01*
X125003463Y-89135500D01*
X125003457Y-89135500D01*
X124780543Y-89135500D01*
X124780537Y-89135500D01*
X124780533Y-89135501D01*
X124559547Y-89164594D01*
X124559540Y-89164595D01*
X124559537Y-89164596D01*
X124367750Y-89215985D01*
X124344219Y-89222290D01*
X124344209Y-89222293D01*
X124138277Y-89307593D01*
X124138273Y-89307595D01*
X123945226Y-89419052D01*
X123945217Y-89419058D01*
X123768377Y-89554751D01*
X123768370Y-89554757D01*
X123610757Y-89712370D01*
X123610751Y-89712377D01*
X123475058Y-89889217D01*
X123475052Y-89889226D01*
X123363595Y-90082273D01*
X123363593Y-90082277D01*
X123278293Y-90288209D01*
X123278290Y-90288219D01*
X123220597Y-90503534D01*
X123220594Y-90503547D01*
X123191501Y-90724533D01*
X123191500Y-90724549D01*
X120920500Y-90724549D01*
X120920500Y-83516097D01*
X120940185Y-83449058D01*
X120956819Y-83428416D01*
X122056416Y-82328819D01*
X122117739Y-82295334D01*
X122144097Y-82292500D01*
X134965331Y-82292500D01*
X134965347Y-82292501D01*
X134972943Y-82292501D01*
X135131054Y-82292501D01*
X135131057Y-82292501D01*
X135283785Y-82251577D01*
X135346272Y-82215500D01*
X135420716Y-82172520D01*
X135532520Y-82060716D01*
X135532520Y-82060714D01*
X135542724Y-82050511D01*
X135542727Y-82050506D01*
X136294520Y-81298716D01*
X136373577Y-81161784D01*
X136414501Y-81009057D01*
X136414501Y-80850942D01*
X136414501Y-80843347D01*
X136414500Y-80843329D01*
X136414500Y-76912097D01*
X136434185Y-76845058D01*
X136450819Y-76824416D01*
X137042416Y-76232819D01*
X137103739Y-76199334D01*
X137130097Y-76196500D01*
X139608281Y-76196500D01*
X139675320Y-76216185D01*
G37*
%TD.AperFunction*%
%TD*%
M02*
